<svg>
<symbol id="beacon" xmlns="http://www.w3.org/2000/svg" xml:space="preserve" version="1.1" style="shape-rendering:geometricPrecision; text-rendering:geometricPrecision; image-rendering:optimizeQuality; fill-rule:evenodd; clip-rule:evenodd"
viewBox="0 0 7000 7000">
  <path class="fil0" d="M2557.3 5712.23c0,-88.88 68.32,-146.48 156.26,-146.48l1562.5 0c172.31,0 156.24,151.7 156.24,244.14l-1875 0 0 -97.66zm1103.53 -1787.11c0,152.14 195.31,138.19 195.31,0 0,-117.97 -195.31,-117.97 -195.31,0zm-2666.03 -1015.62c0,172.95 212.12,76.2 314.48,50.8 126.09,-31.28 246,-67.39 369.06,-99.68 46.44,-12.18 610.74,-157.36 643.35,-176.97 98.49,-59.21 29.59,-184.3 -37.83,-184.3 -59.09,0 -122.61,24.61 -168.01,37.06 -60.2,16.5 -109.42,29.93 -169.77,45.08 -275.98,69.28 -571.22,159.74 -840.17,224.28 -59.34,14.23 -111.11,35.93 -111.11,103.73zm3623.05 -302.73c0,100.92 190.15,116.08 315.95,152.79l924.29 248.33c73.83,18.66 126.77,-24 136.71,-75.48l0 -34.97c-7.3,-37.73 -39.01,-74.02 -103.22,-89.79 -61.26,-15.04 -112.01,-29.14 -170.28,-44.55 -92.02,-24.37 -952.13,-263.75 -1005.79,-263.75 -55.66,0 -97.66,51.39 -97.66,107.42zm0 -644.53c0,49.77 41.16,107.41 87.89,107.41 57.3,0 585.78,-145.58 677.28,-172.31l500.42 -134.36c70.43,-19.26 103.58,-55.19 111.36,-91.8l0 -35.19c-10.55,-50.55 -65.13,-91.86 -128.86,-77 -65.87,15.36 -125.96,35.09 -185.58,49.75 -300.59,73.89 -621.86,171.91 -923.76,248.11 -25.1,6.35 -68.37,14.56 -90.13,27.05 -20.14,11.55 -48.62,50.87 -48.62,78.34zm-3623.05 -312.51c0,70.45 36.47,91.98 103.71,111.15 59.27,16.89 114.75,30.74 169.68,45.16 111.05,29.13 220.55,58.22 332.15,87.76 66.76,17.67 620.63,175.85 673.77,175.85 92.95,0 131.99,-129.4 55.09,-182.05 -21.89,-14.97 -58.22,-20.92 -87.76,-29.41 -62.8,-18 -127.65,-34.78 -184.19,-50.2 -125.35,-34.15 -250.1,-66.49 -371.16,-97.57 -125.87,-32.31 -243.35,-68.6 -369.04,-99.73 -82.09,-20.33 -322.25,-123.76 -322.25,39.04zm2480.59 -644.53l38.84 0c40.73,7.75 76.83,40.14 78.7,97.19 3.75,115.3 -28.06,94.76 69.84,115.71 266.64,57.07 525.39,341.79 525.39,587.89 64.04,0 107.43,26.19 107.43,87.88 0,118.19 -77.49,107.43 -156.26,107.43l0 566.4c118.06,0 244.14,-26.91 244.14,117.19 0,532.25 43.27,488.29 -273.44,488.29l297.92 2192.32c17.64,44.09 175.11,112.37 239.2,112.37 140.65,0 170.04,8.78 299.68,-61.66 24.65,-13.39 53.88,-35.55 73.54,-53.42 68.14,-61.96 109.61,-54.47 181.21,9.85 75.45,67.82 188.76,109.97 295.14,109.74 84.59,-0.17 158.62,-20.26 222.8,-55.18 127.32,-69.31 90.98,-105.59 187.4,-105.59 27.44,0 77.56,25.35 87.88,71.04l0 34.83c-9.84,47.31 -60.1,108.89 -191.1,181.55 -353.16,195.89 -673.63,-44.04 -707.33,-53.05 -21.53,14.41 -19.47,17.55 -45.55,32.57 -146.06,84.1 -240.86,94.38 -423.21,94.38 11.48,23.91 55.74,322.27 -87.88,322.27l-2089.84 0c-62.61,0 -93.15,-58.42 -97.56,-117.28 -4.45,-59.49 -10.62,-162.71 9.66,-204.99 -119.78,0 -184.47,0.05 -274.82,-27.91 -44.15,-13.66 -63.62,-24.11 -102.82,-43.67l-91.11 -55.37c-54.45,12.68 -62.81,48.25 -169.51,84.39 -199.39,67.52 -355.73,57.75 -543.46,-35.48 -128.76,-63.95 -177.8,-127.57 -185.47,-178.27l0 -28.43c7.4,-46.45 50.65,-76.58 87.9,-76.58 75.02,0 63.37,16.26 111.42,54.59 139.41,111.21 359.09,146.33 519.51,48.99 123.1,-74.72 142.42,-160.83 260.75,-57.76 125.48,109.29 223.64,110.44 368.08,110.44 52.94,0 224.25,-60.59 241.54,-119.8 9.4,-32.25 16.72,-119.32 21.6,-154.18l253.88 -1875.03c6.73,-47.89 20.09,-107.89 20.09,-155.68 -140.63,0 -273.44,30.27 -273.44,-117.18 0,-520.03 -39.85,-488.3 244.14,-488.3l0 -566.4 -68.36 0c-106.01,0 -139.26,-195.31 19.53,-195.31 0,-246.1 258.76,-530.82 525.41,-587.89 97.88,-20.95 66.08,-0.41 69.83,-115.71 1.86,-57.05 37.96,-89.44 78.71,-97.19zm632.22 3669.46l49.51 345.97c13.68,113.85 40.81,233.93 40.81,349.81l-781.26 0 690.94 -695.78zm-1228.04 -7.35c3.4,-40.93 13.9,-92 20.09,-136.15 6.15,-43.76 12.27,-94.09 18.42,-137.85 12.59,-89.68 22.92,-190.23 37.51,-274.98 9.53,-55.25 0.54,-30.9 63.14,-93.12l824.51 -825.87c23.76,-23.63 18.89,-25.21 61.73,-26.16 17.4,209.13 166.01,1121.72 166.01,1249.99l-827.64 832.52c-148.54,148.54 -49.39,114.75 -451.66,114.75 0,-103.17 24.19,-204.95 36.02,-305.76 7.53,-64.02 -9.3,-49.31 29.21,-88 80.58,-80.98 154.55,-153.17 235.06,-233.68 78.89,-78.88 150.61,-150.61 229.5,-229.5 92.27,-92.27 222.16,-186.22 222.16,-275.87 0,-49.99 -51.36,-97.65 -97.66,-97.65 -59.72,0 -240.52,206.33 -290.53,256.34l-275.87 270.99zm129.37 -915.54c-1.61,-38.69 10.53,-106.86 15.4,-140.87l60.31 -437.72 498.05 0 -573.76 578.59zm-197.73 -988.76l1367.19 0 0 205.09 -1367.19 0 0 -205.09zm234.39 -761.71l898.42 0 0 566.4 -898.42 0 0 -566.4zm449.2 -605.48c201.94,0 392.91,133.13 469.09,321.94 10.73,26.62 17.79,64.95 28.96,88.23l-996.1 0c21.42,-44.62 8.75,-64.28 65.08,-159.55 87.87,-148.62 260.41,-250.62 432.97,-250.62z" />
</symbol>

<symbol id="candle" xmlns="http://www.w3.org/2000/svg" xml:space="preserve" version="1.1" style="shape-rendering:geometricPrecision; text-rendering:geometricPrecision; image-rendering:optimizeQuality; fill-rule:evenodd; clip-rule:evenodd"
viewBox="0 0 7000 7000">
  <path class="fil0" d="M1171.29 5054.89l-4.29 5.58c7.13,32.86 43.33,102.65 86,176.05 63.01,108.53 139.92,223.67 158.97,240.53 123.49,109.25 248.3,106.77 440.41,102.78l126.85 -1.73 1325.32 0 -21.59 -26.83c-17.89,-21.88 -36.42,-44.27 -51.54,-70.8l-25.21 -45.29c-14.11,-25.51 -28.21,-50.95 -44.86,-78.57l-26.24 -43.11c-73.12,-119.64 -98.41,-160.85 -100.03,-282.83l-1813.7 0c-10.75,0 -16.8,0.36 -21.01,1.82 -4.64,1.53 -9.23,4.51 -16.43,9.45 -5.89,3.99 -6.98,5.39 -7.92,6.76l-4.73 6.19zm1954.29 -2275.22c-8,-13.52 -12.78,-31.55 -12.78,-54.73 0,-29.15 36.2,-63.24 82.64,-94.13 73.92,-49.29 177.21,-93.63 192.48,-93.63 22.6,0 42.95,10.69 57.49,27.26 14.47,16.42 23.42,39.26 23.42,63.31 0,57.65 -50.89,84.32 -93.49,106.56 -29.8,16 -58.8,32.93 -88.09,49.79 -26.31,15.7 -63.03,29.44 -95.3,29.44 -13.15,0 -25.88,-2.33 -37.15,-7.48 -11.62,-5.39 -21.88,-14.04 -29.22,-26.39zm-136.5 -341.35c-30.38,43.18 -64.33,76.04 -96.6,76.04 -19.93,0 -40.57,-10.4 -56.49,-25.66 -15.84,-15.12 -27.61,-35.9 -29.8,-56.33l-0.22 -2.69c0,-18.91 29.8,-85.27 65.13,-146.69 36.14,-62.58 79.45,-121.68 106.06,-124.51l2.11 -0.16c23.92,-0.06 50.23,1.9 71.31,12.37 22.9,11.41 39.32,31.97 39.32,68.47 0,5.81 -46.24,121.54 -100.82,199.16zm1954.43 -691.48l-1.08 0c-24.21,0 -46.31,-6.91 -63.31,-19.33 -16.87,-12.43 -28.72,-30.6 -32.93,-53.06 -7.12,-37.94 40.49,-116.95 72.11,-169.29l19.47 -33c23.42,-42.68 48.57,-66.36 72.48,-76.91 17.8,-7.78 35.33,-8.5 50.81,-4.51 15.18,3.93 28.78,12.65 39.54,23.56 16.05,16.35 26.17,38.52 26.89,57.86l0.07 0.86c-0.07,15.28 -29.88,83.08 -66.58,146.17 -37.66,64.71 -84.1,126.27 -117.47,127.65zm-3376.93 981.51c-42.17,-20.93 -85.99,-42.81 -85.99,-100.6 0,-26.97 9.16,-49.57 24.99,-65.48 16,-15.94 38.6,-25.09 65.57,-25.09 24.57,0 128.88,62.51 153.73,77.41l22.98 12.87c42.53,23.04 88.75,48.05 88.75,107.21 0,21.16 -8.58,39.26 -20.07,52.7 -15.32,17.81 -36.84,28.13 -51.02,28.13 -57.42,0 -92.82,-22.75 -136.72,-51.03l-33.15 -20.78 -29.07 -15.34zm550.98 -243.94c-17.38,17.38 -40.21,29.95 -60.64,29.95 -56.39,0 -88.53,-59.9 -120.5,-119.57l-27.57 -48.99c-15.69,-25.81 -44.04,-72.4 -46.29,-97.26 -3.63,-39.83 10.47,-62.73 32.85,-75.74 20.79,-12.07 48.05,-14.54 74.08,-14.54 22.3,0 51.82,33.65 80.31,77.12 48.27,74 97.7,181.07 97.7,188.41 0,20.43 -12.59,43.25 -29.94,60.62zm3035.44 -515.43l0 -1.81c0,-60.78 46.23,-84.4 90.65,-107l28.13 -15.06 22.52 -13.8c40.35,-25.15 99.02,-61.64 133.91,-61.64 18.31,0 40.41,10.97 56.91,28.21 10.25,10.75 18.9,24.33 23.03,39.09 4.29,15.2 4.29,32.14 -2.31,49.29 -8.74,22.9 -29.74,46.22 -68.18,66.51 -14.98,7.85 -35.12,19.92 -56.35,32.71 -51.38,30.68 -110.69,66.29 -139.05,66.94l-1.02 0.08c-13.5,0 -35.24,-6.1 -53.34,-19.19 -18.61,-13.52 -34.17,-34.68 -34.9,-64.33zm-1196.66 -375.14c-23.4,-38.1 -56.62,-91.96 -56.62,-122.2 0,-22.6 10.54,-42.96 27.18,-57.48 16.57,-14.48 39.33,-23.42 63.39,-23.42 58.94,0 84.97,48.55 118.48,111.65 9.59,18.03 19.99,37.58 31.4,56.48l9.59 15.04c18.61,29.01 40.2,62.52 32.28,99.3 -3.2,15.2 -14.18,33.87 -29.37,48.33 -11.56,10.99 -26.09,20.21 -42.01,24.14 -16.51,4.22 -34.68,2.91 -52.63,-6.76 -16.2,-8.86 -32.34,-24.72 -46.96,-49.71l-54.73 -95.37zm-318.66 387.71c-69.06,-37.5 -116.89,-63.67 -116.89,-121.32 0,-26.96 9.16,-49.57 25.01,-65.48 15.98,-15.92 38.66,-25.08 65.63,-25.08 22.54,0 114.42,55.89 146.03,75.01l74.58 43.62c23.7,15.18 37.15,33.87 42.45,52.84 4.65,16.28 3.41,33.15 -1.89,48.33 -5.15,14.84 -14.53,28.57 -26.01,39.11 -16.22,14.98 -37.58,24.36 -59.03,23.84 -28.86,-0.72 -68.4,-24.13 -93.69,-39.25l-56.19 -31.62zm1897.38 493.93l-155.49 0c-57.78,0 -92.01,-22.76 -106.91,-51.98 -5.97,-11.77 -8.88,-24.8 -8.8,-37.58 0.06,-12.57 3.05,-25.44 8.42,-37.15 14.1,-30.45 45.3,-54.43 87.89,-54.43l194.3 0c43.46,0 74.56,23.62 88.67,53.64 5.52,11.84 8.51,24.63 8.51,37.22 0,12.78 -2.91,25.73 -9.01,37.64 -15.2,29.44 -49.79,52.64 -107.58,52.64zm-1990.21 2.61c-85.04,0 -169.79,-13.08 -169.79,-93.19 0,-80.03 76.39,-93.77 165.44,-93.77l129.16 3.21c41.87,0 71.38,23.32 84.67,53.28 5.17,11.55 7.94,24.41 7.94,36.92 0,12.72 -2.83,25.65 -8.58,37.42 -14.62,29.96 -47.97,53.52 -103.44,53.52l-105.4 2.61zm-1934.8 764.89l-155.49 0c-29.66,0 -55.45,-5.52 -75.52,-18.09 -19.19,-12.01 -32.79,-30.32 -38.96,-55.83 -14.9,-61.06 17.44,-89.77 69.2,-102.41 45.86,-11.13 107.57,-8.58 162.39,-6.41l57.78 1.6c42.31,0 73.13,24 87.15,54.3 5.39,11.56 8.28,24.49 8.36,37.14 0.08,12.8 -2.83,25.73 -8.72,37.52 -14.83,29.36 -48.92,52.18 -106.19,52.18zm1759.34 1.97c-95.08,0 -140.08,-14.04 -140.08,-111.94 0,-62.87 83.81,-74.58 171.4,-74.58l132.95 3.41c31.83,0 59.02,24.21 71.45,54.96 4.58,11.48 7.34,24.13 7.42,36.56 0.08,12.64 -2.55,25.65 -8.36,37.44 -14.46,29.28 -48.27,52.18 -109.33,52.18l-125.45 1.97zm1053.32 -1822.95l1.6 -76.62c0,-48.11 22.3,-78.05 51.25,-91.08 11.55,-5.22 24.35,-7.7 37,-7.56 12.56,0.16 25.35,2.99 36.98,8.14 31.12,13.82 55.97,44.86 55.97,90.5l2.91 130.48c0,87.74 -13.44,154.39 -93.47,154.39 -80.11,0 -93.77,-58.81 -93.77,-145.66l1.53 -62.59zm-2040.07 759.16l1.45 -68.26c0,-47.31 23.56,-78.07 53.58,-91.59 11.77,-5.31 24.49,-7.99 37,-7.99 12.65,0 25.43,2.76 37.06,7.99 30.02,13.52 53.58,44.28 53.58,91.59l3.27 137.31c0,86.14 -13.88,147.55 -93.91,147.55 -80.03,0 -93.47,-66.66 -93.47,-154.39l1.44 -62.21zm-1387.76 2906.2l-0.08 -2.83c0.3,-80.25 23.06,-137.16 65.51,-173.94 42.08,-36.42 103.28,-52.4 180.55,-51.46l48.26 1.59c28.64,1.32 44.7,1.98 50.3,-2.69 6.99,-5.88 6.55,-27.61 5.39,-75.96l-0.16 -6.9c-0.94,-39.39 -0.58,-72.69 10.47,-97.04 12.29,-26.97 35.77,-42.45 80.03,-42.45 71.53,0 83.08,69.28 83.08,143.5l-2.03 80.03 1858.86 0 0 -628.39c0,-23.26 -24.28,-43.83 -57.51,-59.69 -45.86,-21.94 -108.23,-34.3 -153.07,-34.3l-1379.56 0c-56.03,0 -101.69,9.45 -138.97,27.32 -36.86,17.68 -66.14,44.06 -89.48,77.86 -29.58,42.8 -35.19,89.12 -39.76,127.78 -7.27,61.65 -12.64,107.07 -91.29,107.07 -19.19,0 -35.69,-6.68 -48.93,-18.67 -19.03,-17.23 -30.82,-45.66 -34.15,-80.33 -3.28,-33.07 0.86,-72.62 13.22,-113.89 24.58,-82.5 82.36,-173.66 179.11,-238.29 98.41,-65.78 204.89,-63.81 345.18,-61.34l73.13 0.94c-9.82,-35.83 -20.43,-55.23 -30.38,-73.41 -23.4,-42.6 -43.69,-79.6 -43.69,-273.09 0,-143.86 148.21,-396.01 242.06,-555.56l31.4 -53.72c12.78,-22.08 25.65,-47.53 38.95,-73.92 63.97,-126.41 139.63,-275.91 301.74,-260.15 139.41,13.6 197.34,124.59 271.12,265.97l76.62 143.42c15.04,28.56 29.88,56.83 47.31,86.13l103.73 186.15c17.45,31.04 32.43,57.5 47.69,103.22 10.75,32.2 18.01,59.17 23.76,87.07 5.6,27.49 9.81,56.05 14.4,92.1 14.02,108.45 -36.78,225.42 -66.66,294.39l-13.37 31.48 205.85 -0.14c67.67,-0.44 95.65,9.59 129.24,21.65 12.29,4.36 25.43,9.17 42.31,13.74l-0.16 -50.01c-1.22,-207.75 -1.96,-340.4 118.05,-460.12 132.66,-132.29 211.02,-131.19 411.12,-128.36l88.55 0.86c-4.01,-11.25 -8.96,-20.85 -14.54,-31.75 -13.23,-25.74 -30.32,-58.95 -49.15,-136.66 -52.48,-216.61 23.63,-354.86 99.3,-492.17l41.36 -77.2 202.73 -367.28c52.55,-95.01 103.44,-187.03 242.63,-187.03 135.12,0 187.6,93.47 240.96,188.54l30.38 52.64c22.9,37.21 36.7,74.43 36.7,105.1 0,13.09 -2.53,25.37 -7.77,35.99 -5.37,10.89 -13.81,20.34 -25.08,27.25 -14.9,9.23 -35.25,14.46 -61.49,14.46 -48.56,0 -72.47,-46.66 -97.99,-96.45l-35.76 -68.98c-17.29,-37 -36.26,-77.41 -79.95,-77.41 -42.38,0 -55.09,26.75 -68.84,55.81l-7.06 14.69 -166.01 301.29 -31.76 54.02c-70.51,119.13 -150.68,254.54 -150.68,377.4 0,55.01 13.58,117.53 34.45,171.6 15.77,40.71 35.68,76.62 56.85,100.61 0.79,-26.54 2.97,-50.08 7.04,-71.96 5.6,-29.74 14.98,-56.55 29.74,-83.38l152.85 -274.61c18.39,-31.7 42.17,-54.82 68.26,-69.42 23.84,-13.38 49.93,-19.92 75.88,-19.55 25.95,0.36 52.04,7.62 75.82,21.44 27.19,15.84 51.82,40.56 70.37,73.55l39.18 68.26c68.32,117.33 136.71,234.93 146.25,356.17 20.63,-23.55 40.77,-59.38 56.83,-99.73 21,-52.48 35.11,-112.52 35.11,-163.25 0,-121.89 -46.6,-200.26 -82.51,-260.73 -24.05,-40.63 -43.74,-73.7 -43.74,-108.45 0,-15.34 9.65,-37.36 25.65,-54.45 9.96,-10.68 22.74,-19.85 37.14,-24.5 14.83,-4.79 31.76,-5.16 49.35,1.76 22.46,8.79 46.38,29.72 69.28,68.54 56.99,96.82 99.15,191.39 115.35,289.95 16.36,98.99 6.54,202.08 -40.05,315.04l-14.53 30.66c-6.48,12.8 -13.02,25.73 -17.96,40.19l82.07 -0.64c218.07,-2.33 295.32,-3.21 432.5,143.04 27.68,29.52 52.48,68.12 69.41,113.4 15.04,40.27 24.2,86.05 24.2,135.64l-0.44 991.31 -1.23 53.29c-1.74,46.96 -2.04,58.21 27.7,61.27 22.16,2.33 46.08,1.01 69.71,-0.21 31.54,-1.75 63.24,-3.49 94.13,3.12 42.89,9.15 84.16,35.18 113.76,71.01 27.83,33.81 45.78,76.55 45.78,122.41 0,85.63 -33.13,141.03 -80.31,219.6l-43.76 74.72c-113.4,198 -234.2,408.36 -568.87,408.36l-1029.84 0c-21.07,0 -44.41,-8.36 -61.64,-21.31 -17.07,-12.86 -28.92,-30.52 -28.92,-49.85 0,-112.02 32.99,-111.72 179.46,-110.34l338.58 0.3c104.31,0 202.72,1.22 288.22,2.25 255.06,3.05 392.36,4.71 486.2,-33.01 107.58,-43.17 162.89,-141.81 282.18,-354.5l27.1 -48.33 15.56 -24.94c11.35,-17.09 20.79,-31.33 24.06,-58.22l-24.5 -23.99c-8.93,-4.87 -12.2,-6.69 -30.08,-6.69l-2506.58 0c-34.01,0 -46.08,18.39 -50.45,24.94l-4.21 5.38c4.29,30.74 22.53,60.32 39.1,87.01l25.59 44.62c48.99,90.64 134.62,249.18 196.04,296.93 118.49,92.1 200.25,90.5 316.42,88.11 35.91,-0.8 75.22,-1.6 119.56,0.14 53.72,2.11 88.03,25.37 103.23,54.29 6.32,12.15 9.37,25.45 9.15,38.46 -0.21,13.01 -3.92,26.23 -10.61,38.08 -16.21,28.64 -50.96,50.67 -102.64,50.67l-60.9 0.43c-83.74,1.1 -162.69,2.04 -247.01,-16.21 -70.65,-15.26 -93.47,-24.64 -102.41,-28.35 -8.43,4.51 -30.67,15.06 -106.13,30.1 -123.35,24.5 -984.63,18.53 -1448.95,15.34l-249.7 -1.31c-350.07,0 -478.57,-237.83 -610.94,-482.94l-48.49 -87.01c-17.65,-28.78 -33.07,-53.94 -33.43,-101.99zm2632.25 -1486.17c-44.4,41.29 -70.87,100.59 -70.87,173l0 1085.02 1917.37 0 0 -1085.02c0,-71.81 -26.75,-131.13 -71.3,-172.56 -46.15,-42.81 -112.02,-67.17 -187.9,-67.17l-1399.04 0c-76.32,0 -142.16,23.98 -188.26,66.73zm-1304.68 364.17l305.08 0 1.53 -21.44c2.03,-25.95 3.33,-42.53 -10.17,-77.14l-118.27 -211.8c-10.25,-16.93 -19.77,-32.57 -25.89,-52.04 -6.6,22.82 -15.62,36.92 -26.09,53.42l-59.38 101.69c-47.68,80.55 -65.43,110.71 -66.81,207.31zm-267.05 -251.57c7.92,90.7 40.49,171.03 86.06,217.18 0.59,-33.21 2.47,-55.09 7.2,-74.8 5.74,-24.71 15.85,-44.76 32.85,-78.13l151.92 -277.38c20.2,-31.1 43.68,-53.64 68.11,-68.04 26.31,-15.4 54.16,-21.95 81.13,-20.85 26.97,1.16 53.2,10.03 76.46,25.07 23.04,14.98 43.54,36.43 58.96,62.52l152.27 275.63c13.95,28.48 23.4,54.15 29.29,82.94 4.51,21.8 7.06,45.2 8,72.54 19.26,-21.66 38.89,-55.39 54.95,-93.05 21.44,-50.01 36.42,-106.42 36.42,-150.68 0,-149.74 -51.9,-236.37 -118.26,-347.08l-261.83 -467.6 -8.43 -7.28c-11.27,-8.06 -24.94,-12.13 -38.23,-11.77 -13.08,0.44 -26.32,5.45 -37,15.26l-8.51 9.6c-27.39,38.38 -92.74,160.27 -158.74,283.7 -56.99,106.48 -114.78,214.28 -149.74,271.42 -53.72,87.65 -70.88,189.34 -62.88,280.8zm2459.63 -713.66l-2.11 0 -93.34 177.72c-19.26,37.14 -32.79,58.89 -41.94,73.57 -7.78,12.5 -12.35,19.91 -14.47,27.4 -3.05,10.68 -2.61,25.16 -1.59,58.65l0.66 25.51 304.99 0 0 -45.42c0,-48.77 -46.52,-126.54 -88.31,-196.34 -27.7,-46.29 -53.65,-89.54 -63.89,-121.09z"/>
</symbol>

<symbol id="family" xmlns="http://www.w3.org/2000/svg" xml:space="preserve" version="1.1" style="shape-rendering:geometricPrecision; text-rendering:geometricPrecision; image-rendering:optimizeQuality; fill-rule:evenodd; clip-rule:evenodd"
viewBox="0 0 7000 7000">
  <path class="fil0" d="M5367.14 3660.53c0,73.48 10.29,142.04 66.84,142.04 34.03,0 156.11,-38 263.71,-78.34 95.01,-35.63 178.52,-72.46 178.52,-85.26 0,-17.33 -9.49,-50.76 -19.08,-84.55 -6.85,-24.2 -13.78,-48.61 -17.4,-67.71 -24.54,-129.78 -22.43,-277.79 -20.37,-421.53 0.53,-37.41 1.07,-74.55 1.12,-111.78 -9.78,3.85 -23.91,7.73 -38.89,11.05 -19.31,4.3 -40.15,7.75 -54.96,9.16l-11.99 52.5c-26.14,115.84 -36.08,159.87 -113.8,288.16 -21.55,35.57 -72.44,99.13 -124.54,150.21 -37.93,37.21 -76.69,67.96 -105.63,76.87 -0.08,15.39 -0.84,32.96 -1.62,51.48 -0.92,21.76 -1.91,44.86 -1.91,67.7zm-1872.34 1632.51c-54.76,0 -109.5,-7.5 -174.75,-22.47 -0.1,37.86 -1.6,71.22 -6.36,101.37 -4.98,31.47 -13.56,59.34 -27.83,85.03 -26.07,46.9 -69.36,82.08 -91.78,98.19 -4.46,3.21 -8.08,5.66 -10.57,7.29 -1.8,1.17 -3.57,1.77 -5.02,2.04 0.03,0.13 -0.04,0.25 -0.24,0.35l-0.18 0.18 9.09 2.4c4.36,1.14 6.09,1.6 6.89,1.93 6.06,2.63 4.34,4.12 0.97,6.38l0.29 0.18c1.67,-0.19 6.61,-0.21 16.91,4.4l12.27 5.53c10.13,4.59 18.46,8.36 26.24,11.56 11.63,4.79 22.57,9.05 34.46,13.29 11.76,4.19 24.3,8.31 39.25,12.82 56.32,17.04 115.36,25 173.9,24.56 60.01,-0.44 119.57,-9.74 175.17,-27.14l137.73 -55.06c-10.9,-9.28 -21.42,-17.53 -31.47,-25.39 -64.19,-50.31 -109.48,-85.83 -110.2,-269.92 -65.25,14.98 -120,22.48 -174.77,22.48zm-674.32 -981.82c-73.72,0.23 -124.52,0.41 -124.52,107.88 0,9.25 4.8,19.45 11.5,28.66 8.52,11.71 20.03,21.68 28.82,26.21 20.36,10.49 34.34,9.94 56.42,9.07 6.53,-0.25 13.78,-0.55 22.23,-0.6 141.6,-0.8 144.62,58.86 148.39,133.37 1.17,23.28 2.43,48.08 8.29,72.8 19.58,82.6 53.33,153.13 97.02,211.46 66.03,88.18 154.86,148.68 251.94,181.24 97.1,32.56 202.5,37.2 301.7,13.68 68.69,-16.28 134.41,-46.08 192.27,-89.4 181.12,-135.64 200.77,-296.69 212.89,-396.23 4.61,-37.86 8.17,-67.01 19.16,-83.3 22.92,-33.96 75.09,-37.55 126.19,-41.03 61.22,-4.19 120.88,-8.27 120.88,-65.93 0,-107.92 -59.37,-108.77 -136.31,-109.85 -45.97,-0.64 -98.04,-1.39 -148.1,-23.9 -89.5,-40.24 -107.98,-81.97 -123.12,-116.17 -13.43,-30.31 -24.13,-54.45 -84.09,-65.61l-503.86 -97.98c-13.16,-2.62 -27.71,-5.91 -42.59,-9.28 -38.64,-8.72 -79.76,-18.01 -113.86,-19.33 -0.23,72.97 -7.71,133.84 -30.16,183.95 -22.94,51.18 -61.41,91.02 -123.55,120.81 -60.7,29.11 -118.95,29.32 -167.54,29.48zm-35.37 -185.45l85.59 0c74.54,0 86.59,-50.82 86.59,-113.67 0,-15.36 -0.7,-31.27 -1.4,-47.33 -3.28,-75.06 -6.7,-153.66 58.06,-185.12 36.23,-17.62 520.17,84.5 730.14,128.79 39.08,8.24 68.52,14.46 84.82,17.72 12.96,2.59 26.22,4.72 39.71,6.89 56.39,9.06 116.97,18.8 144.57,57.65 22.2,31.24 25.07,56.87 27.33,77.25 4.36,39.08 6.47,57.54 163.98,57.82l0 -208.18c0,-107.55 -51.49,-209.01 -130.48,-283.95 -80.21,-76.1 -188.79,-124.85 -300.59,-124.85l-557.24 0c-111.81,0 -220.38,48.75 -300.6,124.85 -78.99,74.94 -130.48,176.4 -130.48,283.95l0 208.18zm-247.24 388.8c-16.39,-30.79 -27.36,-66.38 -27.36,-106.61 0,-94.76 26.88,-127.78 51.49,-158.01 19.44,-23.88 37.44,-45.99 38.58,-97.48 0.48,-21.58 0.06,-44.52 -0.34,-67.28 -0.27,-15.17 -0.56,-30.33 -0.56,-45.01 -0.05,-82.45 2.75,-148.9 12.96,-208.6 10.25,-59.84 27.99,-112.92 57.8,-168.52 51.67,-96.33 132.61,-186.88 238.54,-250.21 91.95,-54.99 202.73,-89.49 329.5,-89.49 60.48,0 119.69,-1.31 177.77,-2.59 378.44,-8.37 710.89,-15.71 902.92,342.28 30.9,57.6 48.64,112.01 58.62,173.42 9.96,61.25 12.21,129.47 12.14,214.86 -0.02,35.21 -1.03,60.54 -1.78,79.73 -2.28,57.74 -2.32,59.06 34.28,107.81 38.48,51.26 55.88,107.49 55.88,161.85 0,41.16 -9.99,81.3 -28.32,117.39 -18.34,36.08 -45.05,68.18 -78.48,93.28 -45.78,34.37 -104.2,55.7 -171.05,56.43 -1.21,93.9 -49.98,209.25 -115.11,308.01 -70.57,106.99 -160.57,194.74 -230.35,214.96 -0.08,27.68 -1.17,51.89 -2.13,73.09 -4.04,89.65 -5.59,124.24 87.17,156.59 60.43,21.08 112.79,34.92 159.89,47.36 114.08,30.15 197.54,52.22 292.13,149.29 35.09,36.01 66.3,105.65 80.97,175.86 8.7,41.64 11.61,83.64 6.12,119.05 -5.56,35.98 -19.84,65.3 -45.47,80.94 -12.87,7.86 -28.54,12.23 -47.3,12.23 -85.57,0 -88.63,-64.02 -91.96,-133.65 -2.05,-42.82 -4.22,-87.88 -26.61,-120.02 -20.99,-30.13 -58.27,-54.4 -98.12,-72.68 -60.06,-27.55 -125.76,-41.42 -151.08,-41.42 -1.02,0 0.46,0.52 -0.77,1.48 -39.82,31.06 -472.56,368.73 -950.86,67.27 -6.13,-3.87 -21.77,-15.44 -38.83,-28.05 -25.83,-19.09 -55.05,-40.7 -57.14,-40.7 -25.82,0 -91.11,13.64 -150.89,41.05 -39.82,18.26 -77.11,42.62 -98.32,73.05 -22.39,32.14 -24.56,77.2 -26.61,120.02 -3.33,69.63 -6.39,133.65 -91.96,133.65 -18.89,0 -34.67,-4.5 -47.6,-12.58 -25.3,-15.76 -39.6,-45.04 -45.23,-81.02 -5.55,-35.42 -2.69,-77.5 6.27,-119.5 15.07,-70.59 47.53,-141.35 86.53,-180.54 75.46,-75.82 88.49,-80.14 193.51,-114.9l12.83 -4.24c74.59,-24.73 132.15,-41.09 176.73,-53.73 69.15,-19.64 106.98,-30.38 126.95,-49.15 23.69,-22.25 23.16,-57.54 22.01,-135.3 -0.27,-18.86 -0.59,-40.21 -0.62,-63.46 -30.44,-9.08 -68.12,-36.08 -104.69,-68.86 -50.66,-45.42 -99.44,-102.07 -123.87,-137.26 -27.77,-40.03 -61.54,-101.12 -85.61,-167.01 -18.06,-49.46 -30.69,-101.68 -31.28,-149.83 -44.75,-0.34 -80.16,-7.34 -110.39,-20 -31.06,-12.99 -56.61,-31.95 -81.23,-55.79 -21.6,-20.92 -43.33,-46.8 -59.67,-77.46zm-23.97 -2149.15c1.01,-16.01 1.71,-27.26 -35.13,-82.51 -67.05,1.25 -453.21,68.4 -644,101.55 -43.28,7.52 -76.52,13.31 -93.86,16.19 -37.91,6.31 -64.67,9.75 -83.84,12.21 -21.14,2.7 -32.96,4.22 -40.26,7.1 -8.4,3.32 -11.13,9.18 -17.27,22.39 -2.1,4.54 -4.61,9.9 -7.86,16.33 -26.06,51.46 -62.4,90.53 -107.48,117.04 -45.7,26.86 -100.34,40.82 -162.35,41.71l-14.18 0.18c-70.2,0.78 -114.11,1.29 -132.24,60.1 -1.93,6.23 -3.08,12.41 -3.52,18.43 -1.5,20.55 5.37,39.28 17.64,54.39 12.38,15.25 30.26,26.91 50.59,33.17 8.24,2.53 16.94,4.2 25.85,4.85 17.67,1.29 34.45,1.29 50.04,1.29 53.53,-0.02 93.83,-0.02 114.67,50.99 9.94,24.31 13.45,64.42 16.89,103.63 2.64,30.36 5.27,60.22 10.68,81.17 36.9,142.88 114.58,264.95 227.08,349.66 105.81,79.68 242.53,126.37 405.22,126.37 135.74,0 260.3,-51.7 359.81,-131.23 109.39,-87.43 188.54,-208.48 218.99,-331.41 2.02,-8.15 5.32,-25.56 8.48,-43.55 3.57,-20.4 6.96,-41.53 8.06,-50.83 1.39,-11.74 1.59,-24.12 1.77,-36.52 0.3,-19.56 0.6,-39.26 5.52,-57.13 17.38,-63.25 77.57,-63.22 136.71,-63.16 63.8,0.05 126.39,0.11 126.39,-85.02 0,-83.31 -57.77,-84.21 -136.89,-85.42l-4.58 -0.07c-66.05,-1.05 -126.36,-15.66 -175.8,-45.31 -46.31,-27.76 -83.09,-68.7 -106.12,-123.97 -21.01,-50.42 -19.9,-68.31 -19.01,-82.62zm-1875.7 2410.31l0.03 -385.95c5.89,-64.29 18.12,-124.77 41.75,-179.42 23.7,-54.79 58.84,-103.7 110.48,-144.65 95.46,-75.69 151.83,-90.4 249.2,-115.8 22.14,-5.77 46.45,-12.12 73.93,-19.9 108.65,-30.74 194.39,-52.43 261.98,-69.52 117.18,-29.62 179.7,-45.44 212.14,-70.64 36.31,-28.22 35.18,-69.78 32.78,-158.78 -0.71,-25.85 -1.51,-55.63 -1.56,-89.73 -29.17,-8.98 -67.97,-39.77 -106.14,-77.16 -53.97,-52.87 -107.08,-119.2 -129.77,-155.23 -68.62,-108.96 -86.1,-186.04 -110.63,-294.24l-9.4 -41.09c-70.7,-6.44 -141.11,-35.41 -191.99,-82.04 -46.06,-42.23 -76.17,-98.91 -76.17,-166.48l0 -345.48c0,-148.33 44.12,-298.92 115.34,-434.41 76.98,-146.47 185.72,-275.35 304.64,-364.66 55.04,-41.34 83.84,-56.67 99.13,-64.81 7.76,-4.14 11.85,-6.32 13.8,-8.88 2.01,-2.64 2.37,-6.9 3.1,-15.82 1.08,-13.31 2.96,-36.24 12.73,-79.23 30.4,-133.86 108.06,-237.98 208.48,-307.34 63.73,-44.02 136.65,-74.05 212.46,-88.77 75.79,-14.71 154.55,-14.15 229.94,2.97 117.74,26.76 227.36,93.9 304.99,206.3 24.98,36.18 44.16,67.69 59.09,102.13 14.94,34.45 25.6,71.68 33.56,119.29l2.74 16.74c3.89,24.01 5.62,34.65 10.08,41.13 3.44,4.99 9.08,8.19 19.14,13.91 7.43,4.21 17.2,9.76 30.09,18.27 152.75,100.81 275.35,236.34 359.4,395.14 82.79,156.42 128.2,335.44 128.2,526.05 0,18.37 0.35,37.16 0.69,56.64 3.45,190.8 8.1,450.94 -279.33,459.44 -0.51,40.24 -9.91,84.9 -23.17,128.1 -19.08,62.16 -46.19,121.39 -66.2,160.04 -76.32,147.37 -204.63,269.23 -360.62,343.7 -147.62,70.47 -320.11,98.54 -496.84,65.7 -19.73,-3.65 -37.14,-8.6 -54.03,-13.39 -22.44,-6.35 -44.06,-12.5 -69.01,-14.98 0.02,120.44 -0.21,289.98 -178.32,333.22l-0.01 15.08c-0.15,171.54 -0.26,285.24 140.49,371.87 23.27,14.34 41.47,22.08 62.76,26.15 21.47,4.11 46.29,4.56 82.69,4.32 17.16,-0.1 41.54,-0.66 69.59,-1.31 96.49,-2.18 236.79,-5.38 284.24,4.93 39.81,8.67 63.69,30.69 73.97,56.53 5.34,13.41 7.01,27.87 5.32,41.97 -1.67,14.06 -6.7,27.87 -14.72,40.03 -16.4,24.9 -45.31,43.02 -83.78,43.02 -43.85,0 -86.01,0.99 -126.9,1.95 -228.73,5.37 -418.94,9.83 -563.67,-162.38 -46.46,-55.26 -72.54,-103.67 -87.01,-162.86 -14.22,-58.22 -17.19,-126.7 -17.26,-222.46 -48,4.86 -121.21,27.31 -174.91,43.76l-33.57 10.18c-30.82,9.06 -61.74,16.87 -92.02,24.52 -174.01,43.92 -327.62,82.71 -327.62,329.99 0,55.46 -0.85,104.02 -1.58,145.92 -2.26,129.47 -3.4,194.43 25.16,225.57 28.61,31.21 88.82,30.05 209.53,27.72 36.89,-0.7 79.36,-1.53 127.54,-1.57l0 -174.75c0,-41.6 22.78,-68.39 51.87,-80.14 11.2,-4.52 23.38,-6.8 35.52,-6.82 12.14,-0.01 24.3,2.26 35.49,6.76 28.88,11.68 51.42,38.36 51.42,80.2l0 1181.34c0,33.79 -22.76,55.38 -51.88,64.78 -11.14,3.59 -23.23,5.4 -35.27,5.4 -12.04,0 -24.13,-1.81 -35.28,-5.4 -29.11,-9.4 -51.87,-30.99 -51.87,-64.78l0 -821.15 -271.48 0 0 642.83c0,27.18 -20.58,49.93 -47.64,62.05 -11.63,5.21 -24.52,8.5 -37.44,9.29 -12.97,0.82 -26.08,-0.85 -38.14,-5.49 -26.04,-10.02 -47.07,-33.8 -51.42,-76.27 -4.16,-40.44 -2.15,-177.02 -0.07,-318.37 2.46,-167.83 5.03,-342.44 -2.39,-369.46 -3.7,-13.51 -15.93,-29.78 -28.84,-47 -9.81,-13.05 -20.04,-26.67 -27.54,-40.42 -8.5,-15.56 -15.99,-31.11 -21.35,-48.19 -5.39,-17.17 -8.64,-35.9 -8.64,-57.71zm779.83 -2957.89c-155.67,160.43 -247.55,380.4 -248.87,634.26 37.04,-16.06 80.61,-17.26 122.05,-18.39 55.64,-1.53 107.42,-2.95 131.96,-40.63 12.51,-19.18 14.95,-36.71 17.27,-53.36 2.87,-20.69 5.59,-40.17 25.87,-60.56 22.31,-22.43 63.47,-28.35 101.66,-33.84l20.44 -3.04c114.77,-18.51 230.48,-37.97 346.18,-57.43l188.84 -31.63c30.29,-5.03 61.64,-11.17 92.93,-17.3 196.01,-38.42 390.47,-76.53 463.51,135.84 6.4,18.61 9.48,39.05 12.43,58.72 3.82,25.43 7.47,49.65 17.75,66.03 21.78,34.74 69.99,35.88 123.07,37.09 41.13,0.94 85.16,1.96 123.16,18.5 -0.67,-145.74 -27.65,-269.84 -72.89,-375.92 -45.79,-107.41 -110.31,-196.43 -185.12,-270.81 -38.78,-38.55 -79.75,-74.48 -124.07,-106.16 -44.29,-31.66 -91.95,-59.1 -144.08,-80.69 -53.6,-22.2 -124.69,-46.6 -199.15,-62.42 -57.24,-12.15 -116.48,-19.22 -171.2,-16.29 -260.88,13.98 -484.07,115.53 -641.74,278.03zm438.58 -566.63c-57.42,40.01 -102.26,94.17 -118,154.84 42.63,-3.89 68.53,-10.71 95.55,-17.84 47.19,-12.44 97.89,-25.81 245.33,-26.39 57.88,-0.23 122.85,5.3 182.23,15.55 52.28,9.03 100.34,21.75 135.61,37.46 -16.18,-59.11 -61.98,-117.79 -122.01,-161.65 -59.95,-43.8 -134.03,-72.78 -206.95,-72.69 -71.23,0.09 -148.97,26.95 -211.76,70.72zm4494.8 3123.31l-0.03 378.05c-2.6,27.97 -6.42,53.95 -11.88,76.84 -5.54,23.15 -12.78,43.33 -22.13,59.43 -5.78,9.95 -13.98,20.77 -22.28,31.72 -12.99,17.11 -26.24,34.58 -30.06,48.49 -6.41,23.37 -4.45,211.36 -2.62,386.58 1.54,148.91 3,288.67 -0.96,311.53 -6.38,36.84 -27.03,57.71 -51.99,66.53 -12.69,4.48 -26.53,5.81 -40.13,4.51 -13.52,-1.28 -26.88,-5.19 -38.68,-11.17 -24.6,-12.44 -42.7,-33.9 -42.7,-59.73l0 -642.83 -271.49 0 0 821.15c0,33.79 -22.76,55.38 -51.88,64.78 -11.14,3.59 -23.23,5.4 -35.27,5.4 -12.04,0 -24.13,-1.81 -35.26,-5.4 -29.12,-9.4 -51.88,-30.99 -51.88,-64.78l0 -1181.34c0,-41.83 22.54,-68.52 51.4,-80.2 11.2,-4.51 23.36,-6.77 35.51,-6.76 12.14,0.01 24.32,2.3 35.52,6.82 29.08,11.75 51.86,38.54 51.86,80.14l0 174.75c38.54,0.08 75.51,1.41 109.95,2.64 30.63,1.09 59.32,2.12 85.78,2.12 100.93,0 164.93,-15.28 164.93,-101.5 0,-35.44 0.99,-71.78 1.97,-107.92 5.11,-188.22 10.07,-371.28 -127.19,-453.06 -26.46,-15.76 -83.85,-37.5 -142.66,-56.04 -57.86,-18.24 -117.01,-33.38 -149.33,-36.68 -7.15,28.2 -24.1,64.54 -44.23,100.85 -27.19,49.01 -60.31,98.09 -82.98,126.88 -88.91,112.89 -192.13,200.77 -313.24,260.43 -121.1,59.65 -260.06,91.09 -420.42,91.09 -131.58,0 -201.19,-29.11 -230.2,-64.8 -10.8,-13.3 -16.07,-27.55 -16.84,-41.59 -0.78,-14.03 2.94,-27.85 10.08,-40.28 16.57,-28.89 51.72,-50.59 91.74,-50.95 24.14,-0.22 39.06,2.89 53.98,5.99 8.24,1.72 16.5,3.45 26.39,4.58 129.65,14.88 251.55,-4.75 360.69,-50.84 116.44,-49.17 218.43,-128.49 299.89,-228.17 30.19,-36.95 48.68,-75.12 68.09,-115.19 7.09,-14.65 14.31,-29.57 22.27,-44.79 -32.04,-14.79 -67.8,-23.34 -105.4,-32.31 -59.46,-14.19 -123.56,-29.5 -186.61,-72.7 -98.82,-67.74 -97.78,-177.33 -96.9,-271.95l0.15 -21.96c-25.8,2.61 -52.36,9.9 -77.75,16.86 -19.17,5.25 -37.72,10.34 -54.86,13.16 -169.31,27.84 -315.95,8.47 -444.09,-45.98 -128.09,-54.43 -237.71,-143.95 -333.02,-256.41 -38.74,-45.71 -80.99,-120.87 -112.34,-199.17 -27.77,-69.37 -47.03,-141.32 -47.79,-197.6 -16.62,-0.62 -33.87,-3.07 -49.94,-6.63 -16.13,-3.58 -31.15,-8.34 -43.23,-13.57 0.1,9.07 0.45,18.5 0.79,28.11 1.33,36.94 2.77,76.9 -8.19,105.39 -11.96,31.1 -32.88,49.91 -56.26,58.03 -14.73,5.11 -30.42,5.97 -45.44,2.98 -15,-2.98 -29.42,-9.82 -41.58,-20.08 -20.59,-17.38 -34.8,-44.61 -34.8,-79.67l0 -568.38c0,-85.65 7.8,-167.84 22.02,-244.21 14.83,-79.67 36.7,-153.06 64.02,-217.5 80.88,-190.76 219.44,-357.02 390.12,-474.45 165.49,-113.86 361.21,-181.87 563.87,-181.87 146.17,0 273.7,18.55 389.2,56.96 115.53,38.42 218.97,96.7 316.9,176.13 434.83,352.63 417.01,792.06 399.21,1231.35 -8.92,220.16 -17.84,440.31 30.44,649.14 6.22,26.93 12.48,47.08 18.04,65.04 11.34,36.64 19.96,64.41 19.96,120.74 0,51.37 -35.86,95.28 -83.25,130.38 -77.27,57.24 -185.76,91.31 -217.66,95.7l0 15.86c43.27,4.19 100.26,21.06 150.18,35.83 22.5,6.66 43.6,12.91 61.22,17.33 103.92,26.11 206.45,78.91 278.63,158.4 61.22,67.42 100.64,154.04 100.64,259.77zm-1740.02 -954.25c95.85,52.52 211.53,81.39 343.37,81.39 133.7,0 260.99,-53.13 363.16,-138.68 105.55,-88.37 184.32,-211.35 215.69,-346.12 3.35,-14.36 5.87,-39.67 8.61,-67.2 4.5,-45.32 9.62,-96.62 20.18,-116.91 21.74,-41.78 60.84,-41.93 109.4,-42.09 19.29,-0.06 40.17,-0.15 61.92,-2.93 6.69,-0.85 13.2,-2.36 19.41,-4.4 20.3,-6.69 37.19,-19.32 48.33,-35.14 11.07,-15.75 16.51,-34.72 14.02,-54.22 -0.6,-4.68 -1.68,-9.46 -3.26,-14.24 -20.48,-62.17 -63.71,-62.07 -121.22,-61.93 -69.79,0.18 -159.99,0.4 -257.18,-104.45 -30.85,-33.29 -37.38,-54.13 -41.78,-68.18 -5.62,-17.94 -7.41,-23.59 -66.13,-32.49l-631.21 -104.4c-16.27,-2.71 -31.83,-5.66 -47.17,-8.55 -44.92,-8.5 -87.99,-16.63 -136.67,-16.84 -38.82,58.2 -37.53,68.97 -35.73,83.78 1.72,14.18 3.86,31.81 -21.89,89.17 -65.53,145.97 -185.37,153.31 -281.08,159.16 -77.61,4.74 -138.85,8.5 -138.85,87.81 0,84.7 62.54,84.86 126.31,85.02 61.97,0.15 125.11,0.31 138.87,72.59 5.83,30.59 7.69,57.91 9.48,84.55 2.27,33.64 4.48,66.27 14.59,102.76 5.73,20.71 13.93,42.94 23.23,64.92 11.19,26.42 24.02,52.53 36.17,75.27 52.75,98.82 130.6,178.19 229.43,232.35zm-322.19 -1613.36c-156.53,161.83 -254.48,386.71 -255.86,645.18 38.89,-16.98 83.02,-17.81 124.03,-18.57 55.6,-1.03 105.39,-1.98 126.01,-43.83 7.06,-14.33 10.43,-35.65 14.04,-58.48 3.59,-22.69 7.43,-46.88 15.35,-67.71 77.06,-202.52 263.43,-166.17 464.22,-127.03 32.74,6.38 65.91,12.85 98.77,18.32l176.33 29.52c118.91,19.97 238.96,40.14 358.74,59.48 128.39,20.73 129.98,43.64 132.52,80.92 1.36,19.79 3.03,43.96 27.56,74.55 25.19,31.41 74.09,32.81 126.62,34.27 41.69,1.17 85.64,2.4 122.92,18.57 -1.43,-253.39 -100.65,-481.02 -261.78,-645.54 -162.01,-165.43 -386.64,-267.12 -637.34,-267.12 -245.41,0 -470.16,100.02 -632.13,267.47z"/>
</symbol>


<symbol id="hands" xmlns="http://www.w3.org/2000/svg" xml:space="preserve" version="1.1" style="shape-rendering:geometricPrecision; text-rendering:geometricPrecision; image-rendering:optimizeQuality; fill-rule:evenodd; clip-rule:evenodd"
viewBox="0 0 7000 7000">
  <path id="Shape" class="fil1" d="M1260.36 1339.48c19.91,-2.02 39.87,-2.01 59.59,-0.04l13.12 0 -6.05 0.79c7.74,0.96 15.43,2.22 23.06,3.78 27.52,5.65 54.21,15.17 79.25,28.4 13.13,-39.82 34.52,-75.89 62.23,-106.12 28.98,-31.61 64.93,-56.85 105.63,-73.37 40.71,-16.5 84.07,-23.44 126.88,-20.95 41,2.37 81.51,13.38 118.69,32.84 22,-64.02 64.41,-116.5 118.13,-151.55 55.21,-36.02 122.44,-53.62 191.87,-46.49 45.24,5.13 87.98,20.63 125.27,44.56 35.91,23.02 66.8,53.9 90.02,90.9 34.14,-24.35 72.73,-40.73 112.95,-48.57 41.84,-8.17 85.52,-7.11 127.88,3.78 42.37,10.9 81.14,31.05 113.85,58.39 31.95,26.72 58.2,60.35 76.39,98.94l816.11 0c7.09,-0.03 14.2,-1.07 21.04,-3.02 6.82,-1.93 13.4,-4.8 19.52,-8.52l336.29 -201.2c19.65,-11.9 40.78,-21.03 62.75,-27.22 21.92,-6.17 44.72,-9.42 67.75,-9.55l1231.73 -0.02c77.26,-1 148.8,26.98 203.51,74.38 54.74,47.41 92.66,114.25 102.65,190.89l0.01 0.14c3.05,30.13 1.45,60.42 -4.54,89.77 -5.64,27.53 -15.17,54.25 -28.39,79.29 39.84,13.12 75.92,34.49 106.15,62.22 31.6,28.97 56.87,64.93 73.37,105.64 16.5,40.71 23.42,84.09 20.92,126.9 -2.4,41.01 -13.42,81.5 -32.9,118.68 64.09,21.93 116.66,64.33 151.73,118.12 36.03,55.25 53.63,122.56 46.36,192.06 -5.11,45.25 -20.6,88 -44.53,125.3 -23.03,35.92 -53.93,66.81 -90.97,90.02 19.94,28.5 34.58,60.06 43.52,93.14 9.35,34.67 12.45,71.06 8.81,107.4 -6.03,50.59 -24.9,97.8 -53.76,137.77 -28.27,39.17 -66.19,71.41 -111.06,93.03l0 815.84c0.04,7.08 1.09,14.14 3.03,20.9 1.96,6.75 4.84,13.29 8.59,19.38l202.96 338.08c11.28,19.67 19.93,40.59 25.78,62.26 5.86,21.61 8.96,44.02 9.15,66.63l0.02 1231.79c0.94,77.24 -27.09,148.77 -74.48,203.45 -47.42,54.71 -114.25,92.61 -190.88,102.63l-0.14 0.02c-30.11,2.97 -60.36,1.35 -89.7,-4.67 -27.5,-5.63 -54.21,-15.12 -79.26,-28.29 -13.14,39.86 -34.52,75.96 -62.25,106.18 -28.99,31.6 -64.94,56.86 -105.67,73.36 -40.72,16.51 -84.1,23.42 -126.91,20.93 -41,-2.4 -81.52,-13.43 -118.68,-32.9 -20.06,58.78 -57.52,108.14 -105.45,143.07 -49.39,35.98 -109.96,56.64 -174.14,56.54 -50.96,0.01 -100.07,-13.42 -142.89,-37.77 -41.4,-23.56 -77.02,-57.34 -102.85,-99.11 -34.16,24.34 -72.77,40.72 -113,48.57 -41.89,8.15 -85.6,7.08 -127.97,-3.82 -42.4,-10.9 -81.21,-31.06 -113.94,-58.41 -31.98,-26.72 -58.25,-60.36 -76.45,-98.97l-815.71 0c-7.12,0.03 -14.21,1.06 -21.04,2.99 -6.82,1.95 -13.4,4.82 -19.51,8.53l-336.31 201.39c-19.69,11.85 -40.82,20.94 -62.76,27.08 -21.94,6.13 -44.74,9.34 -67.72,9.44l-1231.74 0.01c-77.26,1 -148.8,-26.98 -203.51,-74.37 -54.73,-47.41 -92.64,-114.26 -102.64,-190.91l-0.02 -0.14c-3.04,-30.11 -1.46,-60.37 4.55,-89.7 5.64,-27.51 15.17,-54.23 28.38,-79.27 -39.82,-13.1 -75.89,-34.49 -106.13,-62.21 -31.63,-28.98 -56.89,-64.94 -73.39,-105.65 -16.5,-40.71 -23.42,-84.09 -20.91,-126.9 2.39,-41.01 13.41,-81.5 32.89,-118.68 -64.06,-21.93 -116.6,-64.3 -151.68,-118.05 -36.03,-55.22 -53.63,-122.49 -46.41,-191.96 5.11,-45.25 20.6,-88 44.53,-125.3 23.03,-35.9 53.93,-66.81 90.97,-90.02 -19.94,-28.5 -34.58,-60.06 -43.51,-93.14 -9.36,-34.67 -12.46,-71.06 -8.82,-107.4 6.09,-50.54 24.96,-97.68 53.81,-137.58 28.27,-39.11 66.17,-71.3 111.01,-92.89l0 -816.33c-0.07,-7.09 -1.12,-14.19 -3.06,-21 -1.93,-6.79 -4.79,-13.36 -8.49,-19.49l-201.45 -336.22c-11.84,-19.68 -20.93,-40.85 -27.07,-62.82 -6.13,-21.94 -9.34,-44.75 -9.44,-67.75l-0.01 -1231.76c-0.95,-77.26 27.08,-148.77 74.48,-203.46 37.85,-43.68 88.1,-76.65 145.83,-93.27l-47.16 0 92.34 -9.37zm4557.97 806.32c1.84,-16.93 0.03,-33.89 -5.06,-49.75 -5.1,-15.88 -13.55,-30.73 -24.93,-43.42 -11.37,-12.69 -25.21,-22.67 -40.46,-29.47 -15.24,-6.79 -31.94,-10.41 -48.98,-10.41l-540.63 0.02c-24.24,0 -46.22,-9.84 -62.13,-25.74 -15.91,-15.92 -25.75,-37.9 -25.75,-62.15 0,-24.26 9.84,-46.23 25.74,-62.13 15.88,-15.91 37.89,-25.76 62.14,-25.76l374.29 0c17.05,0.05 33.76,-3.54 49,-10.3 15.24,-6.78 29.1,-16.74 40.51,-29.41 11.41,-12.67 19.87,-27.49 25.01,-43.34 5.13,-15.86 6.96,-32.83 5.15,-49.78 -5.16,-31.87 -21.85,-59.33 -45.26,-78.49 -23.48,-19.21 -53.78,-30.1 -86.12,-28.81l-528.93 0.01c-24.25,0.02 -46.22,-9.82 -62.13,-25.72 -15.91,-15.92 -25.75,-37.91 -25.75,-62.15 0,-24.25 9.84,-46.23 25.73,-62.13 15.93,-15.92 37.9,-25.76 62.15,-25.76l374.29 0c17.07,0.06 33.77,-3.54 49.01,-10.3 15.2,-6.75 29.07,-16.72 40.49,-29.4 11.42,-12.68 19.88,-27.49 25.01,-43.36 5.14,-15.86 6.98,-32.82 5.16,-49.78 -5.15,-31.85 -21.8,-59.33 -45.24,-78.5 -23.48,-19.21 -53.79,-30.1 -86.14,-28.79l-1231.92 0.02c-7.1,0.04 -14.19,1.08 -21.01,3.04 -6.8,1.95 -13.37,4.84 -19.46,8.58l-336.38 201.47c-19.7,11.81 -40.86,20.88 -62.81,27.01 -21.92,6.11 -44.7,9.32 -67.68,9.41l-781.13 0.02 0 724.71 136.49 -111.73c54.96,-41.95 121.13,-60.81 186.03,-57.25 64.9,3.57 128.6,29.57 178.63,77.29 37.23,36.1 62.29,81.32 73.81,129.73 11.02,46.35 9.62,95.69 -5.42,142.77l272.38 0c33.35,0.16 66.03,6.86 96.23,19.36 30.26,12.53 58.09,30.91 81.74,54.38 273,270.77 545.91,541.63 819.02,812.29 19.36,18.92 44.55,28.28 69.65,28.11 25.09,-0.18 50.15,-9.89 69.25,-29.09 17.43,-17.5 27.02,-40.12 28.43,-63.22 1.4,-23.11 -5.34,-46.74 -20.49,-66.22l-228.66 -279.39c-10.73,-13.14 -17.22,-28.8 -19.2,-44.98 -1.96,-16.2 0.57,-32.94 7.84,-48.28 7.26,-15.33 18.63,-27.91 32.42,-36.63 13.76,-8.71 29.99,-13.6 46.96,-13.6l944.79 0c32.28,1.26 62.54,-9.67 85.97,-28.86 23.38,-19.14 40.02,-46.56 45.17,-78.36 1.83,-16.94 0.01,-33.89 -5.11,-49.75 -5.11,-15.85 -13.55,-30.67 -24.93,-43.34 -11.4,-12.69 -25.23,-22.66 -40.45,-29.45 -15.22,-6.78 -31.89,-10.4 -48.93,-10.4l-457.46 0.02c-24.24,0 -46.22,-9.84 -62.13,-25.73 -15.9,-15.89 -25.75,-37.89 -25.75,-62.15 0,-24.27 9.84,-46.23 25.74,-62.14 15.88,-15.9 37.89,-25.75 62.14,-25.75l528.91 0.02c32.25,1.25 62.47,-9.64 85.9,-28.8 23.39,-19.12 40.05,-46.51 45.25,-78.29zm-3316.92 1578.47l757.99 751.69c7.22,7.2 15.71,12.85 24.9,16.66 9.21,3.84 19.2,5.91 29.34,5.94l400.28 -0.02 751.59 -757.67c7.23,-7.21 12.88,-15.71 16.72,-24.93 3.85,-9.22 5.92,-19.23 5.96,-29.39l-0.02 -400.63 -757.73 -751.43c-7.23,-7.24 -15.73,-12.9 -24.97,-16.74 -9.24,-3.85 -19.27,-5.92 -29.44,-5.94l-400.59 -0.01 -751.62 757.69c-7.17,7.24 -12.77,15.77 -16.56,24.98 -3.81,9.25 -5.85,19.26 -5.87,29.43l0.02 400.37zm1937.73 2021.36c16.83,1.81 33.68,-0.02 49.45,-5.15 15.74,-5.12 30.44,-13.56 42.96,-24.92 12.62,-11.45 22.55,-25.29 29.32,-40.5 6.77,-15.21 10.44,-31.86 10.49,-48.85l-0.02 -457.47c0,-24.25 9.84,-46.24 25.74,-62.14 15.92,-15.91 37.9,-25.75 62.14,-25.75 24.27,0 46.24,9.84 62.14,25.73 15.91,15.92 25.75,37.91 25.75,62.16 0,149.89 18.21,383.2 -0.02,529.06 -1.09,32.41 9.99,62.71 29.35,86.15 19.31,23.38 46.9,39.96 78.83,45.03 16.78,1.82 33.6,0 49.32,-5.14 15.71,-5.12 30.35,-13.57 42.84,-24.95 12.64,-11.44 22.59,-25.3 29.37,-40.56 6.78,-15.24 10.41,-31.91 10.44,-48.95l-0.02 -540.64c0,-24.27 9.84,-46.24 25.73,-62.14 15.89,-15.9 37.89,-25.75 62.15,-25.75 24.26,0 46.26,9.85 62.15,25.73 15.89,15.92 25.73,37.89 25.73,62.16l0 375.28c0.08,16.93 3.8,33.5 10.63,48.63 6.83,15.14 16.82,28.88 29.46,40.17 12.64,11.28 27.41,19.65 43.22,24.72 15.78,5.07 32.67,6.89 49.54,5.08 31.84,-5.14 59.29,-21.8 78.45,-45.21 19.21,-23.47 30.12,-53.77 28.83,-86.09 -14.22,-142.2 -0.02,-390.29 -0.02,-528.94 0,-24.25 9.84,-46.22 25.73,-62.13 15.92,-15.91 37.9,-25.75 62.15,-25.75 24.26,0 46.23,9.84 62.13,25.73 15.91,15.89 25.76,37.89 25.76,62.15l0 375.04c0.04,16.96 3.73,33.54 10.53,48.69 6.83,15.16 16.8,28.93 29.43,40.24 12.63,11.31 27.41,19.7 43.23,24.79 15.8,5.09 32.68,6.92 49.56,5.12 31.85,-5.14 59.31,-21.77 78.49,-45.16 19.21,-23.47 30.15,-53.75 28.88,-86.07l-0.01 -1231.92c-0.04,-7.06 -1.02,-14.1 -2.83,-20.9 -1.8,-6.76 -4.48,-13.35 -7.97,-19.55l-202.29 -336.42c-11.78,-19.69 -20.83,-40.82 -26.96,-62.77 -6.12,-21.89 -9.34,-44.66 -9.46,-67.63l-0.02 -781.32 -724.62 0 111.74 136.46c38.68,47.08 59.43,104.17 61.8,161.99 2.37,57.81 -13.62,116.4 -48.33,166.49 -34.73,50.11 -83.99,85.66 -138.96,103.74 -52.99,17.42 -111.33,18.63 -167.14,1.02l0 272.32c-0.15,33.36 -6.85,66.02 -19.36,96.23 -12.52,30.26 -30.9,58.08 -54.38,81.75l-812.35 818.79c-13.89,14.14 -22.88,31.8 -26.44,50.44 -3.57,18.68 -1.76,38.41 5.93,56.69 7.68,18.29 20.52,33.39 36.35,43.89 15.85,10.5 34.77,16.42 54.6,16.39 10.79,0.04 21.45,-1.74 31.49,-5.2 10.02,-3.46 19.48,-8.61 27.92,-15.29l279.38 -228.65c13.11,-10.93 28.85,-17.6 45.14,-19.68 16.3,-2.07 33.22,0.39 48.68,7.7 15.47,7.31 28.12,18.79 36.86,32.69 8.75,13.91 13.59,30.3 13.47,47.39l0 944.77c-1.11,32.39 9.95,62.67 29.25,86.1 19.27,23.37 46.79,39.95 78.67,45.08zm-3267.89 -880.98c-1.84,16.94 -0.03,33.89 5.06,49.74 5.11,15.88 13.55,30.73 24.93,43.42 11.37,12.69 25.22,22.68 40.47,29.47 15.23,6.79 31.92,10.41 48.97,10.41l540.63 -0.02c24.25,0 46.22,9.84 62.13,25.74 15.91,15.92 25.75,37.91 25.75,62.15 0,24.25 -9.84,46.23 -25.73,62.13 -15.89,15.91 -37.89,25.76 -62.15,25.76l-374.29 0c-17.05,-0.05 -33.76,3.54 -49,10.3 -15.24,6.78 -29.1,16.74 -40.51,29.4 -11.41,12.68 -19.87,27.5 -25,43.35 -5.14,15.86 -6.97,32.83 -5.16,49.79 5.16,31.85 21.84,59.31 45.26,78.47 23.48,19.21 53.78,30.11 86.12,28.82l528.93 -0.02c24.25,0 46.23,9.84 62.13,25.73 15.9,15.89 25.75,37.89 25.75,62.15 0,24.26 -9.85,46.26 -25.73,62.15 -15.92,15.89 -37.9,25.73 -62.15,25.73l-374.28 0c-17.07,-0.04 -33.77,3.54 -49.01,10.3 -15.24,6.78 -29.1,16.75 -40.5,29.41 -11.42,12.68 -19.88,27.49 -25.01,43.35 -5.14,15.87 -6.98,32.83 -5.16,49.79 5.15,31.85 21.81,59.33 45.24,78.5 23.49,19.21 53.8,30.09 86.14,28.79l1231.92 -0.02c7.09,-0.03 14.18,-1.08 20.99,-3.04 6.78,-1.94 13.36,-4.84 19.46,-8.58l336.4 -201.47c19.71,-11.8 40.86,-20.88 62.82,-27.01 21.92,-6.11 44.7,-9.32 67.67,-9.41l781.13 -0.02 0 -724.87 -136.49 111.73c-54.9,42.11 -121.11,61.04 -186.04,57.48 -64.93,-3.56 -128.66,-29.65 -178.64,-77.54 -37.2,-36.02 -62.29,-81.2 -73.84,-129.6 -11.07,-46.34 -9.74,-95.66 5.23,-142.74l-272.14 0.01c-33.35,-0.15 -66.01,-6.85 -96.23,-19.35 -30.24,-12.53 -58.07,-30.9 -81.74,-54.38 -272.98,-270.72 -545.06,-542.64 -819.24,-812.11 -19.37,-18.92 -44.58,-28.29 -69.68,-28.12 -25.08,0.17 -50.16,9.89 -69.26,29.08 -17.41,17.5 -27,40.13 -28.41,63.22 -1.41,23.11 5.34,46.75 20.49,66.23l228.65 279.39c10.67,13.13 17.12,28.76 19.07,44.89 1.95,16.13 -0.57,32.83 -7.79,48.12 -7.23,15.29 -18.55,27.85 -32.25,36.56 -13.71,8.73 -29.89,13.68 -46.78,13.75l-944.81 0.01c-32.28,-1.26 -62.54,9.65 -85.97,28.84 -23.37,19.15 -40.02,46.57 -45.17,78.37 -1.83,16.94 -0.01,33.88 5.11,49.75 5.1,15.85 13.55,30.67 24.93,43.34 11.4,12.7 25.24,22.68 40.45,29.45 15.22,6.78 31.9,10.39 48.93,10.39l457.46 -0.01c24.25,0 46.22,9.84 62.13,25.73 15.91,15.92 25.75,37.91 25.75,62.16 0,24.24 -9.84,46.22 -25.73,62.12 -15.89,15.91 -37.89,25.76 -62.15,25.76l-529.15 -0.02c-32.21,-1.19 -62.37,9.72 -85.75,28.88 -23.36,19.11 -39.97,46.48 -45.16,78.22zm-0.63 -1987.32c0.04,7.1 1.09,14.18 3.03,20.99 1.93,6.81 4.8,13.37 8.51,19.48l201.55 336.4c11.79,19.68 20.86,40.81 26.99,62.75 6.12,21.9 9.32,44.68 9.43,67.65l0.02 781.32 724.85 0 -111.73 -136.46c-43.58,-54.51 -63.21,-121.04 -59.6,-186.24 3.62,-65.2 30.48,-129.17 79.81,-178.47 37.01,-35.5 82.22,-59.41 130.35,-70.5 46.13,-10.62 94.96,-9.5 141.82,4.41l0 -274.76c0.15,-33.36 6.86,-66.03 19.36,-96.23 12.52,-30.26 30.9,-58.08 54.38,-81.76 270.63,-273.07 540.99,-546.44 811.94,-819.19 9.32,-9.2 16.57,-20.07 21.47,-31.89 4.9,-11.83 7.45,-24.67 7.36,-37.72 -0.08,-13.03 -2.83,-25.81 -7.89,-37.59 -5.04,-11.75 -12.45,-22.53 -21.84,-31.57 -17.75,-16.93 -40.35,-26.26 -63.39,-27.66 -23,-1.41 -46.48,5.04 -66.13,19.58l-279.38 228.66c-13.14,10.63 -28.75,17.03 -44.86,18.95 -16.1,1.92 -32.78,-0.6 -48.03,-7.82 -15.25,-7.21 -27.78,-18.5 -36.5,-32.19 -8.72,-13.69 -13.67,-29.82 -13.77,-46.69l0 -944.82c1.24,-32.28 -9.69,-62.54 -28.9,-85.98 -19.15,-23.39 -46.58,-40.01 -78.39,-45.17 -16.94,-1.81 -33.88,0.02 -49.74,5.15 -15.82,5.1 -30.64,13.55 -43.3,24.93 -12.67,11.39 -22.66,25.24 -29.43,40.43 -6.77,15.23 -10.39,31.89 -10.39,48.92l0.02 457.47c0,24.25 -9.84,46.22 -25.74,62.13 -15.88,15.9 -37.89,25.75 -62.14,25.75 -24.26,0 -46.26,-9.85 -62.15,-25.73 -15.89,-15.93 -25.73,-37.9 -25.73,-62.15l0.02 -528.92c1.25,-32.32 -9.66,-62.58 -28.86,-86 -19.18,-23.38 -46.62,-40.02 -78.43,-45.16 -16.94,-1.82 -33.88,0.02 -49.72,5.14 -15.85,5.13 -30.65,13.56 -43.32,24.95 -12.68,11.39 -22.65,25.23 -29.42,40.43 -6.77,15.19 -10.38,31.85 -10.38,48.91l0 540.65c0,24.25 -9.84,46.22 -25.73,62.13 -15.93,15.91 -37.9,25.75 -62.15,25.75 -24.25,0 -46.23,-9.84 -62.14,-25.73 -15.91,-15.93 -25.75,-37.9 -25.75,-62.15l0 -374.3c0.04,-17.04 -3.55,-33.72 -10.31,-48.96 -6.78,-15.23 -16.74,-29.08 -29.42,-40.49 -12.68,-11.4 -27.48,-19.87 -43.34,-24.99 -15.86,-5.12 -32.81,-6.97 -49.77,-5.15 -31.84,5.14 -59.3,21.81 -78.46,45.22 -19.21,23.47 -30.11,53.75 -28.82,86.08l0.02 528.94c0,24.24 -9.84,46.22 -25.73,62.13 -15.92,15.91 -37.91,25.75 -62.16,25.75 -24.24,0 -46.22,-9.84 -62.12,-25.74 -15.91,-15.88 -25.76,-37.89 -25.76,-62.14l0 -374.3c0.04,-17.04 -3.56,-33.73 -10.33,-48.96 -6.75,-15.23 -16.71,-29.07 -29.4,-40.49 -12.68,-11.41 -27.48,-19.87 -43.33,-24.99 -15.87,-5.13 -32.82,-6.97 -49.77,-5.15 -31.81,5.16 -59.27,21.79 -78.42,45.19 -19.2,23.46 -30.14,53.73 -28.87,86.04l0.01 1231.93z"/>
</symbol>

<symbol id="plant" xmlns="http://www.w3.org/2000/svg" xml:space="preserve" version="1.1" style="shape-rendering:geometricPrecision; text-rendering:geometricPrecision; image-rendering:optimizeQuality; fill-rule:evenodd; clip-rule:evenodd"
viewBox="0 0 7000 7000">
<path class="fil0" d="M4071.01 3476.09c259.76,0 480.63,376.08 608.58,592.55l153.13 247.25c-90.02,47.66 -318.46,178.75 -400.38,185.57 -56.97,-244.58 -516.29,-287.45 -736.53,-318.16l-327.94 -23.65 147.97 -193.81c83.66,-112.63 186.28,-303.82 302.56,-390.83 68.38,-51.19 158.62,-98.92 252.61,-98.92zm117.21 -1328.15c0,-121.95 39.11,-215.72 81.23,-299.6 133.97,-266.85 411.82,-423.04 719.53,-423.04l156.24 0c-4.1,186.32 -157.41,416.15 -310.94,528.84 -258,189.34 -453.99,134.34 -566.35,166.09 -28.57,8.1 -50.95,21.01 -79.71,27.71zm-1171.9 -722.64c270.04,0 507.45,10.92 705.76,202.4 135.18,130.58 251.29,312.63 251.29,520.24 -62.3,-14.52 -77.23,-38.29 -165.96,-39.17 -57.57,-0.51 -142.55,-9.6 -193.04,-21.74 -110.97,-26.67 -203.86,-71.79 -287.06,-132.89 -153,-112.27 -305.73,-337.78 -310.99,-528.84zm-205.07 -107.43c0,334.42 149.01,630.37 411.99,808.72 356.13,241.46 540.54,139.3 656.18,203.17 60.11,33.2 103.73,99.04 103.73,189.28l0 771.47c-292.59,0 -499.87,375.5 -634.84,566.4 -54.19,76.65 -117.43,162.74 -195.23,214.85l-215.27 -126.57c-318.44,-185.4 -647.21,-14.98 -923.21,150.23 -602.55,360.69 -1019.76,95.05 -1019.76,298.62l0 898.45c0,155.38 281.02,52.76 549.68,104.59 258.12,49.82 681.34,220.93 1014.67,303.72 679.62,168.62 1335.39,74.68 1927.65,-275.71 138.67,-81.98 362.2,-173.9 263.9,-294.74 -79.36,-97.6 -226.42,45.11 -393.19,136.17 -113.61,62.07 -202.35,107.54 -329.74,158.51 -445.95,178.35 -828.63,188.41 -1292,108.92 -403.27,-69.12 -1016.64,-348.88 -1281.99,-348.88l-263.69 0 0 -683.61c353.76,0 516.07,-23.59 826.91,-178.99 51.07,-25.55 82.19,-45.68 133.51,-71.54 31.06,-15.62 39.05,-23.55 68.2,-39.23 213.41,-114.54 364.52,-207.03 602.21,-100.82 158.33,70.68 231.35,194.08 543.91,247.12 151.5,25.69 762.33,28.24 872.18,192.29 -89.54,133.69 -519.88,151.97 -676.49,173.14 -36.39,4.86 -68.79,0.75 -104.83,2.62 -43.37,2.24 -46.79,9.53 -97.23,10.17 -71.1,0.86 -144.8,-2.84 -215.55,-0.7 -76.7,2.31 -74.16,10.59 -205.14,9.67 -193.04,-1.34 -137.67,195.71 -38.7,195.71 434.28,0 1049.67,-1.92 1373.69,-159.56 97.64,-47.49 279.12,-95.51 459.04,-185.47 275.87,-137.96 410.84,-217.21 763.03,-121.77 113.61,30.78 196.26,87.65 226.53,95.74 -1.97,1.34 -5.2,0.7 -6.13,3.59l-268.77 112.11c-174.07,69.59 -69.25,206.52 1.45,206.52 34.7,0 246.31,-93.72 297.1,-113.04 118.37,-45 249.79,-73.63 249.79,-189.67 0,-103.97 -196.9,-207.4 -279.74,-247.54 -186.63,-90.42 -345.49,-104.01 -550.32,-104.01 -59.41,0 -71.22,9.76 -126.99,9.76l-265.53 -408.29c-127.89,-203.16 -112.23,-165.62 -238.09,-328.29 -65.38,-84.41 -245.4,-217.98 -355.72,-220.47l0 -771.47c0,-246.67 244,-210 351.2,-224.91 463.95,-64.68 820.64,-471.88 820.64,-976.26 0,-48.26 -39.63,-87.88 -87.87,-87.88 -362.54,0 -551.42,-32.34 -855.52,169.85 -108.24,71.96 -290.47,256.15 -316.33,367.23l-19.56 0c-12.6,-54.15 -98.28,-166.61 -134.32,-207.45 -159.83,-180.84 -424.08,-329.63 -695.74,-329.63l-341.84 0c-48.24,0 -87.86,39.62 -87.86,87.88z"/>
  <path class="fil0" d="M4959.7 4970.22c0,146.06 195.3,146.06 195.3,0 0,-117.96 -195.3,-117.96 -195.3,0z"/>
</symbol>

<symbol id="ukrainian" xmlns="http://www.w3.org/2000/svg" xml:space="preserve" version="1.1" style="shape-rendering:geometricPrecision; text-rendering:geometricPrecision; image-rendering:optimizeQuality; fill-rule:evenodd; clip-rule:evenodd"
viewBox="0 0 7000 7000">
  <path class="fil0" d="M4014.68 1390.51c15.99,72.4 6.68,148.09 -26.39,214.44 1.8,1.07 3.19,2.34 4.88,2.87 46.2,13.81 77.26,57.06 75.58,105.26 -1.13,46.84 29.28,88.63 74.19,101.97 49.7,14.9 103.42,-2.63 134.74,-43.99 3.93,-5 8.24,-9.56 12.88,-13.68l1.29 -1.14 0.04 -0.03 1.35 -1.13 0.16 -0.15 1.2 -0.97c1.83,-1.47 3.7,-2.87 5.61,-4.21l1.25 -0.87 0.2 -0.13c1.91,-1.3 3.87,-2.52 5.85,-3.68l0.06 -0.04 0.69 -0.4 0.81 -0.46c2.03,-1.13 4.09,-2.21 6.17,-3.2l0.08 -0.05 1.5 -0.69c3.13,-1.44 6.32,-2.71 9.56,-3.84l0.09 -0.03 3.28 -1.07 0.01 0 0.41 -0.13 1.25 -0.36 3.34 -0.92 1.16 -0.29 0.52 -0.13 0.17 -0.03 1.53 -0.35 1.66 -0.36 0.03 0 1.7 -0.34 0.23 -0.05 1.48 -0.26 0.48 -0.08 1.23 -0.19 0.74 -0.11 0.98 -0.14 1 -0.13 0.72 -0.09 1.26 -0.14 0.47 -0.06 1.52 -0.14 0.21 -0.02 1.74 -0.13 0.04 -0.01 1.7 -0.11 0.3 -0.01 1.43 -0.06 1.7 -0.05 0.05 0 0.82 -0.02 0.93 -0.01 1.08 0 0.67 0.01 1.35 0.03 0.4 0 1.61 0.07 0.14 0 1.75 0.1 0.13 0 1.63 0.12 0.37 0.03 1.38 0.12 0.64 0.07 1.12 0.11 0.89 0.11 0.86 0.11 1.16 0.15 0.6 0.09 1.41 0.21 0.33 0.06 1.69 0.28 0.07 0.02 1.75 0.33 0.18 0.04 1.56 0.32 0.45 0.1 1.3 0.3 0.7 0.17 1.04 0.25 0.96 0.25 0.78 0.2 1.21 0.34 0.52 0.15 1.47 0.43 0.26 0.08 1.73 0.54 1.66 0.49 0.61 0.18 1.05 0.28 1.24 0.33 0.43 0.1 1.66 0.42 0.19 0.04 1.48 0.34 0.81 0.18 0.87 0.19 1.42 0.28 0.25 0.06 1.68 0.31 0.36 0.06 1.31 0.23 0.99 0.16 0.69 0.11 1.61 0.23 0.07 0.01 1.67 0.21 0.56 0.08 1.12 0.12 1.18 0.12 0.5 0.05 1.68 0.14 0.12 0.01 1.56 0.12 0.74 0.04 0.94 0.06 1.36 0.06 0.31 0.01 1.68 0.05 0.3 0.01 0.25 0 2.04 0.03 0.76 0 1.54 -0.01 0.12 -0.01 1.68 -0.03 0.48 -0.02 1.18 -0.05 1.1 -0.05 0.56 -0.04 1.67 -0.1 0.06 0 1.59 -0.14 0.67 -0.05 0.99 -0.1 1.28 -0.13 0.37 -0.05 1.65 -0.2 0.24 -0.02 1.4 -0.2 1.59 -0.23 0.05 -0.01 1.45 -0.24 0.19 -0.03 1.63 -0.29 0.42 -0.08 1.21 -0.23 1.02 -0.21 0.6 -0.12 1.62 -0.36 1.61 -0.38 0.59 -0.14 1.01 -0.25 1.19 -0.31 0.41 -0.11 1.6 -0.45 0.17 -0.04 1.41 -0.43 0.77 -0.22 0.82 -0.26 1.33 -0.43 0.24 -0.08 1.56 -0.53 0.35 -0.11 1.21 -0.43 0.93 -0.34 0.63 -0.24 1.48 -0.56 0.06 -0.03 1.53 -0.62 0.51 -0.2 1.02 -0.43 1.07 -0.46 0.46 -0.2 1.5 -0.67 0.12 -0.05 1.39 -0.65 0.66 -0.31 0.83 -0.4 1.21 -0.6 0.27 -0.15 1.48 -0.76 0.27 -0.13 1.19 -0.65 0.81 -0.44 0.65 -0.35 1.33 -0.77 0.11 -0.06 1.43 -0.84 0.42 -0.25 1.01 -0.61 0.94 -0.58 0.47 -0.3 1.4 -0.9 0.04 -0.03 1.35 -0.9c10.93,-7.36 20.77,-16.57 28.99,-27.49 3.86,-4.58 7.18,-9.59 9.86,-14.95 0.74,-1.6 3.39,-8.58 4.02,-10.6 15.93,-34.22 12.29,-74.36 -9.53,-105.16 -27.34,-37.96 -26.56,-89.34 1.9,-126.46 28.86,-37.97 29.77,-90.27 2.23,-129.21 -30.31,-37.99 -80.99,-53.19 -127.21,-38.17 -44.07,14.14 -92.22,-1.95 -118.94,-39.75 -7.24,-9.42 -15.85,-17.71 -25.54,-24.58 -29.91,-20.02 -67.35,-25.18 -101.55,-13.99 -48.1,14.6 -81.81,57.9 -84.17,108.11 -1.22,40.03 -25.05,75.9 -61.48,92.54zm-113.09 2872.51l972.35 255.55 0 0.11c155.06,43.17 286.7,134.94 380.08,256.16 95.03,123.35 150.5,277.25 150.76,441.44l0.04 698.61c0,24.93 -10.11,47.51 -26.46,63.86 -16.37,16.32 -38.95,26.45 -63.85,26.45l-3639.41 0c-24.94,0 -47.52,-10.11 -63.86,-26.45 -16.33,-16.38 -26.46,-38.96 -26.46,-63.86l0 -698.62c0.26,-164.06 55.62,-317.92 150.53,-441.29 94.9,-123.37 229.4,-216.32 387.91,-258.61l964.85 -253.39 0 -239.55c-96.32,-41.25 -185.42,-96.68 -264.48,-163.89 -71.47,-60.73 -134.81,-131.16 -187.94,-209.47l0.01 128.68c-0.3,199.58 -81.32,380.25 -212.14,511.05 -130.79,130.8 -311.48,211.83 -511.08,212.13l-158.23 0.05c-24.93,0 -47.51,-10.11 -63.86,-26.46 -16.33,-16.37 -26.46,-38.97 -26.46,-63.86l0 -632.93c0.35,-171.42 60.71,-331.07 162.89,-456.59 98.59,-121.1 236.12,-210.5 396.26,-248.21 -25.39,-32.46 -45.44,-68.48 -59.59,-106.63 -16.22,-43.82 -24.78,-90.54 -24.8,-138 0.14,-43.62 7.38,-86.65 21.09,-127.42 13.35,-39.66 32.87,-77.25 57.98,-111.23l0 -77.8c0,-235.16 63.61,-455.48 174.54,-644.72 -27.62,-18.53 -52.33,-41.73 -72.82,-69.2l0.17 -0.13c-3.89,-4.98 -7.45,-9.92 -10.69,-14.79l-3.88 -6.19c-7.85,-11.76 -14.42,-24.64 -19.44,-38.52 -19.84,-44.47 -27.35,-93.27 -22.98,-141.55 2.97,-32.72 11.72,-65.02 26.1,-95.32 -20.52,-39.76 -31.23,-83.48 -32.06,-127.54 -1.13,-59.64 16.16,-119.5 52.04,-170.45l0.36 0.26c1.89,-2.7 3.87,-5.35 5.93,-7.97 38.32,-48.38 89.54,-82.33 145.74,-99.37 41,-12.43 84.59,-16.02 127.71,-9.84 8.5,-8.25 17.37,-15.92 26.54,-22.91 2.84,-2.21 5.76,-4.35 8.77,-6.4 44.63,-30.48 95.64,-47.78 147.49,-51.45 51.7,-3.67 104.63,6.3 153.29,30.27 48.36,23.81 88.42,59.73 117.11,103.08 20.55,31.07 35.31,66.03 43.15,103.19 8.29,-8.13 17.06,-15.77 26.26,-22.86 35.13,-27.06 76.53,-46.04 121.25,-54.63 19.88,-40.08 48.51,-74.42 83.03,-100.84 41.01,-31.39 90.82,-51.73 144.71,-57.45 9.37,-1.52 18.97,-2.32 28.76,-2.32l1.16 0 0 0.62 5.6 0.08c62.75,2.1 120.98,23.49 167.89,58.99 33.93,25.71 62.35,59.06 82.72,98.13 46.16,8.21 89.01,27.13 125.45,54.47 11.17,8.36 21.74,17.52 31.63,27.39 9.17,-46.2 28.77,-88.57 56.49,-124.18 33.08,-42.48 78.26,-76.09 131.61,-95.8 4.46,-1.86 9.02,-3.56 13.7,-5.08 40.27,-13.16 82.51,-17.26 123.82,-12.66l8.33 0.95c40.75,5.62 80.52,19.93 116.57,42.54 3.96,2.38 7.85,4.93 11.68,7.65 12.05,8.55 23.43,17.97 33.97,28.13l0.31 0.31c43.18,-6.35 86.61,-2.98 127.29,9.2 55.15,16.55 105.56,49.26 143.84,95.87 3.12,3.73 6.11,7.63 8.96,11.68 35.89,50.76 53.24,110.69 52.23,170.63 -0.76,43.71 -11.48,87.28 -32.06,127.11 14.36,30.39 23.11,62.92 26.11,95.99 4.19,46.25 -2.66,93.08 -20.96,136.22l-0.91 2.88 -0.23 -0.09c-2.27,5.97 -4.9,12.49 -6.71,16.42l-0.36 -0.17 -2.43 5.07c-5.51,10.99 -10.53,19.92 -14.99,26.65l-0.32 -0.21 -3.33 4.98c-2.5,3.9 -5.18,7.74 -8.02,11.52 -20.06,26.61 -44.04,49.16 -70.72,67.27 111.06,189.33 174.76,409.78 174.76,645.09l-0.03 78.54c25.27,33.85 44.85,71.36 58.22,110.95 13.75,40.79 20.92,83.78 20.92,127.27 0,47.52 -8.54,94.33 -24.79,138.25 -14.16,38.26 -34.23,74.36 -59.62,106.9 160.18,37.4 297.76,126.63 396.35,247.6 102.22,125.41 162.56,285.01 162.73,456.37l0.05 632.93c0,24.87 -10.13,47.46 -26.46,63.82 -16.4,16.38 -38.99,26.5 -63.86,26.5l-158.26 -0.05c-199.57,-0.31 -380.26,-81.33 -511.06,-212.13 -130.8,-130.81 -211.82,-311.48 -212.12,-511.07l-0.05 -128.73c-53.09,78.33 -116.4,148.76 -187.84,209.5 -79.08,67.23 -168.17,122.69 -264.47,163.98l0 239.54zm-1327.24 -2343.79c-99.51,154.17 -161.49,335.1 -172.77,530.14 17.44,-6.5 35.29,-11.8 53.4,-15.83 23.34,-5.19 47.18,-8.34 71.15,-9.32l1338.95 -393.63c4.11,-1.21 8.3,-2.13 12.5,-2.74 4.29,-0.62 8.57,-0.94 12.72,-0.94 9.42,0 18.76,1.51 27.64,4.42 8.87,2.91 17.31,7.22 24.92,12.82l534.49 381.77c21.29,1.34 42.41,4.45 63.06,9.22 16.12,3.73 32.05,8.52 47.68,14.3 -11.2,-194.95 -73.08,-375.81 -172.44,-529.93 -9.78,-0.42 -19.58,-1.31 -29.37,-2.7 -32.85,30.86 -71.83,53.67 -113.8,67.38 -57.4,18.73 -120.31,20.38 -180.62,2.3l0.06 -0.2c-61.35,-18.35 -112.7,-55.9 -148.19,-104.7l0.46 -0.33c-18.43,-25.39 -32.64,-53.78 -41.84,-84.06 -17.75,54.77 -51.11,104.19 -97.87,140.9l-0.2 -0.26 -4 3.06c-51.22,38.15 -111.5,57.24 -171.4,57.24 -42.96,0 -86.13,-9.82 -126.01,-29.47 -40.65,20.41 -85.16,30.44 -129.68,30.11 -61.45,-0.46 -122.63,-20.53 -173.5,-60.16 -48.67,-37.34 -83.65,-87.59 -102.39,-143.27 -2.05,-6.1 -3.91,-12.26 -5.58,-18.47 -8.53,38.63 -25.01,74.54 -47.87,105.66 -31.24,42.5 -74.49,76.3 -125.78,96.11 -14.82,6.64 -30.35,11.15 -46.14,13.56 -53.38,11.2 -107.27,7.83 -156.49,-8.39 -41.39,-13.61 -79.96,-36.36 -112.66,-67.22 -9.47,1.33 -18.96,2.21 -28.43,2.63zm2570.73 2402.12l0 -542.6c-0.09,-149.72 -60.9,-285.32 -159.11,-383.53 -98.21,-98.23 -233.83,-159.03 -383.52,-159.17l-67.93 0.05 0 542.6c0.08,149.71 60.91,285.32 159.12,383.53 98.21,98.21 233.81,159.04 383.52,159.16l67.92 -0.04zm-489.51 -1571.75c-9.58,-25.31 -23.66,-48.92 -41.74,-69.59l-9.25 -10.78c-12.04,-11.64 -25.28,-21.94 -39.41,-30.68 -9.76,-6.04 -20.02,-11.39 -30.65,-15.98l0 412.68c38.38,-16.62 70.63,-43.27 94.06,-76.18 26.39,-37.07 41.62,-82.12 41.83,-129.74 -0.14,-27.41 -5.25,-54.42 -14.84,-79.73zm-2359.61 1412.64c98.21,-98.2 159.04,-233.82 159.16,-383.51l-0.04 -542.63 -67.9 0c-149.72,0.08 -285.33,60.9 -383.54,159.11 -98.21,98.21 -159.03,233.82 -159.16,383.52l0.04 542.62 67.91 0c149.71,-0.08 285.32,-60.9 383.53,-159.11zm64.83 -1202.99c23.42,33.14 55.76,60 94.33,76.78l0.01 -413.47c-10.66,4.58 -20.92,9.94 -30.7,15.99 -14.25,8.82 -27.6,19.22 -39.74,31 -20.93,21.15 -37.3,46.02 -48.41,73.04 -11.09,26.99 -16.99,56.22 -16.99,86.09 0,47.91 15.11,93.25 41.5,130.57zm274.91 -378.72l0.01 486.14c0,237.18 96.18,451.97 251.65,607.43 155.48,155.47 370.26,251.66 607.44,251.66 237.18,0 451.97,-96.19 607.44,-251.66 155.48,-155.46 251.66,-370.25 251.66,-607.43l0 -507.74 -479.82 -342.4 -1238.38 364zm1085.26 1752.02l0 -251.79c-34.87,7.97 -70.13,14.11 -105.5,18.37 -40.09,4.81 -80.44,7.26 -120.66,7.26 -40.21,0 -80.53,-2.45 -120.59,-7.25 -35.4,-4.24 -70.67,-10.38 -105.57,-18.33l0 251.74c0,62.43 25.33,118.99 66.26,159.9 40.92,40.92 97.47,66.25 159.9,66.25 62.44,0 118.99,-25.33 159.9,-66.25 40.93,-40.91 66.26,-97.47 66.26,-159.9zm-615.43 112.54l-232.48 61.41 0 447.79 1243.5 0 0 -447.81 -232.48 -61.41c-24.1,84.97 -74.46,157.27 -140.86,208.91 -69.2,53.83 -155.88,85.26 -248.41,85.26 -92.53,0 -179.21,-31.43 -248.41,-85.26 -66.4,-51.64 -116.76,-123.93 -140.86,-208.89zm-1340.12 1379.49l561.07 0c-32.4,-39.81 -58.11,-84.36 -76.38,-131.83 -21.15,-54.88 -32.3,-113.65 -32.33,-173.44 0.2,-69.03 15.03,-136.45 42.62,-198.1 26.94,-60.22 66.05,-115 115.56,-160.49l0 -524.09 -206.73 54.82c-118.95,31.57 -219.92,101.25 -291.13,193.8 -71.21,92.53 -112.71,207.97 -112.72,331.03l0.04 608.3zm938.22 0l1582.34 0c84.28,0 160.62,-34.19 215.86,-89.43 55.24,-55.24 89.42,-131.57 89.42,-215.85 0,-48.11 -11.31,-94.79 -32.19,-136.57 -20.92,-41.82 -51.46,-78.88 -89.89,-107.68l-0.09 -0.05c-11.23,-8.53 -20.19,-19.5 -26.37,-31.86 -6.17,-12.34 -9.56,-26.1 -9.65,-40.26l-0.04 -613.31 -135.85 -36.01 0 491.04c0,24.91 -10.12,47.48 -26.45,63.82 -16.38,16.37 -38.95,26.49 -63.86,26.49l-1424.12 0c-24.86,0 -47.45,-10.12 -63.81,-26.46 -16.38,-16.4 -26.5,-38.97 -26.5,-63.85l0 -491.04 -135.89 36.02 0.01 613.25c-0.1,14.21 -3.49,27.97 -9.66,40.31 -6.17,12.33 -15.15,23.29 -26.43,31.85 -38.47,28.85 -69.01,65.92 -89.92,107.75 -20.89,41.78 -32.19,88.45 -32.19,136.56 0,84.28 34.18,160.61 89.42,215.85 55.24,55.24 131.58,89.43 215.86,89.43zm1959.52 0l561.04 0 0 -608.28c-0.01,-123.2 -41.61,-238.72 -112.97,-331.27 -71.37,-92.55 -172.52,-162.16 -291.67,-193.56l-205.95 -54.83 0.02 524.04c49.53,45.49 88.65,100.28 115.59,160.53 27.59,61.64 42.42,129.05 42.62,198.06 -0.03,59.77 -11.18,118.53 -32.31,173.43 -18.27,47.47 -43.98,92.04 -76.37,131.88zm-857.51 -4406.72c-15.15,-47.13 -58.41,-79.57 -107.91,-80.88 -45.71,-0.5 -86.3,-29.37 -101.76,-72.4 -14.81,-46.47 -57.26,-78.6 -106.01,-80.24l-1.16 0c-48.3,0.87 -90.42,33.09 -103.88,79.5 -13.41,44.24 -53.95,74.7 -100.18,75.26 -48,0.95 -89.76,33.11 -102.92,79.28 -13.95,48.68 3.34,100.91 43.56,131.67 36.22,26.27 52.05,72.47 39.54,115.43 -14.03,49.15 3.71,101.86 44.63,132.5 37.83,29.46 90.73,29.85 129,0.96 36.98,-27.77 87.68,-28.37 125.3,-1.49 38.59,28.75 91.47,28.75 130.07,0 39.06,-30.66 54.24,-82.81 37.73,-129.64 -15.37,-43.9 -0.32,-92.69 37.11,-120.31 39.36,-30.47 54.31,-83.02 36.88,-129.64zm-960.81 397.3c45.26,-13.1 76.04,-54.98 75.05,-102.08 -1.7,-48.45 29.68,-91.88 76.22,-105.48 2.01,-0.53 3.39,-1.9 5.3,-2.54 -32.85,-66.51 -42.84,-142 -28.41,-214.76 -35.93,-16.74 -59.38,-52.28 -60.64,-91.91 -2.41,-43.3 -27.98,-81.95 -66.89,-101.12 -38.9,-19.17 -85.13,-15.89 -120.95,8.58 -8.87,6.54 -16.76,14.32 -23.42,23.11 -26.72,37.8 -74.86,53.88 -118.93,39.75 -46.31,-14.93 -97.01,0.45 -127.22,38.59 -27.36,38.86 -26.37,90.98 2.44,128.78 28.47,37.12 29.25,88.5 1.91,126.46 -21.82,30.8 -25.47,70.94 -9.54,105.16 1.48,3.39 2.86,6.93 4.14,10.6 2.44,4.87 5.47,9.42 9,13.57 8.55,11.46 18.85,21.1 30.33,28.71l0.08 0.06 1.3 0.85 0.62 0.39 1.52 0.94 0.43 0.28 0.24 0.13 1.41 0.85 0.32 0.19 1.11 0.64 0.88 0.5 0.56 0.31 1.44 0.78 0.02 0.01 1.44 0.75 0.58 0.31 0.89 0.45 1.16 0.57 0.32 0.15 1.48 0.71 0.26 0.12 1.24 0.56 0.85 0.39 0.65 0.27 1.45 0.62 0.06 0.03 1.52 0.63 0.53 0.21 0.99 0.39 1.14 0.43 0.4 0.15 1.55 0.56 0.19 0.07 1.35 0.48 0.81 0.27 0.75 0.25 1.43 0.45 0.14 0.05 1.57 0.47 0.47 0.14 1.1 0.32 1.1 0.31 0.49 0.13 1.59 0.41 0.13 0.04 1.47 0.36 0.75 0.17 0.85 0.19 1.38 0.31 0.22 0.05 1.62 0.32 0.4 0.08 0.27 0.05 1.98 0.37 0.59 0.1 1.62 0.26 0.05 0.01 1.58 0.24 0.68 0.09 0.95 0.13 1.33 0.16 0.31 0.04 1.64 0.17 0.33 0.03 1.32 0.13 0.96 0.08 0.69 0.04 1.61 0.11 0.03 0 1.66 0.09 0.61 0.03 1.05 0.03 1.25 0.04 0.4 0.01 1.66 0.02 0.25 0 1.42 0 0.89 -0.01 0.76 -0.02 1.55 -0.05 0.12 -0.01 1.67 -0.07 0.52 -0.02 1.14 -0.07 1.18 -0.08 0.49 -0.03 1.67 -0.15 0.16 -0.01 1.51 -0.15 0.81 -0.09 0.85 -0.1 1.47 -0.18 0.2 -0.03 1.67 -0.23 0.45 -0.07 1.22 -0.19 1.09 -0.18 0.58 -0.1 1.65 -0.31 0.09 -0.01 1.58 -0.32 0.73 -0.15 0.15 -0.03 2.16 -0.48 0.28 -0.06 1.66 -0.4 0.37 -0.09 1.29 -0.34 1.01 -0.26 0.64 -0.18 1.65 -0.48 1.74 -0.55 0.25 -0.08 1.5 -0.45 0.5 -0.15 1.24 -0.34 0.76 -0.21 0.99 -0.26 1.02 -0.25 0.74 -0.18 1.27 -0.3 0.49 -0.1 1.52 -0.33 0.24 -0.04 1.76 -0.34 0.02 0 1.74 -0.31 0.28 -0.05 0.72 -0.11 1.31 -0.19 1.22 -0.17 0.8 -0.11 0.98 -0.12 1.04 -0.11 1.71 -0.16 0.32 -0.03 0.46 -0.04 1.55 -0.11 0.22 -0.01 1.76 -0.1 0.05 -0.01 1.72 -0.06 0.3 -0.01 1.46 -0.03 0.57 -0.01 0.31 0 1.48 0 0.22 0 0.95 0.02 1.7 0.04 0.06 0 1.31 0.06 0.44 0.02 1.58 0.09 0.18 0.02 1.74 0.14 0.08 0 1.67 0.17 0.32 0.02 1.43 0.16 0.57 0.08 1.17 0.15 0.03 0.01 1.64 0.23 0.05 0.01 1.08 0.17 0.65 0.11 1.32 0.23 0.4 0.08 1.56 0.3 0.16 0.03 3.14 0.69 0.27 0.06 0.34 0.08 1.36 0.35 0.57 0.14 1.11 0.3 0.82 0.23 0.86 0.25 1.06 0.31 0.62 0.19 1.29 0.4 0.37 0.13 1.65 0.56 1.65 0.58 0.11 0.04 1.53 0.57 0.34 0.13 1.28 0.51 0.58 0.23 1.04 0.44 1.61 0.69 1.03 0.46 0.56 0.26 1.25 0.58 0.34 0.16 0.03 0.02c2.1,1 4.15,2.09 6.17,3.23l0.57 0.32 0.96 0.55 0.77 0.46 0.74 0.45 2.97 1.88 1.39 0.92 0.08 0.06c3.41,2.31 6.67,4.84 9.82,7.56l1.29 1.13 0.05 0.05 1.32 1.2c4.05,3.76 7.84,7.85 11.32,12.31 31.13,40.68 84.02,58.1 133.25,43.9z"/>
</symbol>




</svg>
