<svg viewBox="0 0 23 42" fill="none" xmlns="http://www.w3.org/2000/svg" id="rightArrow">
<path d="M0.492301 0.494244C0.176691 0.817364 0 1.25113 0 1.70281C0 2.15449 0.176691 2.58825 0.492301 2.91137L18.125 21L0.492301 39.085C0.176691 39.4081 0 39.8419 0 40.2936C0 40.7453 0.176691 41.179 0.492301 41.5021C0.645709 41.6597 0.829127 41.7849 1.03173 41.8704C1.23433 41.9559 1.45201 42 1.67192 42C1.89182 42 2.1095 41.9559 2.3121 41.8704C2.5147 41.7849 2.69812 41.6597 2.85153 41.5021L21.6023 22.2628C21.9317 21.925 22.116 21.4718 22.116 21C22.116 20.5282 21.9317 20.075 21.6023 19.7372L2.85153 0.497863C2.69812 0.340303 2.5147 0.215073 2.3121 0.129564C2.1095 0.0440547 1.89182 0 1.67192 0C1.45201 0 1.23433 0.0440547 1.03173 0.129564C0.829127 0.215073 0.645709 0.340303 0.492301 0.497863V0.494244Z" fill="currentColor"/>
</svg>
