<?xml version="1.0" encoding="UTF-8"?>
<!DOCTYPE svg PUBLIC "-//W3C//DTD SVG 1.1//EN" "http://www.w3.org/Graphics/SVG/1.1/DTD/svg11.dtd">
<!-- Creator: CorelDRAW -->
<svg xmlns="http://www.w3.org/2000/svg" xml:space="preserve" width="75mm" height="75mm" version="1.1" style="shape-rendering:geometricPrecision; text-rendering:geometricPrecision; image-rendering:optimizeQuality; fill-rule:evenodd; clip-rule:evenodd"
viewBox="0 0 7500 7500"
 xmlns:xlink="http://www.w3.org/1999/xlink"
 xmlns:xodm="http://www.corel.com/coreldraw/odm/2003">
 <defs>
  <style type="text/css">
   <![CDATA[
    .fil0 {fill:#024932}
   ]]>
  </style>
   <clipPath id="id0">
    <rect x="-11014.52" y="-15695.86" width="7000.03" height="7000.03"/>
   </clipPath>
   <clipPath id="id1">
    <rect x="-16132.76" y="-7028.92" width="7000.01" height="7000.01"/>
   </clipPath>
   <clipPath id="id2">
    <rect x="-22133.29" y="-10748.57" width="6999.9" height="6999.9"/>
   </clipPath>
   <clipPath id="id3">
    <rect x="-13540.2" y="-11602.69" width="6999.9" height="6999.9"/>
   </clipPath>
   <clipPath id="id4">
    <rect x="-11339.59" y="-8622.67" width="6999.9" height="6999.9"/>
   </clipPath>
   <clipPath id="id5">
    <rect x="-10500.18" y="-9167.46" width="6999.9" height="6999.9"/>
   </clipPath>
   <clipPath id="id6">
    <rect x="3762.2" y="-9284.42" width="7000.09" height="7000.09"/>
   </clipPath>
   <clipPath id="id7">
    <rect x="-12558.12" y="-4975.01" width="7000.09" height="7000.09"/>
   </clipPath>
 </defs>
 <g id="Layer_x0020_1">
  <metadata id="CorelCorpID_0Corel-Layer"/>
  <g id="_105553583128896">
   <path class="fil0" d="M1067.44 4956.04l0 -3554.62c0,-63.84 31.85,-95.72 95.69,-95.72l5167.88 0c63.84,0 95.72,31.88 95.72,95.72l0 3554.62c0,31.88 -36.5,68.35 -68.39,68.35l-5222.55 0c-31.88,0 -68.35,-36.47 -68.35,-68.35zm-246.12 -3513.63l0 3472.61c0,186.58 132.68,355.45 314.47,355.45l5222.55 0c100.73,0 178.64,-57.39 229.53,-112.24 57.12,-61.56 84.94,-142.55 84.94,-256.86l0 -3486.3c0,-209.12 -146.33,-355.45 -355.45,-355.45l-5140.55 0c-225.92,0 -355.49,152.98 -355.49,382.79z"/>
   <path class="fil0" d="M1860.39 6200.17c-254.31,0 -254.31,-396.48 0,-396.48 269.46,0 270.05,396.48 0,396.48zm-423.85 -314.44c-118.47,0 -236.98,0.07 -355.45,-0.03 -88.55,-0.04 -248.85,-30.42 -256.16,110.94 -6.58,127.68 113.18,121.84 242.47,121.52 123.03,-0.31 246.12,-0.03 369.14,-0.03 44.77,93.27 44.49,132.89 146.79,222.35 242.23,211.82 632.79,69.82 700.86,-222.35l4211.46 0.59c103.39,0.7 169.18,-22.82 173.56,-111.51 8.47,-171.67 -232.75,-121.51 -433.89,-121.51 -1317.03,0 -2634.1,0.03 -3951.13,0.03 -79.09,-339.49 -557.54,-463.71 -785.45,-129.22 -31.36,46.03 -37.94,83.41 -62.2,129.22z"/>
   <path class="fil0" d="M3309.57 2577.16c51.24,4.27 77.88,33.32 117.67,60.06l743.64 527.83c-39.55,59.08 -638.88,450.75 -773.56,553.09 -90.37,68.67 -88.1,80.33 -87.75,-142.94l0 -998.04zm-232.43 -13.65l0 1203.11c0,110.28 100.38,232.39 205.1,232.39 170.62,0 182.7,-32.02 374.88,-171.95 94.32,-68.63 181.02,-120.43 275.58,-189.28 194.18,-141.29 484.29,-281.08 484.29,-459.05 0,-77.59 -17.67,-140.24 -78.19,-195.26l-553.3 -390.07c-108.36,-73.39 -325.5,-262.32 -448.59,-262.32 -145.88,0 -259.77,100.17 -259.77,232.43z"/>
  </g>
  <g style="clip-path:url(#id0)">
   <image x="-11014.52" y="-15695.88" width="7000.05" height="7000.05" xlink:href="1_Images/1_ImgID1.png"/>
  </g>
  <g style="clip-path:url(#id1)">
   <image x="-16132.76" y="-7028.94" width="7000.03" height="7000.03" xlink:href="1_Images/1_ImgID2.png"/>
  </g>
  <g style="clip-path:url(#id2)">
   <image x="-22133.29" y="-10748.59" width="6999.92" height="6999.92" xlink:href="1_Images/1_ImgID3.png"/>
  </g>
  <g style="clip-path:url(#id3)">
   <image x="-13540.2" y="-11602.72" width="6999.93" height="6999.93" xlink:href="1_Images/1_ImgID4.png"/>
  </g>
  <g style="clip-path:url(#id4)">
   <image x="-11339.59" y="-8622.69" width="6999.92" height="6999.92" xlink:href="1_Images/1_ImgID5.png"/>
  </g>
  <g style="clip-path:url(#id5)">
   <image x="-10500.18" y="-9167.48" width="6999.92" height="6999.92" xlink:href="1_Images/1_ImgID6.png"/>
  </g>
  <g style="clip-path:url(#id6)">
   <image x="3762.2" y="-9284.45" width="7000.12" height="7000.12" xlink:href="1_Images/1_ImgID7.png"/>
  </g>
  <g style="clip-path:url(#id7)">
   <image x="-12558.12" y="-4975.04" width="7000.12" height="7000.12" xlink:href="1_Images/1_ImgID8.png"/>
  </g>
 </g>
</svg>
