<?xml version="1.0" encoding="UTF-8"?>
<!DOCTYPE svg PUBLIC "-//W3C//DTD SVG 1.1//EN" "http://www.w3.org/Graphics/SVG/1.1/DTD/svg11.dtd">
<!-- Creator: CorelDRAW -->
<svg xmlns="http://www.w3.org/2000/svg" xml:space="preserve" width="75mm" height="75mm" version="1.1" style="shape-rendering:geometricPrecision; text-rendering:geometricPrecision; image-rendering:optimizeQuality; fill-rule:evenodd; clip-rule:evenodd"
viewBox="0 0 7500 7500"
 xmlns:xlink="http://www.w3.org/1999/xlink"
 xmlns:xodm="http://www.corel.com/coreldraw/odm/2003">
 <defs>
  <style type="text/css">
   <![CDATA[
    .fil0 {fill:#024932}
   ]]>
  </style>
   <clipPath id="id0">
    <rect x="-16132.76" y="-7028.92" width="7000.01" height="7000.01"/>
   </clipPath>
   <clipPath id="id1">
    <rect x="-22133.29" y="-10748.57" width="6999.9" height="6999.9"/>
   </clipPath>
   <clipPath id="id2">
    <rect x="-13540.2" y="-11602.69" width="6999.9" height="6999.9"/>
   </clipPath>
   <clipPath id="id3">
    <rect x="-11339.59" y="-8622.67" width="6999.9" height="6999.9"/>
   </clipPath>
   <clipPath id="id4">
    <rect x="-10500.18" y="-9167.46" width="6999.9" height="6999.9"/>
   </clipPath>
   <clipPath id="id5">
    <rect x="3762.2" y="-9284.42" width="7000.09" height="7000.09"/>
   </clipPath>
   <clipPath id="id6">
    <rect x="-12558.12" y="-4975.01" width="7000.09" height="7000.09"/>
   </clipPath>
 </defs>
 <g id="Layer_x0020_1">
  <metadata id="CorelCorpID_0Corel-Layer"/>
  <g id="_105553580288736">
   <path class="fil0" d="M14243.58 4565.85l0 -3554.62c0,-63.84 31.85,-95.72 95.69,-95.72l5167.88 0c63.84,0 95.72,31.88 95.72,95.72l0 3554.62c0,31.88 -36.5,68.35 -68.39,68.35l-5222.55 0c-31.88,0 -68.35,-36.47 -68.35,-68.35zm-246.12 -3513.63l0 3472.61c0,186.58 132.68,355.45 314.47,355.45l5222.55 0c100.73,0 178.64,-57.39 229.53,-112.24 57.12,-61.56 84.94,-142.55 84.94,-256.86l0 -3486.3c0,-209.12 -146.33,-355.45 -355.45,-355.45l-5140.55 0c-225.92,0 -355.49,152.98 -355.49,382.79z"/>
   <path class="fil0" d="M15036.53 5809.98c-254.31,0 -254.31,-396.48 0,-396.48 269.46,0 270.05,396.48 0,396.48zm-423.85 -314.44c-118.47,0 -236.98,0.07 -355.45,-0.03 -88.55,-0.04 -248.85,-30.42 -256.16,110.94 -6.58,127.68 113.18,121.84 242.47,121.52 123.03,-0.31 246.12,-0.03 369.14,-0.03 44.77,93.27 44.49,132.89 146.79,222.35 242.23,211.82 632.79,69.82 700.86,-222.35l4211.46 0.59c103.39,0.7 169.18,-22.82 173.56,-111.51 8.47,-171.67 -232.75,-121.51 -433.89,-121.51 -1317.03,0 -2634.1,0.03 -3951.13,0.03 -79.09,-339.49 -557.54,-463.71 -785.45,-129.22 -31.36,46.03 -37.94,83.41 -62.2,129.22z"/>
   <path class="fil0" d="M16485.71 2186.97c51.24,4.27 77.88,33.32 117.67,60.06l743.64 527.83c-39.55,59.08 -638.88,450.75 -773.56,553.09 -90.37,68.67 -88.1,80.33 -87.75,-142.94l0 -998.04zm-232.43 -13.65l0 1203.11c0,110.28 100.38,232.39 205.1,232.39 170.62,0 182.7,-32.02 374.88,-171.95 94.32,-68.63 181.02,-120.43 275.58,-189.28 194.18,-141.29 484.29,-281.08 484.29,-459.05 0,-77.59 -17.67,-140.24 -78.19,-195.26l-553.3 -390.07c-108.36,-73.39 -325.5,-262.32 -448.59,-262.32 -145.88,0 -259.77,100.17 -259.77,232.43z"/>
  </g>
  <g id="_105553581337376">
   <path class="fil0" d="M1657.46 3668.69l0 -970.7c0,-881.61 1052.73,-762.81 1052.73,-95.7l0 1162.1c0,668.27 -1052.73,782.41 -1052.73,-95.7zm-232.44 -998.04c0,306.94 -33.63,1119.64 49.17,1359.08 37.57,108.7 86.7,164.6 149.83,246.63 222.37,288.87 761.04,365.47 1089.87,38.6 114.24,-113.57 228.74,-301.97 228.74,-523.23l0 -1216.78c0,-611.8 -745.17,-954.73 -1205.24,-590 -213.07,168.9 -312.37,350.74 -312.37,685.7z"/>
   <path class="fil0" d="M878.15 3832.76c0,358.47 168.1,696.74 352,878.47 55.67,55.03 93.14,98.47 155.67,145.13 171.8,128.2 416.8,261.57 654.44,261.57l0 519.54c-131.77,0 -328.1,-35.07 -328.1,109.36 0,67.57 55.46,123.04 123.03,123.04l683.6 0c161.64,0 159.6,-232.4 0,-232.4l-246.1 0 0 -505.87c169.27,-3.77 362.37,-71.64 483.1,-132.17 80.44,-40.3 119.14,-64.23 189.77,-111 43.3,-28.7 46.13,-35.7 83.33,-67.07 37.5,-31.6 52.94,-39.33 88.44,-75.6 319.7,-326.8 514.03,-1036.03 262.8,-1036.03 -239.57,0 26.27,304.5 -370.9,804.87 -168.7,212.53 -469.34,384.56 -832.24,384.56 -372,0 -621.27,-176.6 -803.4,-372.36 -87.34,-93.87 -167.8,-239.67 -210.2,-377.71 -73.74,-239.9 -9.74,-439.36 -162.17,-439.36 -67.6,0 -123.07,55.46 -123.07,123.03z"/>
   <path class="fil0" d="M4637.93 1932.35l0 2556.65c0,147.2 232.44,161.7 232.44,-41l0 -2474.62c0,-202.73 -232.44,-188.2 -232.44,-41.03z"/>
   <path class="fil0" d="M5212.17 2424.55l0 1449.21c0,202.73 232.4,188.2 232.4,41.03l0 -1531.27c0,-147.17 -232.4,-161.67 -232.4,41.03z"/>
   <path class="fil0" d="M4050.03 2643.29l0 1039.07c0,115.43 232.44,140.07 232.44,-27.33l0 -1011.74c0,-155.14 -232.44,-169.57 -232.44,0z"/>
   <path class="fil0" d="M5800.04 2848.39l0 601.57c0,167.63 232.43,141.83 232.43,27.33l0 -656.27c0,-115.43 -232.43,-140.03 -232.43,27.37z"/>
   <path class="fil0" d="M6387.94 3026.12c0,172.5 -39.73,382.8 109.37,382.8 159.27,0 123.07,-202.9 123.07,-355.46 0,-167.64 -232.44,-141.84 -232.44,-27.34z"/>
  </g>
  <g style="clip-path:url(#id0)">
   <image x="-16132.76" y="-7028.94" width="7000.03" height="7000.03" xlink:href="2_Images/2_ImgID1.png"/>
  </g>
  <g style="clip-path:url(#id1)">
   <image x="-22133.29" y="-10748.59" width="6999.92" height="6999.92" xlink:href="2_Images/2_ImgID2.png"/>
  </g>
  <g style="clip-path:url(#id2)">
   <image x="-13540.2" y="-11602.72" width="6999.93" height="6999.93" xlink:href="2_Images/2_ImgID3.png"/>
  </g>
  <g style="clip-path:url(#id3)">
   <image x="-11339.59" y="-8622.69" width="6999.92" height="6999.92" xlink:href="2_Images/2_ImgID4.png"/>
  </g>
  <g style="clip-path:url(#id4)">
   <image x="-10500.18" y="-9167.48" width="6999.92" height="6999.92" xlink:href="2_Images/2_ImgID5.png"/>
  </g>
  <g style="clip-path:url(#id5)">
   <image x="3762.2" y="-9284.45" width="7000.12" height="7000.12" xlink:href="2_Images/2_ImgID6.png"/>
  </g>
  <g style="clip-path:url(#id6)">
   <image x="-12558.12" y="-4975.04" width="7000.12" height="7000.12" xlink:href="2_Images/2_ImgID7.png"/>
  </g>
 </g>
</svg>
