<?xml version="1.0" encoding="UTF-8"?>
<!DOCTYPE svg PUBLIC "-//W3C//DTD SVG 1.1//EN" "http://www.w3.org/Graphics/SVG/1.1/DTD/svg11.dtd">
<!-- Creator: CorelDRAW -->
<svg xmlns="http://www.w3.org/2000/svg" xml:space="preserve" width="75mm" height="75mm" version="1.1" style="shape-rendering:geometricPrecision; text-rendering:geometricPrecision; image-rendering:optimizeQuality; fill-rule:evenodd; clip-rule:evenodd"
viewBox="0 0 7500 7500"
 xmlns:xlink="http://www.w3.org/1999/xlink"
 xmlns:xodm="http://www.corel.com/coreldraw/odm/2003">
 <defs>
  <style type="text/css">
   <![CDATA[
    .fil0 {fill:#024932}
   ]]>
  </style>
   <clipPath id="id0">
    <rect x="-22133.29" y="-10748.57" width="6999.9" height="6999.9"/>
   </clipPath>
   <clipPath id="id1">
    <rect x="-13540.2" y="-11602.69" width="6999.9" height="6999.9"/>
   </clipPath>
   <clipPath id="id2">
    <rect x="-11339.59" y="-8622.67" width="6999.9" height="6999.9"/>
   </clipPath>
   <clipPath id="id3">
    <rect x="-10500.18" y="-9167.46" width="6999.9" height="6999.9"/>
   </clipPath>
   <clipPath id="id4">
    <rect x="3762.2" y="-9284.42" width="7000.09" height="7000.09"/>
   </clipPath>
   <clipPath id="id5">
    <rect x="-12558.12" y="-4975.01" width="7000.09" height="7000.09"/>
   </clipPath>
 </defs>
 <g id="Layer_x0020_1">
  <metadata id="CorelCorpID_0Corel-Layer"/>
  <g style="clip-path:url(#id0)">
   <image x="-22133.29" y="-10748.59" width="6999.92" height="6999.92" xlink:href="3_Images/3_ImgID1.png"/>
  </g>
  <g style="clip-path:url(#id1)">
   <image x="-13540.2" y="-11602.72" width="6999.93" height="6999.93" xlink:href="3_Images/3_ImgID2.png"/>
  </g>
  <g style="clip-path:url(#id2)">
   <image x="-11339.59" y="-8622.69" width="6999.92" height="6999.92" xlink:href="3_Images/3_ImgID3.png"/>
  </g>
  <g style="clip-path:url(#id3)">
   <image x="-10500.18" y="-9167.48" width="6999.92" height="6999.92" xlink:href="3_Images/3_ImgID4.png"/>
  </g>
  <g style="clip-path:url(#id4)">
   <image x="3762.2" y="-9284.45" width="7000.12" height="7000.12" xlink:href="3_Images/3_ImgID5.png"/>
  </g>
  <g style="clip-path:url(#id5)">
   <image x="-12558.12" y="-4975.04" width="7000.12" height="7000.12" xlink:href="3_Images/3_ImgID6.png"/>
  </g>
  <path class="fil0" d="M1059.2 6471.46c0,-233.44 204.32,-395.25 370.74,-463.22 234.94,-95.97 619.39,-97.34 914.39,-97.34 417.53,0 854.55,121.88 1134.7,259.85 20.44,10.09 37.02,16.62 56.51,25.53 247.66,113.18 532.15,340.9 630.96,599.5 12.38,32.34 9.8,43.51 23.54,72.13l-2638.85 0.19c-261.95,1.66 -491.99,-170.84 -491.99,-396.64zm2912.11 -273.45c49.48,-11.53 83.96,-36.54 134.59,-56.81 46.56,-18.64 92.25,-38.68 147.22,-57.88 506.65,-176.62 1310.55,-248.31 1791.41,-85.47 91.99,31.13 196.77,92.95 261.69,162.1 313.41,333.83 49,710.69 -352.32,708.15l-1531.42 -0.19c-74.05,-317.83 -223.56,-472.02 -451.17,-669.9zm-2269.55 -505.88c-196.22,0 -171.5,14.52 -328.11,-68.34 41.44,-177.98 230.7,-239.1 401.61,-295.66 229.05,-75.78 500.72,-91.11 500.72,-210.22 0,-86.36 -60.75,-123.01 -150.39,-123.01 102.72,-440.86 111.01,-718.17 169.96,-1142.55 47.01,-338.29 41.3,-631.92 431.64,-908.23 345.25,-244.38 644.18,-183.85 1025.35,-184.66l396.5 -6.78c517.67,0 891.61,310.84 1006.19,716.44 36,127.29 32.46,229.04 52.36,371.51l92.14 782.82c8.29,59.06 18.71,119.96 30.8,187.97 11.68,65.62 33.93,122.39 35.29,183.48 -93.47,2.06 -136.72,37.17 -136.72,123.01 0,144.13 232.59,109.53 490.26,207.02 88.9,33.6 166.12,64.95 248.43,107.02 51.13,26.16 59.02,37.8 99.29,78.48 40.63,41 50.69,49.74 50.69,127.03 -131.64,35.15 12.42,54.67 -341.78,54.67 -215.68,0 -407.33,-53.45 -566.56,-117.04 -485.99,-193.98 -376.82,-402.14 -376.82,-990.36 0,-113.95 -0.26,-227.9 0.03,-341.82 0.45,-171.02 9.69,-232.4 -136.75,-232.4 -69.05,0 -95.68,101.24 -95.68,177.73l0 847.66c0,168.11 17.64,316.55 84.33,421.51 60.57,95.35 101.54,130.57 191.72,191.1 16.07,10.8 25.98,16.36 41.19,27.16l38.21 30.13c-200.46,0 -487.09,73.1 -644.3,121.32 -100.65,30.88 -185.9,63.33 -281.51,101.32 -476.99,189.59 -73.28,143.06 -818.89,-104.89 -328.63,-109.27 -443.58,-83.82 -647.87,-131.42 17.43,-15.14 -0.25,-0.7 23.8,-17.16 13.64,-9.33 20.38,-13.27 32.79,-21.93l105.48 -85.95c88.87,-80.72 166.05,-214.75 166.05,-353.46l0 -1121.11c0,-89.23 -188.78,-133.37 -216.08,2.65 -20.56,102.35 28.63,1017.11 -22.51,1180.65 -79.1,253.07 -602.22,416.31 -950.86,416.31zm2009.78 -5058.57c377.78,0 722.25,177.88 888.96,519.22 395.43,809.64 -437.98,1667.69 -1240.07,1294.78 -452.86,-210.56 -692.37,-746.13 -487.05,-1230.31 54.12,-127.69 135.36,-259 244.41,-343.48 84.88,-65.76 77.52,-79.76 210.63,-144.82 98.81,-48.3 235.64,-95.39 383.12,-95.39zm-1134.78 888.67c0,257.08 35.74,458.65 161.22,659.11 24.58,39.27 46.31,68.96 72.99,104.7l172.49 183c18.9,17.24 24.47,22.95 43.18,38.83 28.89,24.42 30.62,9.65 42.3,53.42 -130.94,0 -355.27,117.3 -440.41,174.81 -126.78,85.63 -229.49,184.81 -319.46,309.44 -263.05,364.3 -226.4,779.77 -293.63,1251.31l-86.95 541.95c-10.13,45.64 -18.75,75.08 -29.55,120.84 -12.75,53.79 -10.98,85.18 -55.23,108.83l-225.58 75.19c-140.22,50.52 -295.25,126.67 -381.61,247.29 -215.23,300.63 2.06,355.49 27.74,451.57 -145.3,38.8 -376.82,301.3 -416.35,486.06 -52.91,247.18 47.38,475.12 240.43,619.58 117.2,87.72 261.58,152.19 463.03,152.19l4402.34 0c372.7,0 710.95,-281.25 710.95,-587.89 0,-203.15 -15.07,-276.2 -142.18,-445.72 -47.08,-62.77 -205.65,-203.92 -281.66,-224.22 19.49,-72.94 109.61,-95.9 119.78,-207.64 6.59,-72.8 -56.78,-184.28 -89.42,-232.84 -110.19,-164.02 -335.11,-243.12 -527.73,-306.27 -140.77,-46.16 -124.6,-0.55 -187.48,-318.35 -67.35,-340.17 -69.89,-568.88 -113.92,-884.14 -14.81,-105.85 -17.02,-214.53 -33.05,-308.74 -58.87,-345.65 -223.74,-639.02 -505.91,-833.96 -66.91,-46.23 -134.66,-77.84 -211.55,-116.56 -44.07,-22.15 -67.68,-32.35 -116.79,-47.27 -38.46,-11.72 -103.75,-22.4 -138.6,-39.13 39.24,-58.65 327.49,-231.29 442.58,-623.85 226.73,-773.42 -350.96,-1522.65 -1126.19,-1522.65 -647.87,0 -1175.78,555.88 -1175.78,1121.11z"/>
 </g>
</svg>
