<?xml version="1.0" encoding="UTF-8"?>
<!DOCTYPE svg PUBLIC "-//W3C//DTD SVG 1.1//EN" "http://www.w3.org/Graphics/SVG/1.1/DTD/svg11.dtd">
<!-- Creator: CorelDRAW -->
<svg xmlns="http://www.w3.org/2000/svg" xml:space="preserve" width="75mm" height="75mm" version="1.1" style="shape-rendering:geometricPrecision; text-rendering:geometricPrecision; image-rendering:optimizeQuality; fill-rule:evenodd; clip-rule:evenodd"
viewBox="0 0 7500 7500"
 xmlns:xlink="http://www.w3.org/1999/xlink"
 xmlns:xodm="http://www.corel.com/coreldraw/odm/2003">
 <defs>
  <style type="text/css">
   <![CDATA[
    .fil0 {fill:#024932}
   ]]>
  </style>
   <clipPath id="id0">
    <rect x="-13540.2" y="-11602.69" width="6999.9" height="6999.9"/>
   </clipPath>
   <clipPath id="id1">
    <rect x="-11339.59" y="-8622.67" width="6999.9" height="6999.9"/>
   </clipPath>
   <clipPath id="id2">
    <rect x="-10500.18" y="-9167.46" width="6999.9" height="6999.9"/>
   </clipPath>
   <clipPath id="id3">
    <rect x="3762.2" y="-9284.42" width="7000.09" height="7000.09"/>
   </clipPath>
   <clipPath id="id4">
    <rect x="-12558.12" y="-4975.01" width="7000.09" height="7000.09"/>
   </clipPath>
 </defs>
 <g id="Layer_x0020_1">
  <metadata id="CorelCorpID_0Corel-Layer"/>
  <g id="_105553583763872">
   <path class="fil0" d="M1233.68 4530.03l0 -2775.35c0,-198.48 129.64,-328.12 328.12,-328.12l4374.94 0c198.48,0 328.12,129.64 328.12,328.12l0 2775.35c0,501.72 -617.57,247.1 -763.13,344.26 -95.76,63.9 -57.19,338.97 -57.19,489.71 0,186.83 0.03,373.69 0.03,560.51l-276.95 -242.58c-39.06,-39.69 -56.73,-47.95 -95.51,-82.21 -61.81,-54.63 -117.08,-107.73 -177.69,-164.11l-560.56 -492.17c-115.91,-103.28 -59.5,-85.6 -270.12,-85.32l-2447.45 0.21c-224.24,1.4 -382.61,-89.5 -382.61,-328.3zm-218.75 -2843.71l0 2912.06c0,122.54 50.86,202.65 103.57,279.23 194.7,282.87 635.59,199.29 962.83,199.29l1941.49 -0.11c128.91,-1.05 113.44,-19.32 270.06,126.39l615.22 546.86c42.17,39.24 54.77,53.52 101.01,90.44 41.51,33.11 63.94,64.61 107.34,97.72 66.33,50.64 373.31,355.45 423.81,355.45 71.15,0 136.71,-16.59 136.71,-109.37l0 -1107.38 328.12 0c242.79,0 478.51,-235.72 478.51,-478.52l0 -2912.06c0,-242.82 -235.72,-478.51 -478.51,-478.51l-4511.64 0c-242.79,0 -478.52,235.69 -478.52,478.51z"/>
   <path class="fil0" d="M2546.16 3053.47c0,256.76 -0.28,382.27 118.33,619.95 36.58,73.32 63.53,114.69 110.04,177.06l87.43 103.98c649,671.85 1529.86,320.7 1529.86,151.73 0,-59.92 -44.59,-109.38 -123.02,-109.38 -102.97,0 -509,321.58 -1088.38,-60.02 -363.54,-239.47 -513.83,-730.44 -335.64,-1172.59 247.48,-614.06 1047.92,-796.24 1544.03,-363.96l115.96 116.48c28.28,31.57 29.78,32.55 54.11,68.95 218.08,326.3 232.95,759.87 16.41,1088.76 -25.37,38.54 -164.6,194.18 -6.44,256.09 180.11,70.56 383.52,-483.51 383.52,-726.65 0,-394.55 -93.27,-660.09 -365.49,-933.3 -538.19,-540.08 -1542.82,-420.83 -1913.46,322.31 -53.38,106.99 -127.26,309.01 -127.26,460.59z"/>
   <path class="fil0" d="M3516.84 3354.26c-80.99,-54.25 -246.09,-287.1 -341.77,-287.1 -83.93,0 -139.09,80.32 -111.09,150.74 15.75,39.62 369.66,423.46 452.86,423.46 72.03,0 176.32,-128.45 222.17,-174.3 89.88,-89.91 584.46,-544.56 584.46,-632.33 0,-50.3 -41.02,-109.38 -123.02,-109.38 -80.92,0 -287.63,239.78 -352.06,304.22 -79.87,79.83 -253.43,272.36 -331.55,324.69z"/>
  </g>
  <g style="clip-path:url(#id0)">
   <image x="-13540.2" y="-11602.72" width="6999.93" height="6999.93" xlink:href="4_Images/4_ImgID1.png"/>
  </g>
  <g style="clip-path:url(#id1)">
   <image x="-11339.59" y="-8622.69" width="6999.92" height="6999.92" xlink:href="4_Images/4_ImgID2.png"/>
  </g>
  <g style="clip-path:url(#id2)">
   <image x="-10500.18" y="-9167.48" width="6999.92" height="6999.92" xlink:href="4_Images/4_ImgID3.png"/>
  </g>
  <g style="clip-path:url(#id3)">
   <image x="3762.2" y="-9284.45" width="7000.12" height="7000.12" xlink:href="4_Images/4_ImgID4.png"/>
  </g>
  <g style="clip-path:url(#id4)">
   <image x="-12558.12" y="-4975.04" width="7000.12" height="7000.12" xlink:href="4_Images/4_ImgID5.png"/>
  </g>
 </g>
</svg>
