<?xml version="1.0" encoding="UTF-8"?>
<!DOCTYPE svg PUBLIC "-//W3C//DTD SVG 1.1//EN" "http://www.w3.org/Graphics/SVG/1.1/DTD/svg11.dtd">
<!-- Creator: CorelDRAW -->
<svg xmlns="http://www.w3.org/2000/svg" xml:space="preserve" width="75mm" height="75mm" version="1.1" style="shape-rendering:geometricPrecision; text-rendering:geometricPrecision; image-rendering:optimizeQuality; fill-rule:evenodd; clip-rule:evenodd"
viewBox="0 0 7500 7500"
 xmlns:xlink="http://www.w3.org/1999/xlink"
 xmlns:xodm="http://www.corel.com/coreldraw/odm/2003">
 <defs>
  <style type="text/css">
   <![CDATA[
    .fil0 {fill:#024932}
   ]]>
  </style>
   <clipPath id="id0">
    <rect x="-11339.59" y="-8622.67" width="6999.9" height="6999.9"/>
   </clipPath>
   <clipPath id="id1">
    <rect x="-10500.18" y="-9167.46" width="6999.9" height="6999.9"/>
   </clipPath>
   <clipPath id="id2">
    <rect x="3762.2" y="-9284.42" width="7000.09" height="7000.09"/>
   </clipPath>
   <clipPath id="id3">
    <rect x="-12558.12" y="-4975.01" width="7000.09" height="7000.09"/>
   </clipPath>
 </defs>
 <g id="Layer_x0020_1">
  <metadata id="CorelCorpID_0Corel-Layer"/>
  <g style="clip-path:url(#id0)">
   <image x="-11339.59" y="-8622.69" width="6999.92" height="6999.92" xlink:href="5_Images/5_ImgID1.png"/>
  </g>
  <g style="clip-path:url(#id1)">
   <image x="-10500.18" y="-9167.48" width="6999.92" height="6999.92" xlink:href="5_Images/5_ImgID2.png"/>
  </g>
  <g style="clip-path:url(#id2)">
   <image x="3762.2" y="-9284.45" width="7000.12" height="7000.12" xlink:href="5_Images/5_ImgID3.png"/>
  </g>
  <g style="clip-path:url(#id3)">
   <image x="-12558.12" y="-4975.04" width="7000.12" height="7000.12" xlink:href="5_Images/5_ImgID4.png"/>
  </g>
  <path class="fil0" d="M2327.41 6375.69l2843.73 0 0 109.38 -2843.73 0 0 -109.38zm738.27 -656.22l1367.19 0c26.3,112.96 130.16,358.95 136.72,437.49l-1640.63 0c6.55,-78.54 110.41,-324.53 136.72,-437.49zm-2488.25 -410.16l0 -136.72 6343.68 0c0,137.94 25.09,328.11 -191.43,328.11l-5960.82 0c-119.62,0 -191.43,-71.76 -191.43,-191.39zm4703.09 -792.98c139.11,0 248.31,56.59 347.97,130.53 94.2,69.93 158.31,191.58 185.2,306.97l-1066.38 0c25.42,-109.2 89.45,-234.94 177.25,-301.26 101.86,-76.96 216.96,-136.24 355.96,-136.24zm-2953.11 0c192.27,0 358.98,106.33 462.54,262.09 33.75,50.77 55.34,109.72 70.67,175.41l-1066.38 0c60.27,-258.74 283.01,-437.5 533.17,-437.5zm2624.96 -546.84c0,-82.23 54.3,-185.16 98.66,-229.48 303.02,-303.02 759.38,158.53 458.94,458.93 -127.7,127.73 -331.24,127.73 -458.94,0 -44.36,-44.32 -98.66,-147.25 -98.66,-229.45zm-2953.07 0c0,-264.37 340.56,-446.52 557.59,-229.48 300.37,300.37 -155.84,762.07 -458.97,458.93 -44.32,-44.32 -98.62,-147.25 -98.62,-229.45zm2734.34 -41.04c0,123.31 -1.91,182.74 58.91,296.54 65.47,122.5 100.73,100.61 118.82,168.29 -58.62,31.02 -98.26,53.57 -147.15,98.96 -45.57,42.26 -79.43,80.28 -114.72,131.38 -285.05,412.55 189.84,330.21 -790.85,330.21l0 -1859.32 3062.46 0 0 1859.32 -847.65 0c-52.61,0 -33.27,-43.77 -76.59,-169.47 -59.39,-172.28 -190.25,-308 -347.24,-391.08 28.45,-106.47 177.73,-93.61 177.73,-464.83 0,-252.22 -253.62,-505.83 -505.84,-505.83l-82.04 0c-252.22,0 -505.84,253.61 -505.84,505.83zm-2953.07 0c0,123.31 -1.92,182.74 58.91,296.54 15.51,28.99 33.93,58.98 54.34,82.38 33.41,38.28 50.88,35.07 64.47,85.91 -156.98,83.08 -287.84,218.8 -347.23,391.08 -43.33,125.7 -23.98,169.47 -76.59,169.47l-957.04 0 0 -1859.32 3062.46 0 0 1859.32 -519.5 0c-72.8,0 -11.31,-112.15 -161.96,-330.21 -74.94,-108.47 -147.92,-170.03 -261.87,-230.34 28.44,-106.47 177.72,-93.61 177.72,-464.83 0,-252.22 -253.65,-505.83 -505.83,-505.83l-82.05 0c-252.21,0 -505.83,253.61 -505.83,505.83zm3499.95 -1490.2c57.1,0 153.19,24.24 193.53,38.86 68.52,24.91 99.51,50.88 154.44,91.67 94.2,69.89 158.31,191.57 185.2,306.96l-1066.38 0c13.96,-59.98 34.82,-119.33 65.25,-167.15 103.12,-161.99 275.02,-270.34 467.96,-270.34zm-2953.11 0c57.1,0 153.22,24.24 193.56,38.86 68.53,24.91 99.48,50.88 154.44,91.67 94.21,69.89 158.31,191.57 185.21,306.96l-1066.38 0c60.27,-258.74 283.01,-437.49 533.17,-437.49zm2624.96 -546.88c0,-264.37 340.56,-446.52 557.6,-229.49 300.4,300.41 -155.84,762.11 -458.94,458.98 -44.36,-44.36 -98.66,-147.3 -98.66,-229.49zm-2953.07 0c0,-264.37 340.56,-446.52 557.59,-229.49 300.37,300.41 -155.84,762.11 -458.97,458.98 -44.32,-44.36 -98.62,-147.3 -98.62,-229.49zm2734.34 -41c0,370.25 149.21,357.99 177.73,464.83 -113.99,60.31 -186.94,121.87 -261.87,230.33 -285.05,412.55 189.84,330.21 -790.85,330.21l0 -1859.36 2871.03 0c119.63,0 191.43,71.81 191.43,191.43l0 1667.93 -847.65 0c-72.76,0 -11.31,-112.15 -161.96,-330.21 -35.29,-51.1 -69.15,-89.12 -114.72,-131.41 -48.89,-45.39 -88.53,-67.9 -147.15,-98.92 28.45,-106.48 177.73,-93.66 177.73,-464.83 0,-252.22 -253.62,-505.84 -505.84,-505.84l-82.04 0c-252.22,0 -505.84,253.62 -505.84,505.84zm-2953.07 0c0,370.25 149.17,357.99 177.72,464.83 -192.57,101.9 -325.97,271.26 -375.93,485.38 -9.73,41.78 0.07,75.16 -47.89,75.16l-957.04 0 0 -1667.93c0,-119.62 71.81,-191.43 191.43,-191.43l2871.03 0 0 1859.36 -519.5 0c-47.97,0 -38.17,-33.38 -47.94,-75.16 -22.95,-98.4 -58.54,-174.74 -114.02,-255.05 -74.94,-108.46 -147.92,-170.02 -261.87,-230.33 18.16,-68.05 49.26,-43 113.99,-159.45 195.41,-351.55 -70.81,-811.22 -442.1,-811.22l-82.05 0c-252.21,0 -505.83,253.62 -505.83,505.84zm-1421.87 -710.94l0 4238.22c0,169.99 182.59,338.8 354.83,342.45 648,13.74 1445.99,-0.63 2106.08,-0.63 -6.56,78.51 -110.41,324.5 -136.72,437.49 -113.95,0 -227.9,0.26 -341.81,-0.03 -274.95,-0.7 -232.4,-6.53 -232.4,437.53 0,66.13 43.21,109.34 109.38,109.34l3062.46 0c153.08,0 109.34,-204.39 109.34,-437.49 0,-124.49 -109.27,-109.72 -232.39,-109.38 -113.92,0.29 -227.87,0.03 -341.82,0.03 -26.3,-112.99 -130.16,-358.98 -136.72,-437.49l2092.42 0.63c182.84,-1.07 368.49,-166.75 368.49,-342.45l0 -4238.22c0,-160.26 -181.52,-341.78 -341.78,-341.78l-6097.58 0c-160.26,0 -341.78,181.52 -341.78,341.78z"/>
 </g>
</svg>
