<?xml version="1.0" encoding="UTF-8"?>
<!DOCTYPE svg PUBLIC "-//W3C//DTD SVG 1.1//EN" "http://www.w3.org/Graphics/SVG/1.1/DTD/svg11.dtd">
<!-- Creator: CorelDRAW -->
<svg xmlns="http://www.w3.org/2000/svg" xml:space="preserve" width="75mm" height="75mm" version="1.1" style="shape-rendering:geometricPrecision; text-rendering:geometricPrecision; image-rendering:optimizeQuality; fill-rule:evenodd; clip-rule:evenodd"
viewBox="0 0 7500 7500"
 xmlns:xlink="http://www.w3.org/1999/xlink"
 xmlns:xodm="http://www.corel.com/coreldraw/odm/2003">
 <defs>
  <style type="text/css">
   <![CDATA[
    .fil0 {fill:#024932}
   ]]>
  </style>
   <clipPath id="id0">
    <rect x="-14381.19" y="-1706.31" width="6999.9" height="6999.9"/>
   </clipPath>
   <clipPath id="id1">
    <rect x="3762.2" y="-9284.42" width="7000.09" height="7000.09"/>
   </clipPath>
   <clipPath id="id2">
    <rect x="-12558.12" y="-4975.01" width="7000.09" height="7000.09"/>
   </clipPath>
 </defs>
 <g id="Layer_x0020_1">
  <metadata id="CorelCorpID_0Corel-Layer"/>
  <g style="clip-path:url(#id0)">
   <image x="-14381.19" y="-1706.33" width="6999.92" height="6999.92" xlink:href="6_Images/6_ImgID1.png"/>
  </g>
  <g style="clip-path:url(#id1)">
   <image x="3762.2" y="-9284.45" width="7000.12" height="7000.12" xlink:href="6_Images/6_ImgID2.png"/>
  </g>
  <g style="clip-path:url(#id2)">
   <image x="-12558.12" y="-4975.04" width="7000.12" height="7000.12" xlink:href="6_Images/6_ImgID3.png"/>
  </g>
  <path class="fil0" d="M6237.52 3901.13c308.28,0 492.16,193.4 492.16,492.16 -138.84,73.5 -193.54,118.82 -395.49,138.35 -162.68,15.75 -438.89,-47.35 -510.5,-135.59 -67.31,-82.95 66.6,-494.92 413.83,-494.92zm1011.7 -229.74l0 191.1c-11.62,118.36 -45.08,232.43 -101.33,333.79 -28.45,51.27 -61.14,104.5 -95.76,150.35 -30.27,40.15 -71.54,94.82 -107.58,124.81 -179.87,149.52 -368.83,263.65 -693.38,263.65 -33.95,145.85 -225.33,465.25 -310.44,578.19 -34.62,45.92 -58.7,78.33 -93.66,125.13 -35.53,47.63 -62.65,72.59 -99.72,119.03l-474.94 413.69c-83.58,58.03 -181.02,116.83 -274.4,163.07 -337.01,166.87 -582.98,217.24 -633.52,241.49 0,173.18 0,346.36 0,519.54 0,79.06 10.53,190.39 -12.6,247.16 -21.21,52.08 -81.24,108.29 -151.44,108.29l-902.36 0c-70.21,0 -130.23,-56.21 -151.44,-108.29 -23.14,-56.77 -12.6,-168.1 -12.6,-247.16 0,-173.18 0,-346.36 0,-519.54 -55.51,-26.63 -298.83,-75.49 -642.66,-245.97 -220.68,-109.45 -600.66,-392.07 -746.09,-580.08 -37.38,-48.34 -62.79,-72.56 -99.71,-119.04 -35.42,-44.55 -58.48,-78.26 -93.62,-125.16 -82.85,-110.45 -271.5,-428.14 -304.6,-570.35 -405.23,0 -740.17,-220.46 -897.99,-537.55 -92.29,-185.47 -99.85,-305.72 -100.06,-505.57l0 -9.59c0,-469.52 444.46,-916.01 998.05,-916.01 61.77,-265.26 395.45,-716.75 598.1,-919.43 202.72,-202.69 653.9,-536.27 919.44,-598.11 0,-281.99 104.3,-521.7 290.28,-707.76 516.77,-516.91 1362.78,-274.71 1594.75,299.25 50.86,125.75 83.69,231.27 83.69,408.51 128.69,29.96 402,190.96 506.06,259.56 294.8,194.42 563.07,463.21 757.38,760.15 69.48,106.22 224.91,372.53 254.1,497.83 607.84,0 955.03,451.22 998.05,905.02zm-6480.37 708.25c0,-144.76 54.11,-247.87 120.68,-330.5 219.24,-272.23 754.06,-161.07 796.45,248.88 5.46,52.6 14.31,66.71 -11.17,98.03 -104.85,128.94 -486.35,183.15 -734.43,85.47 -36.57,-14.42 -171.53,-73.99 -171.53,-101.88zm2365.2 1326.13c-96.29,-8.02 -191.42,-138.25 -191.42,-246.08l0 -1312.48c0,-84.18 51.59,-160.76 99.23,-201.57 61.84,-52.98 614.41,-263.26 680.07,-263.26 144.73,0 146.72,19.21 283.01,72.41 81.16,31.68 147.8,53.03 228.72,85.75 113.89,46.03 322.24,99.22 322.24,306.67l0 1326.16c0,67.73 -83.02,223.4 -191.41,232.4l0 -1093.74c0.03,-122.67 30.31,-273.41 -95.69,-273.41 -63.84,0 -95.72,31.88 -95.72,95.69l0 2624.96 -328.12 0 0 -943.34c0,-131.32 -191.38,-131.32 -191.38,0l0 943.34 -328.12 0 0 -2624.96c0,-63.81 -31.89,-95.69 -95.72,-95.69 -122.22,0 -95.73,140.1 -95.69,259.76l0 1107.39zm2912.06 -2201.12c0,-371.55 437.49,-281.39 437.49,-68.35 0,76.79 2.73,134.43 -51.9,194.17 -126.6,138.5 -385.59,42.56 -385.59,-125.82zm-4785.1 191.41c-370.85,0 -286.78,-468.36 -18.33,-445.79 311.77,26.22 241.21,445.79 18.33,445.79zm4580.04 -218.74c0,150.56 64.64,213.56 123.02,300.75 -122.81,32.79 -315.91,263.4 -328.12,410.16 -88.93,-23.73 -150.39,-280.49 -150.39,-355.46 0,-267.32 29.99,-472.04 256.44,-673.25 589.67,-524.05 1529.44,67.31 1270.06,846.22 -15.54,46.72 -24.22,64.19 -45.05,105.35 -9.52,18.83 -12.74,26.56 -23.93,44.45 -12.5,19.88 -23.45,32.34 -35.67,46.37 -38.01,-163.27 -200.02,-385.97 -341.77,-423.84 63.59,-94.96 123.02,-129.43 123.02,-314.44 0,-121.62 -53.93,-214.2 -115.46,-280.97 -246.12,-267.19 -732.15,-100.07 -732.15,294.66zm-5031.18 -13.69c0,91.32 6.44,122.25 40.5,191.9 48.89,100.03 45.95,67.9 82.52,122.54 -139.78,37.34 -302.32,254.51 -341.77,423.84 -9.97,-11.48 -19.87,-22.57 -30.3,-38.08 -10.64,-15.89 -16.63,-28.03 -24.71,-43.64 -396.72,-767.58 535.14,-1533.51 1226.83,-953.39 257.39,215.88 324.24,638.04 167.68,952.76 -1.78,3.57 -26.1,41.96 -26.24,42.1 -22.3,23.84 -3.71,16.38 -41.79,26.57 -12.22,-146.76 -205.31,-377.37 -328.12,-410.16 58.37,-87.19 123.02,-150.19 123.02,-300.75 0,-394.73 -486.04,-561.85 -732.16,-294.66 -61.52,66.77 -115.46,159.35 -115.46,280.97zm2898.38 -902.32c115.04,0 204.12,3.43 298.16,84.63 5.42,4.72 24.64,22.01 28.73,25.97l26.78 27.89c243.94,268.8 42.73,695.48 -312.65,695.48 -355.39,0 -556.6,-426.68 -312.65,-695.48 2.87,-3.15 15.26,-16.52 19.88,-21.14 65.34,-65.34 151.93,-117.35 251.75,-117.35zm-574.2 410.12c0,259.39 182.17,517.02 369.14,560.56l-124.64 53.09c-297.84,107.31 -640.98,195.65 -640.98,603.15l0 1230.44c0,259.73 187.22,457.09 396.48,505.84l0 246.12c-32.24,-15.47 -101.4,-31.43 -145.25,-46.16 -52.85,-17.75 -96.32,-31.15 -142.03,-49.39 -263.16,-105.17 -407.39,-186.26 -628.97,-355.38 -180.53,-137.76 -347.62,-319.13 -484.15,-500.21 -81.41,-108.05 -248.81,-372.68 -281.22,-511.73 90.37,-7.53 238.76,-79.14 303.76,-120.09 616.9,-388.52 613.75,-1289.8 -0.14,-1673.78 -65.98,-41.22 -212.03,-112.55 -303.62,-120.18 24.29,-104.34 170.3,-359.34 230.29,-439.63 49.56,-66.33 89.6,-122.99 140.6,-187.49l334.07 -335.86c151.26,-117.49 451.03,-334 634.85,-376.84 28.95,347.55 469.66,765.62 929.69,765.62 377.33,0 684.14,-175.81 864.28,-461.86 40.95,-64.99 112.56,-213.39 120.08,-303.76 179.31,41.79 580.92,313.25 714.55,447.54 238.28,239.54 267.71,257.81 458.53,553.17 55.37,85.68 144.93,245.59 166.74,339.11 -91.6,7.63 -237.65,78.96 -303.62,120.18 -614.66,384.47 -614.66,1289.21 0,1673.68 65.97,41.23 212.02,112.56 303.62,120.19 -31.57,135.45 -197.57,400.92 -275.34,503.92 -336.52,445.68 -720.4,731.91 -1250.71,909.43 -45.04,15.08 -122.36,33.56 -155.57,49.52l0 -246.12c209.26,-48.75 396.47,-246.11 396.47,-505.84l0 -1230.44c0,-207.34 -124.21,-381.85 -259.27,-451.64 -77.77,-40.14 -162.09,-68.49 -252.38,-103.07l-253.96 -101.53c226.06,-52.68 481.03,-432.7 314.57,-806.74 -55.26,-124.11 -176.53,-257.28 -306.24,-308.98 -184.03,-73.29 -316.36,-78.12 -498.95,-3.81 -218.19,88.79 -370.68,317.76 -370.68,558.97zm587.88 -1585.89c148.65,0 291.51,46.13 371.66,147.87 66.82,84.8 120.51,197.19 120.51,344.29 -42.14,11.27 -349.51,242.62 -746.37,90.12 -38.57,-14.8 -59.85,-23.66 -93.59,-43.12 -35.42,-20.47 -52.6,-37.06 -89.7,-47 0,-266.84 187.98,-492.16 437.49,-492.16zm-191.41 -396.48l0 -68.35c0,-99.29 120.4,-191.41 218.75,-191.41 98.35,0 218.74,92.12 218.74,191.41l0 68.35c0,99.16 -94.84,191.42 -246.08,191.42 -85.4,0 -191.41,-106.05 -191.41,-191.42zm-205.06 -41.02c0,165.97 55.79,214.03 123.02,314.44 -78.92,18.41 -165.86,110.07 -214.93,167.86 -32.13,37.83 -50.61,75.81 -72.34,119.07 -62.76,124.91 -18.27,100.34 -68.18,136.91 -10.89,-46.72 -47.57,-83.44 -82.25,-177.51 -28.46,-77.14 -33.25,-128.42 -47.36,-227.01 -38.07,-266.24 135.17,-563.35 364.38,-714.2 368.62,-242.62 891.23,-113.15 1109.66,280.14 192.99,347.47 46.31,796.69 -59.29,824.9 -3.22,-143.43 -209.15,-382.44 -328.12,-410.16 67.24,-100.41 123.03,-148.47 123.03,-314.44 0,-119.45 -57.19,-213.07 -114.73,-281.74 -147.87,-176.33 -478.09,-168.14 -618.2,-0.04 -57.47,68.95 -114.69,162.09 -114.69,281.78z"/>
 </g>
</svg>
