<?xml version="1.0" encoding="UTF-8"?>
<!DOCTYPE svg PUBLIC "-//W3C//DTD SVG 1.1//EN" "http://www.w3.org/Graphics/SVG/1.1/DTD/svg11.dtd">
<!-- Creator: CorelDRAW -->
<svg xmlns="http://www.w3.org/2000/svg" xml:space="preserve" width="75mm" height="75mm" version="1.1" style="shape-rendering:geometricPrecision; text-rendering:geometricPrecision; image-rendering:optimizeQuality; fill-rule:evenodd; clip-rule:evenodd"
viewBox="0 0 7500 7500"
 xmlns:xlink="http://www.w3.org/1999/xlink"
 xmlns:xodm="http://www.corel.com/coreldraw/odm/2003">
 <defs>
  <style type="text/css">
   <![CDATA[
    .fil0 {fill:#024932}
   ]]>
  </style>
   <clipPath id="id0">
    <rect x="3762.2" y="-9284.42" width="7000.09" height="7000.09"/>
   </clipPath>
   <clipPath id="id1">
    <rect x="-12558.12" y="-4975.01" width="7000.09" height="7000.09"/>
   </clipPath>
 </defs>
 <g id="Layer_x0020_1">
  <metadata id="CorelCorpID_0Corel-Layer"/>
  <g id="_105553582298432">
   <path class="fil0" d="M673.13 4543.68l0 -2734.33c0,-162.79 64.75,-285.42 142.13,-377.4 73.12,-86.94 238.66,-169.47 363.75,-169.47l5140.55 0c264.28,0 505.85,248.04 505.85,546.87l0 2734.33c0,156.03 -66.57,318.39 -174.13,413.8 -150.53,133.56 -274.81,133.14 -454.78,133.07l-1463.54 -0.63c-126.7,0.49 -138.66,28.84 -196.69,104.05l-753.02 942.29c-28.24,31.75 -2.73,22.37 -47.67,34.37 -13.19,-49.52 -479.52,-614.13 -510.11,-651.97 -90.93,-112.24 -174.69,-210.1 -263.2,-324.69 -112.1,-145.18 -171.92,-103.42 -484.46,-103.42 -391.93,0 -783.85,-0.11 -1175.78,0 -252.41,0.07 -445.01,-35.42 -574.72,-300.26 -32.13,-65.63 -54.18,-149.28 -54.18,-246.61zm-218.75 -2761.67l0 2775.36c0,191.72 78.3,368.4 167.89,474.66 104.34,123.76 220.61,206.53 398.05,258.19 158.48,46.13 1260.68,20.05 1594.23,19.07 186.86,-0.56 147,-16.52 235.55,92.58l724.59 902.32c26.28,32.13 46.55,57.36 72.52,91.52 118.58,156.07 214.27,-4.69 273.87,-80.6 51.8,-65.94 93.69,-118.72 145.77,-182.35 98.77,-120.71 189.32,-235.79 285.77,-356.82 96.71,-121.38 186.9,-237.61 283.5,-359.06 121.27,-152.46 82.74,-107.59 548.69,-107.59 233.2,0 1128.03,19.88 1281.96,-16.83 172.23,-41.06 288.36,-130.65 396.44,-246.12 89.91,-95.97 180.94,-293.47 180.94,-475.29l0 -2789.04c0,-289.79 -197.22,-558.07 -428.15,-665.62 -80.18,-37.34 -185.07,-72.66 -296.44,-72.66l-5140.55 0c-379.74,0 -724.63,351.92 -724.63,738.28z"/>
   <path class="fil0" d="M2450.47 3026.14c0,-336.42 183.4,-609.8 493.56,-709.55 142.35,-45.74 341.81,-51.73 481.53,7.88 70.49,30.06 125.61,60.72 183.29,103.81 60.41,45.11 103.46,99.12 154.1,133.03 16.98,-12.46 279.05,-415.48 801.88,-241.36 425.31,141.61 592.26,635.66 415.23,993.64 -97.37,196.87 -345.76,406.59 -509.63,570.46 -146.65,146.64 -620.43,597.96 -707.48,727.98 -63.94,-42.8 -958.07,-949.29 -1090.58,-1083.19 -128.34,-129.68 -221.9,-309.12 -221.9,-502.7zm-218.74 -82.04c0,293.12 65.48,512.22 249.37,693.97 74.13,73.25 139.08,137.51 212.3,211.5 40.25,40.67 53.48,68.32 95.24,109.86 102.58,102.06 902.14,914.23 960.63,953.39l1056.42 -1049c39.1,-40.64 52.89,-67.83 95.31,-109.8 253.64,-250.77 365.81,-394.2 365.81,-809.92 0,-328.72 -250.32,-668.56 -560.52,-806.63 -278.91,-124.15 -569.05,-96.11 -834.17,40.81 -53.62,27.68 -77.81,52.07 -122.85,82.24 -87.68,-58.69 -123.24,-95.02 -244.16,-138.63 -349.12,-125.93 -721.65,-55.93 -976.31,189.63 -137.16,132.23 -297.07,371.45 -297.07,632.58z"/>
  </g>
  <g style="clip-path:url(#id0)">
   <image x="3762.2" y="-9284.45" width="7000.12" height="7000.12" xlink:href="7_Images/7_ImgID1.png"/>
  </g>
  <g style="clip-path:url(#id1)">
   <image x="-12558.12" y="-4975.04" width="7000.12" height="7000.12" xlink:href="7_Images/7_ImgID2.png"/>
  </g>
 </g>
</svg>
