<?xml version="1.0" encoding="UTF-8"?>
<!DOCTYPE svg PUBLIC "-//W3C//DTD SVG 1.1//EN" "http://www.w3.org/Graphics/SVG/1.1/DTD/svg11.dtd">
<!-- Creator: CorelDRAW -->
<svg xmlns="http://www.w3.org/2000/svg" xml:space="preserve" width="75mm" height="75mm" version="1.1" style="shape-rendering:geometricPrecision; text-rendering:geometricPrecision; image-rendering:optimizeQuality; fill-rule:evenodd; clip-rule:evenodd"
viewBox="0 0 7500 7500"
 xmlns:xlink="http://www.w3.org/1999/xlink"
 xmlns:xodm="http://www.corel.com/coreldraw/odm/2003">
 <defs>
  <style type="text/css">
   <![CDATA[
    .fil0 {fill:#024932}
   ]]>
  </style>
   <clipPath id="id0">
    <rect x="3762.2" y="-9284.42" width="7000.09" height="7000.09"/>
   </clipPath>
 </defs>
 <g id="Layer_x0020_1">
  <metadata id="CorelCorpID_0Corel-Layer"/>
  <g style="clip-path:url(#id0)">
   <image x="3762.2" y="-9284.45" width="7000.12" height="7000.12" xlink:href="8_Images/8_ImgID1.png"/>
  </g>
  <g id="_105553581971200">
   <path class="fil0" d="M4091.06 2903.05c-2.02,-90.57 -86.14,-210.62 -140.39,-256.08 -238.51,-199.89 -606.21,-130.13 -734.74,160.26 -65.84,148.75 -40.91,447.93 -40.91,629.04 -90.1,-47.68 -136.69,-80.66 -136.69,-218.76l0 -1490.24c0,-148.98 57.05,-232.44 205.06,-232.44 80.27,0 1081.48,670.65 1274.41,790.12 155.71,96.4 162.4,243.4 32.78,339.34l-301.08 191.11c-46.32,30.29 -100.53,82.83 -158.44,87.65zm1537.88 4347.72l-50.51 0c-62.07,-12.79 -113.83,-70.62 -112.28,-134.36 1.99,-80.58 151.98,-503.27 183.56,-617.56 78.09,-282.46 150.35,-552.27 150.35,-916.08l0 -1421.88c0,-113.79 -77.59,-191.41 -191.38,-191.41 -409.77,0 42.43,970.72 -328.15,970.72 -183.83,0 -136.73,-299.57 -136.73,-505.88 0,-125.18 53.51,-464.84 -177.73,-464.84 -228.28,0 -205.06,224.47 -205.06,451.19 0,109.48 -0.78,219.03 0.39,328.54 1.01,93.84 -16.53,190.99 -137.12,190.99 -189.9,0 -136.74,-295.02 -136.74,-505.88 0,-109 54.83,-464.84 -177.72,-464.84 -235.48,0 -205.07,221.44 -205.07,451.19 0,109.48 -0.78,219.03 0.39,328.54 2.76,254.49 -198.69,207.79 -251.65,127.79 -26.1,-39.39 -23.06,-80.89 -22.56,-141.52l0.7 -1668.7c2.14,-324.11 -263.4,-279.27 -337.56,-186.52 -54.48,68.18 -45.62,178.12 -45.58,296.23l0.08 1996.23c0.51,62.61 8.28,106.2 -15.05,149.02 -43.94,80.58 -158.47,98.86 -226.1,23.57 -57.75,-64.25 -32.4,-215.49 -32.4,-336.74l-161.47 221.32c-311.23,458.31 -170.72,528 79.65,1091l122.81 260.01c57.52,113.95 232.48,447.78 232.48,560.52 0,30.64 -48.1,94.77 -111.61,109.35l-51.33 0c-44.49,-10.5 -91.78,-50.2 -133.39,-141.16l-455.44 -980.13c-102.24,-207.48 -136.93,-266.48 -136.93,-519.33 0,-302.17 319.01,-671.12 492.19,-929.73 -574.21,0 -1148.45,0 -1722.69,0 -361.9,0 -627.32,53.98 -880.65,-199.39 -33.79,-33.79 -65.92,-74.71 -92.32,-112.78 -46.59,-67.32 -107.1,-207.75 -107.1,-316.75l0 -3171.9c0,-304.04 324.88,-628.92 628.92,-628.92l5742.25 0c304.04,0 628.92,324.88 628.92,628.92l0 3171.9c0,168.89 -110.25,340.36 -199.42,429.53 -261.07,261.07 -551.88,199.39 -962.71,199.39 0,1038.54 46.63,1229.25 -261.38,2199.58 -23.1,72.84 -45.03,147.78 -71.48,229.33 -29.05,89.53 -76.92,131.14 -125.38,141.44zm-2864.05 -5605.56l0 1654.32c0,54.33 25.71,117.8 45.16,159.91 55.72,120.72 167.18,213.82 301.15,245.71 40.53,9.64 63.82,-0.12 63.82,45.58l0 656.26 -2173.84 0c-308.86,0 -478.53,-169.64 -478.53,-478.54l0 -2925.81c0,-308.85 169.67,-478.53 478.53,-478.53l5496.17 0c308.85,0 478.53,169.68 478.53,478.53l0 2925.81c0,560.98 -490.98,478.54 -888.7,478.54 0,-283.31 10.38,-516.11 -251.38,-664.66 -82.06,-46.55 -193.83,-64.6 -295.68,-46.83 -147.35,25.71 -161.12,57.64 -259.59,123.59 -82.09,-54.95 -156.76,-135.21 -326.47,-131.29 -58.26,1.36 -132.19,18.48 -187.8,40.88 -58.33,23.45 -94.46,58.56 -141.98,90.41 -42.2,-28.27 -42.28,-41.06 -95.24,-68.83 -88.94,-46.67 -176.45,-70.43 -276,-57.4 -73,9.57 -91.43,25.78 -148.29,30.53l0 -478.54c169.56,-113.55 596.02,-362.49 707.75,-481.68 195.15,-208.14 150.42,-542.31 -183.87,-739.48l-1125.42 -720.27c-381.89,-254.65 -738.32,55.65 -738.32,341.79z"/>
   <path class="fil0" d="M905.48 1248.74l0 792.99c0,80.85 56.03,136.7 150.38,136.7 150.97,0 136.77,-188.77 136.74,-341.8 -0.04,-163.88 1.63,-328.62 -0.24,-492.42 -2.18,-189.74 6.57,-163.84 328.35,-163.84 66.77,0 240.45,11.47 294.39,-6.42 146.92,-48.76 91.08,-267.01 -20.92,-267.01l-533.22 0c-205.92,0 -355.48,183.75 -355.48,341.8z"/>
   <path class="fil0" d="M6305.93 2479.24l0 1121.1c0,273.04 287.12,253.4 287.12,41.03l0 -1203.16c0,-212.42 -287.12,-232.02 -287.12,41.03z"/>
   <path class="fil0" d="M6593.05 1891.35c0,-190.37 -272.3,-191.22 -279.57,-11.79 -2.88,70.78 58.25,140.9 130.63,144.59 69.8,3.54 148.94,-58.02 148.94,-132.8z"/>
   <path class="fil0" d="M905.48 2574.94c0,163.92 273.43,208.06 273.43,-13.69 0,-124.95 -168.24,-165.66 -240.65,-76.61 -16.72,20.54 -32.78,57.6 -32.78,90.3z"/>
  </g>
 </g>
</svg>
