<?xml version="1.0" encoding="UTF-8"?>
<!DOCTYPE svg PUBLIC "-//W3C//DTD SVG 1.1//EN" "http://www.w3.org/Graphics/SVG/1.1/DTD/svg11.dtd">
<!-- Creator: CorelDRAW -->
<svg xmlns="http://www.w3.org/2000/svg" xml:space="preserve" width="75mm" height="75mm" version="1.1" style="shape-rendering:geometricPrecision; text-rendering:geometricPrecision; image-rendering:optimizeQuality; fill-rule:evenodd; clip-rule:evenodd"
viewBox="0 0 7500 7500"
 xmlns:xlink="http://www.w3.org/1999/xlink"
 xmlns:xodm="http://www.corel.com/coreldraw/odm/2003">
 <defs>
  <style type="text/css">
   <![CDATA[
    .fil0 {fill:#024932}
   ]]>
  </style>
 </defs>
 <g id="Layer_x0020_1">
  <metadata id="CorelCorpID_0Corel-Layer"/>
  <g id="_105553581917376">
   <path class="fil0" d="M768.75 6444.13l0 -1039.09 5961.05 0 0 1039.09c0,371.12 -298.56,601.58 -669.95,601.58l-4621.15 0c-206.89,0 -361.36,-56.35 -468.58,-160.34 -60.71,-58.92 -98.08,-94.97 -138.02,-176.48 -34.46,-70.39 -63.35,-165.79 -63.35,-264.76zm1213.74 -6193.45l227.97 0c81.82,8.75 161.82,27.22 238.27,56.39 268.77,102.47 172.09,144.75 437.24,23.68 17.54,-8.01 40.17,-16.72 58.53,-23.49 80.46,-29.63 163.56,-48.18 247.76,-56.58l215.25 0c393.56,37.84 781.99,277.83 1009.07,631.52 408.53,636.27 28.46,1092.6 365.79,1931.14 113.71,282.72 156.38,248.42 156.38,513.57 0,258.19 -247.81,505.83 -546.91,505.83l-95.66 738.32 1093.76 0c-47.09,-70.31 -104.38,-129.46 -141.13,-214.36 -95.51,-220.74 -63.97,-581.12 -63.97,-852.07 0,-147.39 126.04,-273.43 273.43,-273.43l902.35 0c122.97,0 250.45,92.64 259.78,205.07 148.64,0 204.33,-5.33 298.83,56.66 60.63,39.74 125.03,133.66 125.03,230.46 0,435.95 -350.09,489.07 -408.61,521.08 -45.23,24.73 -52.89,110.01 -129.89,225.63 -29.21,43.83 -52.89,65.3 -76.77,100.96 192.42,0 436.14,-24.73 578.79,36.44 394.45,169.21 255.5,743.99 -59.23,770.2 0,361.29 36.67,1014.71 -37.92,1288.29 -78.09,286.39 -384.73,584.78 -741.38,584.78l-4839.95 0c-330.6,0 -655.6,-270.16 -741.39,-584.78 -74.59,-273.58 -37.91,-927 -37.91,-1288.29 -77.32,-6.41 -171.7,-78.12 -211.52,-130.28 -54.29,-71.12 -82.6,-148.94 -89.25,-225.67l0 -71.4c17.46,-202.38 181.92,-379.29 410.16,-379.29l437.51 0c-1.4,-62.46 -19.95,-152.68 -27.34,-218.75 -7.43,-66.23 -17.23,-146.42 -24.81,-207.63 -47.72,-383.69 -4.28,-298.17 -142.96,-321.89 -134.25,-22.99 -232.13,-89.56 -307.61,-170.92 -117.02,-126.12 -139.89,-238.7 -139.89,-407.02 0,-221.32 314.46,-523.68 314.46,-1230.46 0,-290.15 -27.84,-451.43 25.9,-712.41 119.51,-580.89 659.02,-997.32 1187.84,-1051.3zm-1528.2 4744.2c0,-95.2 80.03,-205.07 177.76,-205.07l6234.44 0c211.91,0 255.47,396.48 -27.34,396.48l-6179.76 0c-61.25,0 -107.06,-21.89 -138.25,-53.16 -22.17,-22.21 -66.85,-98.51 -66.85,-138.25zm5468.82 -423.82c-152.71,0 -275.53,-59.15 -359.1,-133.08 -73.74,-65.26 -160.42,-209.85 -160.42,-345.45 0,-154.9 -16.57,-512.84 13.69,-642.57l984.37 0c47.13,98.19 27.34,345.8 27.34,492.18 0,197.91 -30.41,327.06 -120.68,439.88 -75.33,94.11 -220.97,189.04 -385.2,189.04zm710.98 -546.9l0 -369.14c109.24,0 86.68,-7.54 177.72,13.69 72.46,150.93 -37.99,281.52 -177.72,355.45zm-2501.99 -1312.52c72.37,-1.59 142.45,-30.06 191.76,-54.33 89.57,-43.98 110.53,-81.86 163.69,-96.06 1.98,88.98 80.23,291.6 111.15,367.39 35.5,87.12 134.98,246.8 134.98,357.24 0,168.74 -143.66,328.11 -314.46,328.11 0,-214.67 136.66,-465.31 -120.63,-658.71 -59.47,-44.68 -120.06,-65.88 -221.17,-65.88 16.06,-69.1 48.77,-106.9 54.68,-177.76zm-3185.59 505.87c0,176.79 27.34,270.83 27.34,396.48 -119.62,0 -201.17,-69.61 -252.27,-144.2 -155.17,-226.3 55.69,-416.58 150.81,-750.22 13.96,-49.04 29.67,-122.65 46.78,-158.32 94.66,63.39 189.59,147.01 341.8,150.39 14.2,60.94 50.17,123.55 54.68,177.76 -209.15,0 -369.14,165.71 -369.14,328.11zm464.85 -902.35c0,-154.54 25.78,-347.59 82.02,-464.84 525.63,0 928.4,66.58 1315.94,-324.73 80.19,-80.93 73.81,-99.13 187.99,-99.13 174.61,0 226.3,423.86 916.04,423.86 118.26,246.44 76.18,661.62 -19.41,910.28 -17.11,44.49 -39,86.1 -48.96,128.8 -139.42,0 -410.17,-45.03 -410.17,95.71 0,155.09 178.27,109.36 410.17,109.36 442.48,0 422.69,19.79 361.24,470.6l-115.15 1005.99 -2775.42 0 -151.59 -1215.68c-35.08,-288.84 106.25,-260.91 397.68,-260.91l1367.2 0c119.31,0.15 232.56,19.4 238.35,-97.81 6.81,-138.25 -154.89,-107.45 -224.66,-107.3 -460.22,1.21 -920.63,0.04 -1380.89,0.04 -77.42,-146.34 -150.38,-350.9 -150.38,-574.24zm2734.39 -451.19c160.89,13.41 273.47,181.03 273.47,314.46 0,130.28 -111.77,290.77 -232.44,300.81 0,-178.54 35.51,-121.61 -3.89,-419.97 -8.21,-62.11 -29.05,-132.18 -37.14,-195.3zm-2953.14 423.85c0,78.48 13.65,103.8 13.65,191.42 -124.06,-28.94 -218.76,-162.29 -218.76,-246.1 0,-110.91 -1.01,-195.69 86.22,-282.95 35.16,-35.16 121.57,-84.74 187.25,-86.22 -28.5,122.3 -68.36,273.86 -68.36,423.85zm-218.76 -533.21c0,-356.34 46.98,-660.73 297.08,-919.73 155.75,-161.28 338.06,-280.47 563.93,-338.42 512.72,-131.52 611.07,109.71 806.96,109.71 255.5,0 153.03,-11.86 347.32,-90.23 334.26,-134.75 689.28,-18.78 957.3,166.49 40.53,27.96 44.84,39.16 82.1,68.29 272.38,212.8 390.68,556.9 390.68,1003.89 -314.11,-210.31 -491.13,-32.59 -820.6,-163.8 -262.97,-104.73 -295.14,-243.76 -415.62,-322.67 -302.75,-198.33 -531.92,124.41 -603.44,178.08 -462.4,347.16 -1051.3,137.24 -1379.49,206.5 -107.57,22.67 -147.74,60.36 -226.22,101.89z"/>
   <path class="fil0" d="M1069.56 6047.65l0 328.11c0,224.86 181.34,369.14 410.17,369.14l4539.09 0c228.83,0 410.17,-144.28 410.17,-369.14l0 -328.11c0,-172.67 -169.13,-341.84 -341.8,-341.84l-1462.9 0c-136.08,0 -163.96,203.08 12.52,206.27l1217.98 -1.16c412.88,-0.04 355.44,11.27 355.44,478.53 0,85.52 -75.79,136.7 -164.03,136.7l-4593.81 0c-215.96,0 -164.08,-208.61 -164.08,-478.5 0,-134.21 149.77,-137.32 287.08,-136.77l2132.86 0.04c137.35,0 289.25,6.3 424.63,0.77 176.09,-7.19 137.63,-205.88 12.87,-205.88l-2734.39 0c-172.67,0 -341.8,169.17 -341.8,341.84z"/>
   <path class="fil0" d="M2436.76 3832.74c0,-329.89 519.52,-358.79 519.52,13.69 0,329.59 -519.52,329.2 -519.52,-13.69zm-205.07 -54.67l0 95.7c0,232.6 232.17,437.51 464.85,437.51 408.96,0 631.37,-509.65 352.41,-789.92 -345.72,-347.36 -817.26,-52.08 -817.26,256.71z"/>
   <path class="fil0" d="M2382.08 2342.5c0,97.5 227.11,293.5 497.24,155.48 236.41,-120.83 98.66,-264.84 49.62,-264.84 -130.98,0 -76.34,95.71 -246.09,95.71 -100.49,0 -122.54,-95.71 -191.42,-95.71 -66.11,0 -109.35,43.25 -109.35,109.36z"/>
   <path class="fil0" d="M3393.79 2205.77c0,89.52 -22.13,246.13 109.39,246.13 129.54,0 109.36,-135.61 109.36,-246.13 0,-170.61 -218.75,-151.24 -218.75,0z"/>
   <path class="fil0" d="M1780.5 2233.14c0,72.84 -13.19,218.76 109.39,218.76 137.01,0 109.36,-145.57 109.36,-273.47 0,-101.97 -218.75,-164.19 -218.75,54.71z"/>
  </g>
 </g>
</svg>
