<svg>

<symbol id="info1" xmlns="http://www.w3.org/2000/svg" xml:space="preserve" version="1.1" style="shape-rendering:geometricPrecision; text-rendering:geometricPrecision; image-rendering:optimizeQuality; fill-rule:evenodd; clip-rule:evenodd"
viewBox="0 0 7500 7500">
   <path class="fil0" d="M1067.44 4956.04l0 -3554.62c0,-63.84 31.85,-95.72 95.69,-95.72l5167.88 0c63.84,0 95.72,31.88 95.72,95.72l0 3554.62c0,31.88 -36.5,68.35 -68.39,68.35l-5222.55 0c-31.88,0 -68.35,-36.47 -68.35,-68.35zm-246.12 -3513.63l0 3472.61c0,186.58 132.68,355.45 314.47,355.45l5222.55 0c100.73,0 178.64,-57.39 229.53,-112.24 57.12,-61.56 84.94,-142.55 84.94,-256.86l0 -3486.3c0,-209.12 -146.33,-355.45 -355.45,-355.45l-5140.55 0c-225.92,0 -355.49,152.98 -355.49,382.79z"/>
   <path class="fil0" d="M1860.39 6200.17c-254.31,0 -254.31,-396.48 0,-396.48 269.46,0 270.05,396.48 0,396.48zm-423.85 -314.44c-118.47,0 -236.98,0.07 -355.45,-0.03 -88.55,-0.04 -248.85,-30.42 -256.16,110.94 -6.58,127.68 113.18,121.84 242.47,121.52 123.03,-0.31 246.12,-0.03 369.14,-0.03 44.77,93.27 44.49,132.89 146.79,222.35 242.23,211.82 632.79,69.82 700.86,-222.35l4211.46 0.59c103.39,0.7 169.18,-22.82 173.56,-111.51 8.47,-171.67 -232.75,-121.51 -433.89,-121.51 -1317.03,0 -2634.1,0.03 -3951.13,0.03 -79.09,-339.49 -557.54,-463.71 -785.45,-129.22 -31.36,46.03 -37.94,83.41 -62.2,129.22z"/>
   <path class="fil0" d="M3309.57 2577.16c51.24,4.27 77.88,33.32 117.67,60.06l743.64 527.83c-39.55,59.08 -638.88,450.75 -773.56,553.09 -90.37,68.67 -88.1,80.33 -87.75,-142.94l0 -998.04zm-232.43 -13.65l0 1203.11c0,110.28 100.38,232.39 205.1,232.39 170.62,0 182.7,-32.02 374.88,-171.95 94.32,-68.63 181.02,-120.43 275.58,-189.28 194.18,-141.29 484.29,-281.08 484.29,-459.05 0,-77.59 -17.67,-140.24 -78.19,-195.26l-553.3 -390.07c-108.36,-73.39 -325.5,-262.32 -448.59,-262.32 -145.88,0 -259.77,100.17 -259.77,232.43z"/>
</symbol>

<symbol id="info2" xmlns="http://www.w3.org/2000/svg" xml:space="preserve" version="1.1" style="shape-rendering:geometricPrecision; text-rendering:geometricPrecision; image-rendering:optimizeQuality; fill-rule:evenodd; clip-rule:evenodd"
viewBox="0 0 7500 7500">
   <path class="fil0" d="M14243.58 4565.85l0 -3554.62c0,-63.84 31.85,-95.72 95.69,-95.72l5167.88 0c63.84,0 95.72,31.88 95.72,95.72l0 3554.62c0,31.88 -36.5,68.35 -68.39,68.35l-5222.55 0c-31.88,0 -68.35,-36.47 -68.35,-68.35zm-246.12 -3513.63l0 3472.61c0,186.58 132.68,355.45 314.47,355.45l5222.55 0c100.73,0 178.64,-57.39 229.53,-112.24 57.12,-61.56 84.94,-142.55 84.94,-256.86l0 -3486.3c0,-209.12 -146.33,-355.45 -355.45,-355.45l-5140.55 0c-225.92,0 -355.49,152.98 -355.49,382.79z"/>
   <path class="fil0" d="M15036.53 5809.98c-254.31,0 -254.31,-396.48 0,-396.48 269.46,0 270.05,396.48 0,396.48zm-423.85 -314.44c-118.47,0 -236.98,0.07 -355.45,-0.03 -88.55,-0.04 -248.85,-30.42 -256.16,110.94 -6.58,127.68 113.18,121.84 242.47,121.52 123.03,-0.31 246.12,-0.03 369.14,-0.03 44.77,93.27 44.49,132.89 146.79,222.35 242.23,211.82 632.79,69.82 700.86,-222.35l4211.46 0.59c103.39,0.7 169.18,-22.82 173.56,-111.51 8.47,-171.67 -232.75,-121.51 -433.89,-121.51 -1317.03,0 -2634.1,0.03 -3951.13,0.03 -79.09,-339.49 -557.54,-463.71 -785.45,-129.22 -31.36,46.03 -37.94,83.41 -62.2,129.22z"/>
   <path class="fil0" d="M16485.71 2186.97c51.24,4.27 77.88,33.32 117.67,60.06l743.64 527.83c-39.55,59.08 -638.88,450.75 -773.56,553.09 -90.37,68.67 -88.1,80.33 -87.75,-142.94l0 -998.04zm-232.43 -13.65l0 1203.11c0,110.28 100.38,232.39 205.1,232.39 170.62,0 182.7,-32.02 374.88,-171.95 94.32,-68.63 181.02,-120.43 275.58,-189.28 194.18,-141.29 484.29,-281.08 484.29,-459.05 0,-77.59 -17.67,-140.24 -78.19,-195.26l-553.3 -390.07c-108.36,-73.39 -325.5,-262.32 -448.59,-262.32 -145.88,0 -259.77,100.17 -259.77,232.43z"/>
   <path class="fil0" d="M1657.46 3668.69l0 -970.7c0,-881.61 1052.73,-762.81 1052.73,-95.7l0 1162.1c0,668.27 -1052.73,782.41 -1052.73,-95.7zm-232.44 -998.04c0,306.94 -33.63,1119.64 49.17,1359.08 37.57,108.7 86.7,164.6 149.83,246.63 222.37,288.87 761.04,365.47 1089.87,38.6 114.24,-113.57 228.74,-301.97 228.74,-523.23l0 -1216.78c0,-611.8 -745.17,-954.73 -1205.24,-590 -213.07,168.9 -312.37,350.74 -312.37,685.7z"/>
   <path class="fil0" d="M878.15 3832.76c0,358.47 168.1,696.74 352,878.47 55.67,55.03 93.14,98.47 155.67,145.13 171.8,128.2 416.8,261.57 654.44,261.57l0 519.54c-131.77,0 -328.1,-35.07 -328.1,109.36 0,67.57 55.46,123.04 123.03,123.04l683.6 0c161.64,0 159.6,-232.4 0,-232.4l-246.1 0 0 -505.87c169.27,-3.77 362.37,-71.64 483.1,-132.17 80.44,-40.3 119.14,-64.23 189.77,-111 43.3,-28.7 46.13,-35.7 83.33,-67.07 37.5,-31.6 52.94,-39.33 88.44,-75.6 319.7,-326.8 514.03,-1036.03 262.8,-1036.03 -239.57,0 26.27,304.5 -370.9,804.87 -168.7,212.53 -469.34,384.56 -832.24,384.56 -372,0 -621.27,-176.6 -803.4,-372.36 -87.34,-93.87 -167.8,-239.67 -210.2,-377.71 -73.74,-239.9 -9.74,-439.36 -162.17,-439.36 -67.6,0 -123.07,55.46 -123.07,123.03z"/>
   <path class="fil0" d="M4637.93 1932.35l0 2556.65c0,147.2 232.44,161.7 232.44,-41l0 -2474.62c0,-202.73 -232.44,-188.2 -232.44,-41.03z"/>
   <path class="fil0" d="M5212.17 2424.55l0 1449.21c0,202.73 232.4,188.2 232.4,41.03l0 -1531.27c0,-147.17 -232.4,-161.67 -232.4,41.03z"/>
   <path class="fil0" d="M4050.03 2643.29l0 1039.07c0,115.43 232.44,140.07 232.44,-27.33l0 -1011.74c0,-155.14 -232.44,-169.57 -232.44,0z"/>
   <path class="fil0" d="M5800.04 2848.39l0 601.57c0,167.63 232.43,141.83 232.43,27.33l0 -656.27c0,-115.43 -232.43,-140.03 -232.43,27.37z"/>
   <path class="fil0" d="M6387.94 3026.12c0,172.5 -39.73,382.8 109.37,382.8 159.27,0 123.07,-202.9 123.07,-355.46 0,-167.64 -232.44,-141.84 -232.44,-27.34z"/>
</symbol>

<symbol id="info3" xmlns="http://www.w3.org/2000/svg" xml:space="preserve" version="1.1" style="shape-rendering:geometricPrecision; text-rendering:geometricPrecision; image-rendering:optimizeQuality; fill-rule:evenodd; clip-rule:evenodd"
viewBox="0 0 7500 7500">
  <path class="fil0" d="M1059.2 6471.46c0,-233.44 204.32,-395.25 370.74,-463.22 234.94,-95.97 619.39,-97.34 914.39,-97.34 417.53,0 854.55,121.88 1134.7,259.85 20.44,10.09 37.02,16.62 56.51,25.53 247.66,113.18 532.15,340.9 630.96,599.5 12.38,32.34 9.8,43.51 23.54,72.13l-2638.85 0.19c-261.95,1.66 -491.99,-170.84 -491.99,-396.64zm2912.11 -273.45c49.48,-11.53 83.96,-36.54 134.59,-56.81 46.56,-18.64 92.25,-38.68 147.22,-57.88 506.65,-176.62 1310.55,-248.31 1791.41,-85.47 91.99,31.13 196.77,92.95 261.69,162.1 313.41,333.83 49,710.69 -352.32,708.15l-1531.42 -0.19c-74.05,-317.83 -223.56,-472.02 -451.17,-669.9zm-2269.55 -505.88c-196.22,0 -171.5,14.52 -328.11,-68.34 41.44,-177.98 230.7,-239.1 401.61,-295.66 229.05,-75.78 500.72,-91.11 500.72,-210.22 0,-86.36 -60.75,-123.01 -150.39,-123.01 102.72,-440.86 111.01,-718.17 169.96,-1142.55 47.01,-338.29 41.3,-631.92 431.64,-908.23 345.25,-244.38 644.18,-183.85 1025.35,-184.66l396.5 -6.78c517.67,0 891.61,310.84 1006.19,716.44 36,127.29 32.46,229.04 52.36,371.51l92.14 782.82c8.29,59.06 18.71,119.96 30.8,187.97 11.68,65.62 33.93,122.39 35.29,183.48 -93.47,2.06 -136.72,37.17 -136.72,123.01 0,144.13 232.59,109.53 490.26,207.02 88.9,33.6 166.12,64.95 248.43,107.02 51.13,26.16 59.02,37.8 99.29,78.48 40.63,41 50.69,49.74 50.69,127.03 -131.64,35.15 12.42,54.67 -341.78,54.67 -215.68,0 -407.33,-53.45 -566.56,-117.04 -485.99,-193.98 -376.82,-402.14 -376.82,-990.36 0,-113.95 -0.26,-227.9 0.03,-341.82 0.45,-171.02 9.69,-232.4 -136.75,-232.4 -69.05,0 -95.68,101.24 -95.68,177.73l0 847.66c0,168.11 17.64,316.55 84.33,421.51 60.57,95.35 101.54,130.57 191.72,191.1 16.07,10.8 25.98,16.36 41.19,27.16l38.21 30.13c-200.46,0 -487.09,73.1 -644.3,121.32 -100.65,30.88 -185.9,63.33 -281.51,101.32 -476.99,189.59 -73.28,143.06 -818.89,-104.89 -328.63,-109.27 -443.58,-83.82 -647.87,-131.42 17.43,-15.14 -0.25,-0.7 23.8,-17.16 13.64,-9.33 20.38,-13.27 32.79,-21.93l105.48 -85.95c88.87,-80.72 166.05,-214.75 166.05,-353.46l0 -1121.11c0,-89.23 -188.78,-133.37 -216.08,2.65 -20.56,102.35 28.63,1017.11 -22.51,1180.65 -79.1,253.07 -602.22,416.31 -950.86,416.31zm2009.78 -5058.57c377.78,0 722.25,177.88 888.96,519.22 395.43,809.64 -437.98,1667.69 -1240.07,1294.78 -452.86,-210.56 -692.37,-746.13 -487.05,-1230.31 54.12,-127.69 135.36,-259 244.41,-343.48 84.88,-65.76 77.52,-79.76 210.63,-144.82 98.81,-48.3 235.64,-95.39 383.12,-95.39zm-1134.78 888.67c0,257.08 35.74,458.65 161.22,659.11 24.58,39.27 46.31,68.96 72.99,104.7l172.49 183c18.9,17.24 24.47,22.95 43.18,38.83 28.89,24.42 30.62,9.65 42.3,53.42 -130.94,0 -355.27,117.3 -440.41,174.81 -126.78,85.63 -229.49,184.81 -319.46,309.44 -263.05,364.3 -226.4,779.77 -293.63,1251.31l-86.95 541.95c-10.13,45.64 -18.75,75.08 -29.55,120.84 -12.75,53.79 -10.98,85.18 -55.23,108.83l-225.58 75.19c-140.22,50.52 -295.25,126.67 -381.61,247.29 -215.23,300.63 2.06,355.49 27.74,451.57 -145.3,38.8 -376.82,301.3 -416.35,486.06 -52.91,247.18 47.38,475.12 240.43,619.58 117.2,87.72 261.58,152.19 463.03,152.19l4402.34 0c372.7,0 710.95,-281.25 710.95,-587.89 0,-203.15 -15.07,-276.2 -142.18,-445.72 -47.08,-62.77 -205.65,-203.92 -281.66,-224.22 19.49,-72.94 109.61,-95.9 119.78,-207.64 6.59,-72.8 -56.78,-184.28 -89.42,-232.84 -110.19,-164.02 -335.11,-243.12 -527.73,-306.27 -140.77,-46.16 -124.6,-0.55 -187.48,-318.35 -67.35,-340.17 -69.89,-568.88 -113.92,-884.14 -14.81,-105.85 -17.02,-214.53 -33.05,-308.74 -58.87,-345.65 -223.74,-639.02 -505.91,-833.96 -66.91,-46.23 -134.66,-77.84 -211.55,-116.56 -44.07,-22.15 -67.68,-32.35 -116.79,-47.27 -38.46,-11.72 -103.75,-22.4 -138.6,-39.13 39.24,-58.65 327.49,-231.29 442.58,-623.85 226.73,-773.42 -350.96,-1522.65 -1126.19,-1522.65 -647.87,0 -1175.78,555.88 -1175.78,1121.11z"/>
</symbol>

<symbol id="info4" xmlns="http://www.w3.org/2000/svg" xml:space="preserve" version="1.1" style="shape-rendering:geometricPrecision; text-rendering:geometricPrecision; image-rendering:optimizeQuality; fill-rule:evenodd; clip-rule:evenodd"
viewBox="0 0 7500 7500">
   <path class="fil0" d="M1233.68 4530.03l0 -2775.35c0,-198.48 129.64,-328.12 328.12,-328.12l4374.94 0c198.48,0 328.12,129.64 328.12,328.12l0 2775.35c0,501.72 -617.57,247.1 -763.13,344.26 -95.76,63.9 -57.19,338.97 -57.19,489.71 0,186.83 0.03,373.69 0.03,560.51l-276.95 -242.58c-39.06,-39.69 -56.73,-47.95 -95.51,-82.21 -61.81,-54.63 -117.08,-107.73 -177.69,-164.11l-560.56 -492.17c-115.91,-103.28 -59.5,-85.6 -270.12,-85.32l-2447.45 0.21c-224.24,1.4 -382.61,-89.5 -382.61,-328.3zm-218.75 -2843.71l0 2912.06c0,122.54 50.86,202.65 103.57,279.23 194.7,282.87 635.59,199.29 962.83,199.29l1941.49 -0.11c128.91,-1.05 113.44,-19.32 270.06,126.39l615.22 546.86c42.17,39.24 54.77,53.52 101.01,90.44 41.51,33.11 63.94,64.61 107.34,97.72 66.33,50.64 373.31,355.45 423.81,355.45 71.15,0 136.71,-16.59 136.71,-109.37l0 -1107.38 328.12 0c242.79,0 478.51,-235.72 478.51,-478.52l0 -2912.06c0,-242.82 -235.72,-478.51 -478.51,-478.51l-4511.64 0c-242.79,0 -478.52,235.69 -478.52,478.51z"/>
   <path class="fil0" d="M2546.16 3053.47c0,256.76 -0.28,382.27 118.33,619.95 36.58,73.32 63.53,114.69 110.04,177.06l87.43 103.98c649,671.85 1529.86,320.7 1529.86,151.73 0,-59.92 -44.59,-109.38 -123.02,-109.38 -102.97,0 -509,321.58 -1088.38,-60.02 -363.54,-239.47 -513.83,-730.44 -335.64,-1172.59 247.48,-614.06 1047.92,-796.24 1544.03,-363.96l115.96 116.48c28.28,31.57 29.78,32.55 54.11,68.95 218.08,326.3 232.95,759.87 16.41,1088.76 -25.37,38.54 -164.6,194.18 -6.44,256.09 180.11,70.56 383.52,-483.51 383.52,-726.65 0,-394.55 -93.27,-660.09 -365.49,-933.3 -538.19,-540.08 -1542.82,-420.83 -1913.46,322.31 -53.38,106.99 -127.26,309.01 -127.26,460.59z"/>
   <path class="fil0" d="M3516.84 3354.26c-80.99,-54.25 -246.09,-287.1 -341.77,-287.1 -83.93,0 -139.09,80.32 -111.09,150.74 15.75,39.62 369.66,423.46 452.86,423.46 72.03,0 176.32,-128.45 222.17,-174.3 89.88,-89.91 584.46,-544.56 584.46,-632.33 0,-50.3 -41.02,-109.38 -123.02,-109.38 -80.92,0 -287.63,239.78 -352.06,304.22 -79.87,79.83 -253.43,272.36 -331.55,324.69z"/>
</symbol>

<symbol id="info5" xmlns="http://www.w3.org/2000/svg" xml:space="preserve" version="1.1" style="shape-rendering:geometricPrecision; text-rendering:geometricPrecision; image-rendering:optimizeQuality; fill-rule:evenodd; clip-rule:evenodd"
viewBox="0 0 7500 7500">
  <path class="fil0" d="M2327.41 6375.69l2843.73 0 0 109.38 -2843.73 0 0 -109.38zm738.27 -656.22l1367.19 0c26.3,112.96 130.16,358.95 136.72,437.49l-1640.63 0c6.55,-78.54 110.41,-324.53 136.72,-437.49zm-2488.25 -410.16l0 -136.72 6343.68 0c0,137.94 25.09,328.11 -191.43,328.11l-5960.82 0c-119.62,0 -191.43,-71.76 -191.43,-191.39zm4703.09 -792.98c139.11,0 248.31,56.59 347.97,130.53 94.2,69.93 158.31,191.58 185.2,306.97l-1066.38 0c25.42,-109.2 89.45,-234.94 177.25,-301.26 101.86,-76.96 216.96,-136.24 355.96,-136.24zm-2953.11 0c192.27,0 358.98,106.33 462.54,262.09 33.75,50.77 55.34,109.72 70.67,175.41l-1066.38 0c60.27,-258.74 283.01,-437.5 533.17,-437.5zm2624.96 -546.84c0,-82.23 54.3,-185.16 98.66,-229.48 303.02,-303.02 759.38,158.53 458.94,458.93 -127.7,127.73 -331.24,127.73 -458.94,0 -44.36,-44.32 -98.66,-147.25 -98.66,-229.45zm-2953.07 0c0,-264.37 340.56,-446.52 557.59,-229.48 300.37,300.37 -155.84,762.07 -458.97,458.93 -44.32,-44.32 -98.62,-147.25 -98.62,-229.45zm2734.34 -41.04c0,123.31 -1.91,182.74 58.91,296.54 65.47,122.5 100.73,100.61 118.82,168.29 -58.62,31.02 -98.26,53.57 -147.15,98.96 -45.57,42.26 -79.43,80.28 -114.72,131.38 -285.05,412.55 189.84,330.21 -790.85,330.21l0 -1859.32 3062.46 0 0 1859.32 -847.65 0c-52.61,0 -33.27,-43.77 -76.59,-169.47 -59.39,-172.28 -190.25,-308 -347.24,-391.08 28.45,-106.47 177.73,-93.61 177.73,-464.83 0,-252.22 -253.62,-505.83 -505.84,-505.83l-82.04 0c-252.22,0 -505.84,253.61 -505.84,505.83zm-2953.07 0c0,123.31 -1.92,182.74 58.91,296.54 15.51,28.99 33.93,58.98 54.34,82.38 33.41,38.28 50.88,35.07 64.47,85.91 -156.98,83.08 -287.84,218.8 -347.23,391.08 -43.33,125.7 -23.98,169.47 -76.59,169.47l-957.04 0 0 -1859.32 3062.46 0 0 1859.32 -519.5 0c-72.8,0 -11.31,-112.15 -161.96,-330.21 -74.94,-108.47 -147.92,-170.03 -261.87,-230.34 28.44,-106.47 177.72,-93.61 177.72,-464.83 0,-252.22 -253.65,-505.83 -505.83,-505.83l-82.05 0c-252.21,0 -505.83,253.61 -505.83,505.83zm3499.95 -1490.2c57.1,0 153.19,24.24 193.53,38.86 68.52,24.91 99.51,50.88 154.44,91.67 94.2,69.89 158.31,191.57 185.2,306.96l-1066.38 0c13.96,-59.98 34.82,-119.33 65.25,-167.15 103.12,-161.99 275.02,-270.34 467.96,-270.34zm-2953.11 0c57.1,0 153.22,24.24 193.56,38.86 68.53,24.91 99.48,50.88 154.44,91.67 94.21,69.89 158.31,191.57 185.21,306.96l-1066.38 0c60.27,-258.74 283.01,-437.49 533.17,-437.49zm2624.96 -546.88c0,-264.37 340.56,-446.52 557.6,-229.49 300.4,300.41 -155.84,762.11 -458.94,458.98 -44.36,-44.36 -98.66,-147.3 -98.66,-229.49zm-2953.07 0c0,-264.37 340.56,-446.52 557.59,-229.49 300.37,300.41 -155.84,762.11 -458.97,458.98 -44.32,-44.36 -98.62,-147.3 -98.62,-229.49zm2734.34 -41c0,370.25 149.21,357.99 177.73,464.83 -113.99,60.31 -186.94,121.87 -261.87,230.33 -285.05,412.55 189.84,330.21 -790.85,330.21l0 -1859.36 2871.03 0c119.63,0 191.43,71.81 191.43,191.43l0 1667.93 -847.65 0c-72.76,0 -11.31,-112.15 -161.96,-330.21 -35.29,-51.1 -69.15,-89.12 -114.72,-131.41 -48.89,-45.39 -88.53,-67.9 -147.15,-98.92 28.45,-106.48 177.73,-93.66 177.73,-464.83 0,-252.22 -253.62,-505.84 -505.84,-505.84l-82.04 0c-252.22,0 -505.84,253.62 -505.84,505.84zm-2953.07 0c0,370.25 149.17,357.99 177.72,464.83 -192.57,101.9 -325.97,271.26 -375.93,485.38 -9.73,41.78 0.07,75.16 -47.89,75.16l-957.04 0 0 -1667.93c0,-119.62 71.81,-191.43 191.43,-191.43l2871.03 0 0 1859.36 -519.5 0c-47.97,0 -38.17,-33.38 -47.94,-75.16 -22.95,-98.4 -58.54,-174.74 -114.02,-255.05 -74.94,-108.46 -147.92,-170.02 -261.87,-230.33 18.16,-68.05 49.26,-43 113.99,-159.45 195.41,-351.55 -70.81,-811.22 -442.1,-811.22l-82.05 0c-252.21,0 -505.83,253.62 -505.83,505.84zm-1421.87 -710.94l0 4238.22c0,169.99 182.59,338.8 354.83,342.45 648,13.74 1445.99,-0.63 2106.08,-0.63 -6.56,78.51 -110.41,324.5 -136.72,437.49 -113.95,0 -227.9,0.26 -341.81,-0.03 -274.95,-0.7 -232.4,-6.53 -232.4,437.53 0,66.13 43.21,109.34 109.38,109.34l3062.46 0c153.08,0 109.34,-204.39 109.34,-437.49 0,-124.49 -109.27,-109.72 -232.39,-109.38 -113.92,0.29 -227.87,0.03 -341.82,0.03 -26.3,-112.99 -130.16,-358.98 -136.72,-437.49l2092.42 0.63c182.84,-1.07 368.49,-166.75 368.49,-342.45l0 -4238.22c0,-160.26 -181.52,-341.78 -341.78,-341.78l-6097.58 0c-160.26,0 -341.78,181.52 -341.78,341.78z"/>
</symbol>

<symbol id="info6" xmlns="http://www.w3.org/2000/svg" xml:space="preserve" version="1.1" style="shape-rendering:geometricPrecision; text-rendering:geometricPrecision; image-rendering:optimizeQuality; fill-rule:evenodd; clip-rule:evenodd"
viewBox="0 0 7500 7500">
  <path class="fil0" d="M6237.52 3901.13c308.28,0 492.16,193.4 492.16,492.16 -138.84,73.5 -193.54,118.82 -395.49,138.35 -162.68,15.75 -438.89,-47.35 -510.5,-135.59 -67.31,-82.95 66.6,-494.92 413.83,-494.92zm1011.7 -229.74l0 191.1c-11.62,118.36 -45.08,232.43 -101.33,333.79 -28.45,51.27 -61.14,104.5 -95.76,150.35 -30.27,40.15 -71.54,94.82 -107.58,124.81 -179.87,149.52 -368.83,263.65 -693.38,263.65 -33.95,145.85 -225.33,465.25 -310.44,578.19 -34.62,45.92 -58.7,78.33 -93.66,125.13 -35.53,47.63 -62.65,72.59 -99.72,119.03l-474.94 413.69c-83.58,58.03 -181.02,116.83 -274.4,163.07 -337.01,166.87 -582.98,217.24 -633.52,241.49 0,173.18 0,346.36 0,519.54 0,79.06 10.53,190.39 -12.6,247.16 -21.21,52.08 -81.24,108.29 -151.44,108.29l-902.36 0c-70.21,0 -130.23,-56.21 -151.44,-108.29 -23.14,-56.77 -12.6,-168.1 -12.6,-247.16 0,-173.18 0,-346.36 0,-519.54 -55.51,-26.63 -298.83,-75.49 -642.66,-245.97 -220.68,-109.45 -600.66,-392.07 -746.09,-580.08 -37.38,-48.34 -62.79,-72.56 -99.71,-119.04 -35.42,-44.55 -58.48,-78.26 -93.62,-125.16 -82.85,-110.45 -271.5,-428.14 -304.6,-570.35 -405.23,0 -740.17,-220.46 -897.99,-537.55 -92.29,-185.47 -99.85,-305.72 -100.06,-505.57l0 -9.59c0,-469.52 444.46,-916.01 998.05,-916.01 61.77,-265.26 395.45,-716.75 598.1,-919.43 202.72,-202.69 653.9,-536.27 919.44,-598.11 0,-281.99 104.3,-521.7 290.28,-707.76 516.77,-516.91 1362.78,-274.71 1594.75,299.25 50.86,125.75 83.69,231.27 83.69,408.51 128.69,29.96 402,190.96 506.06,259.56 294.8,194.42 563.07,463.21 757.38,760.15 69.48,106.22 224.91,372.53 254.1,497.83 607.84,0 955.03,451.22 998.05,905.02zm-6480.37 708.25c0,-144.76 54.11,-247.87 120.68,-330.5 219.24,-272.23 754.06,-161.07 796.45,248.88 5.46,52.6 14.31,66.71 -11.17,98.03 -104.85,128.94 -486.35,183.15 -734.43,85.47 -36.57,-14.42 -171.53,-73.99 -171.53,-101.88zm2365.2 1326.13c-96.29,-8.02 -191.42,-138.25 -191.42,-246.08l0 -1312.48c0,-84.18 51.59,-160.76 99.23,-201.57 61.84,-52.98 614.41,-263.26 680.07,-263.26 144.73,0 146.72,19.21 283.01,72.41 81.16,31.68 147.8,53.03 228.72,85.75 113.89,46.03 322.24,99.22 322.24,306.67l0 1326.16c0,67.73 -83.02,223.4 -191.41,232.4l0 -1093.74c0.03,-122.67 30.31,-273.41 -95.69,-273.41 -63.84,0 -95.72,31.88 -95.72,95.69l0 2624.96 -328.12 0 0 -943.34c0,-131.32 -191.38,-131.32 -191.38,0l0 943.34 -328.12 0 0 -2624.96c0,-63.81 -31.89,-95.69 -95.72,-95.69 -122.22,0 -95.73,140.1 -95.69,259.76l0 1107.39zm2912.06 -2201.12c0,-371.55 437.49,-281.39 437.49,-68.35 0,76.79 2.73,134.43 -51.9,194.17 -126.6,138.5 -385.59,42.56 -385.59,-125.82zm-4785.1 191.41c-370.85,0 -286.78,-468.36 -18.33,-445.79 311.77,26.22 241.21,445.79 18.33,445.79zm4580.04 -218.74c0,150.56 64.64,213.56 123.02,300.75 -122.81,32.79 -315.91,263.4 -328.12,410.16 -88.93,-23.73 -150.39,-280.49 -150.39,-355.46 0,-267.32 29.99,-472.04 256.44,-673.25 589.67,-524.05 1529.44,67.31 1270.06,846.22 -15.54,46.72 -24.22,64.19 -45.05,105.35 -9.52,18.83 -12.74,26.56 -23.93,44.45 -12.5,19.88 -23.45,32.34 -35.67,46.37 -38.01,-163.27 -200.02,-385.97 -341.77,-423.84 63.59,-94.96 123.02,-129.43 123.02,-314.44 0,-121.62 -53.93,-214.2 -115.46,-280.97 -246.12,-267.19 -732.15,-100.07 -732.15,294.66zm-5031.18 -13.69c0,91.32 6.44,122.25 40.5,191.9 48.89,100.03 45.95,67.9 82.52,122.54 -139.78,37.34 -302.32,254.51 -341.77,423.84 -9.97,-11.48 -19.87,-22.57 -30.3,-38.08 -10.64,-15.89 -16.63,-28.03 -24.71,-43.64 -396.72,-767.58 535.14,-1533.51 1226.83,-953.39 257.39,215.88 324.24,638.04 167.68,952.76 -1.78,3.57 -26.1,41.96 -26.24,42.1 -22.3,23.84 -3.71,16.38 -41.79,26.57 -12.22,-146.76 -205.31,-377.37 -328.12,-410.16 58.37,-87.19 123.02,-150.19 123.02,-300.75 0,-394.73 -486.04,-561.85 -732.16,-294.66 -61.52,66.77 -115.46,159.35 -115.46,280.97zm2898.38 -902.32c115.04,0 204.12,3.43 298.16,84.63 5.42,4.72 24.64,22.01 28.73,25.97l26.78 27.89c243.94,268.8 42.73,695.48 -312.65,695.48 -355.39,0 -556.6,-426.68 -312.65,-695.48 2.87,-3.15 15.26,-16.52 19.88,-21.14 65.34,-65.34 151.93,-117.35 251.75,-117.35zm-574.2 410.12c0,259.39 182.17,517.02 369.14,560.56l-124.64 53.09c-297.84,107.31 -640.98,195.65 -640.98,603.15l0 1230.44c0,259.73 187.22,457.09 396.48,505.84l0 246.12c-32.24,-15.47 -101.4,-31.43 -145.25,-46.16 -52.85,-17.75 -96.32,-31.15 -142.03,-49.39 -263.16,-105.17 -407.39,-186.26 -628.97,-355.38 -180.53,-137.76 -347.62,-319.13 -484.15,-500.21 -81.41,-108.05 -248.81,-372.68 -281.22,-511.73 90.37,-7.53 238.76,-79.14 303.76,-120.09 616.9,-388.52 613.75,-1289.8 -0.14,-1673.78 -65.98,-41.22 -212.03,-112.55 -303.62,-120.18 24.29,-104.34 170.3,-359.34 230.29,-439.63 49.56,-66.33 89.6,-122.99 140.6,-187.49l334.07 -335.86c151.26,-117.49 451.03,-334 634.85,-376.84 28.95,347.55 469.66,765.62 929.69,765.62 377.33,0 684.14,-175.81 864.28,-461.86 40.95,-64.99 112.56,-213.39 120.08,-303.76 179.31,41.79 580.92,313.25 714.55,447.54 238.28,239.54 267.71,257.81 458.53,553.17 55.37,85.68 144.93,245.59 166.74,339.11 -91.6,7.63 -237.65,78.96 -303.62,120.18 -614.66,384.47 -614.66,1289.21 0,1673.68 65.97,41.23 212.02,112.56 303.62,120.19 -31.57,135.45 -197.57,400.92 -275.34,503.92 -336.52,445.68 -720.4,731.91 -1250.71,909.43 -45.04,15.08 -122.36,33.56 -155.57,49.52l0 -246.12c209.26,-48.75 396.47,-246.11 396.47,-505.84l0 -1230.44c0,-207.34 -124.21,-381.85 -259.27,-451.64 -77.77,-40.14 -162.09,-68.49 -252.38,-103.07l-253.96 -101.53c226.06,-52.68 481.03,-432.7 314.57,-806.74 -55.26,-124.11 -176.53,-257.28 -306.24,-308.98 -184.03,-73.29 -316.36,-78.12 -498.95,-3.81 -218.19,88.79 -370.68,317.76 -370.68,558.97zm587.88 -1585.89c148.65,0 291.51,46.13 371.66,147.87 66.82,84.8 120.51,197.19 120.51,344.29 -42.14,11.27 -349.51,242.62 -746.37,90.12 -38.57,-14.8 -59.85,-23.66 -93.59,-43.12 -35.42,-20.47 -52.6,-37.06 -89.7,-47 0,-266.84 187.98,-492.16 437.49,-492.16zm-191.41 -396.48l0 -68.35c0,-99.29 120.4,-191.41 218.75,-191.41 98.35,0 218.74,92.12 218.74,191.41l0 68.35c0,99.16 -94.84,191.42 -246.08,191.42 -85.4,0 -191.41,-106.05 -191.41,-191.42zm-205.06 -41.02c0,165.97 55.79,214.03 123.02,314.44 -78.92,18.41 -165.86,110.07 -214.93,167.86 -32.13,37.83 -50.61,75.81 -72.34,119.07 -62.76,124.91 -18.27,100.34 -68.18,136.91 -10.89,-46.72 -47.57,-83.44 -82.25,-177.51 -28.46,-77.14 -33.25,-128.42 -47.36,-227.01 -38.07,-266.24 135.17,-563.35 364.38,-714.2 368.62,-242.62 891.23,-113.15 1109.66,280.14 192.99,347.47 46.31,796.69 -59.29,824.9 -3.22,-143.43 -209.15,-382.44 -328.12,-410.16 67.24,-100.41 123.03,-148.47 123.03,-314.44 0,-119.45 -57.19,-213.07 -114.73,-281.74 -147.87,-176.33 -478.09,-168.14 -618.2,-0.04 -57.47,68.95 -114.69,162.09 -114.69,281.78z"/>
</symbol>

<symbol id="info7" xmlns="http://www.w3.org/2000/svg" xml:space="preserve" version="1.1" style="shape-rendering:geometricPrecision; text-rendering:geometricPrecision; image-rendering:optimizeQuality; fill-rule:evenodd; clip-rule:evenodd"
viewBox="0 0 7500 7500">
   <path class="fil0" d="M673.13 4543.68l0 -2734.33c0,-162.79 64.75,-285.42 142.13,-377.4 73.12,-86.94 238.66,-169.47 363.75,-169.47l5140.55 0c264.28,0 505.85,248.04 505.85,546.87l0 2734.33c0,156.03 -66.57,318.39 -174.13,413.8 -150.53,133.56 -274.81,133.14 -454.78,133.07l-1463.54 -0.63c-126.7,0.49 -138.66,28.84 -196.69,104.05l-753.02 942.29c-28.24,31.75 -2.73,22.37 -47.67,34.37 -13.19,-49.52 -479.52,-614.13 -510.11,-651.97 -90.93,-112.24 -174.69,-210.1 -263.2,-324.69 -112.1,-145.18 -171.92,-103.42 -484.46,-103.42 -391.93,0 -783.85,-0.11 -1175.78,0 -252.41,0.07 -445.01,-35.42 -574.72,-300.26 -32.13,-65.63 -54.18,-149.28 -54.18,-246.61zm-218.75 -2761.67l0 2775.36c0,191.72 78.3,368.4 167.89,474.66 104.34,123.76 220.61,206.53 398.05,258.19 158.48,46.13 1260.68,20.05 1594.23,19.07 186.86,-0.56 147,-16.52 235.55,92.58l724.59 902.32c26.28,32.13 46.55,57.36 72.52,91.52 118.58,156.07 214.27,-4.69 273.87,-80.6 51.8,-65.94 93.69,-118.72 145.77,-182.35 98.77,-120.71 189.32,-235.79 285.77,-356.82 96.71,-121.38 186.9,-237.61 283.5,-359.06 121.27,-152.46 82.74,-107.59 548.69,-107.59 233.2,0 1128.03,19.88 1281.96,-16.83 172.23,-41.06 288.36,-130.65 396.44,-246.12 89.91,-95.97 180.94,-293.47 180.94,-475.29l0 -2789.04c0,-289.79 -197.22,-558.07 -428.15,-665.62 -80.18,-37.34 -185.07,-72.66 -296.44,-72.66l-5140.55 0c-379.74,0 -724.63,351.92 -724.63,738.28z"/>
   <path class="fil0" d="M2450.47 3026.14c0,-336.42 183.4,-609.8 493.56,-709.55 142.35,-45.74 341.81,-51.73 481.53,7.88 70.49,30.06 125.61,60.72 183.29,103.81 60.41,45.11 103.46,99.12 154.1,133.03 16.98,-12.46 279.05,-415.48 801.88,-241.36 425.31,141.61 592.26,635.66 415.23,993.64 -97.37,196.87 -345.76,406.59 -509.63,570.46 -146.65,146.64 -620.43,597.96 -707.48,727.98 -63.94,-42.8 -958.07,-949.29 -1090.58,-1083.19 -128.34,-129.68 -221.9,-309.12 -221.9,-502.7zm-218.74 -82.04c0,293.12 65.48,512.22 249.37,693.97 74.13,73.25 139.08,137.51 212.3,211.5 40.25,40.67 53.48,68.32 95.24,109.86 102.58,102.06 902.14,914.23 960.63,953.39l1056.42 -1049c39.1,-40.64 52.89,-67.83 95.31,-109.8 253.64,-250.77 365.81,-394.2 365.81,-809.92 0,-328.72 -250.32,-668.56 -560.52,-806.63 -278.91,-124.15 -569.05,-96.11 -834.17,40.81 -53.62,27.68 -77.81,52.07 -122.85,82.24 -87.68,-58.69 -123.24,-95.02 -244.16,-138.63 -349.12,-125.93 -721.65,-55.93 -976.31,189.63 -137.16,132.23 -297.07,371.45 -297.07,632.58z"/>
</symbol>

<symbol id="info8" xmlns="http://www.w3.org/2000/svg" xml:space="preserve" version="1.1" style="shape-rendering:geometricPrecision; text-rendering:geometricPrecision; image-rendering:optimizeQuality; fill-rule:evenodd; clip-rule:evenodd"
viewBox="0 0 7500 7500">
   <path class="fil0" d="M4091.06 2903.05c-2.02,-90.57 -86.14,-210.62 -140.39,-256.08 -238.51,-199.89 -606.21,-130.13 -734.74,160.26 -65.84,148.75 -40.91,447.93 -40.91,629.04 -90.1,-47.68 -136.69,-80.66 -136.69,-218.76l0 -1490.24c0,-148.98 57.05,-232.44 205.06,-232.44 80.27,0 1081.48,670.65 1274.41,790.12 155.71,96.4 162.4,243.4 32.78,339.34l-301.08 191.11c-46.32,30.29 -100.53,82.83 -158.44,87.65zm1537.88 4347.72l-50.51 0c-62.07,-12.79 -113.83,-70.62 -112.28,-134.36 1.99,-80.58 151.98,-503.27 183.56,-617.56 78.09,-282.46 150.35,-552.27 150.35,-916.08l0 -1421.88c0,-113.79 -77.59,-191.41 -191.38,-191.41 -409.77,0 42.43,970.72 -328.15,970.72 -183.83,0 -136.73,-299.57 -136.73,-505.88 0,-125.18 53.51,-464.84 -177.73,-464.84 -228.28,0 -205.06,224.47 -205.06,451.19 0,109.48 -0.78,219.03 0.39,328.54 1.01,93.84 -16.53,190.99 -137.12,190.99 -189.9,0 -136.74,-295.02 -136.74,-505.88 0,-109 54.83,-464.84 -177.72,-464.84 -235.48,0 -205.07,221.44 -205.07,451.19 0,109.48 -0.78,219.03 0.39,328.54 2.76,254.49 -198.69,207.79 -251.65,127.79 -26.1,-39.39 -23.06,-80.89 -22.56,-141.52l0.7 -1668.7c2.14,-324.11 -263.4,-279.27 -337.56,-186.52 -54.48,68.18 -45.62,178.12 -45.58,296.23l0.08 1996.23c0.51,62.61 8.28,106.2 -15.05,149.02 -43.94,80.58 -158.47,98.86 -226.1,23.57 -57.75,-64.25 -32.4,-215.49 -32.4,-336.74l-161.47 221.32c-311.23,458.31 -170.72,528 79.65,1091l122.81 260.01c57.52,113.95 232.48,447.78 232.48,560.52 0,30.64 -48.1,94.77 -111.61,109.35l-51.33 0c-44.49,-10.5 -91.78,-50.2 -133.39,-141.16l-455.44 -980.13c-102.24,-207.48 -136.93,-266.48 -136.93,-519.33 0,-302.17 319.01,-671.12 492.19,-929.73 -574.21,0 -1148.45,0 -1722.69,0 -361.9,0 -627.32,53.98 -880.65,-199.39 -33.79,-33.79 -65.92,-74.71 -92.32,-112.78 -46.59,-67.32 -107.1,-207.75 -107.1,-316.75l0 -3171.9c0,-304.04 324.88,-628.92 628.92,-628.92l5742.25 0c304.04,0 628.92,324.88 628.92,628.92l0 3171.9c0,168.89 -110.25,340.36 -199.42,429.53 -261.07,261.07 -551.88,199.39 -962.71,199.39 0,1038.54 46.63,1229.25 -261.38,2199.58 -23.1,72.84 -45.03,147.78 -71.48,229.33 -29.05,89.53 -76.92,131.14 -125.38,141.44zm-2864.05 -5605.56l0 1654.32c0,54.33 25.71,117.8 45.16,159.91 55.72,120.72 167.18,213.82 301.15,245.71 40.53,9.64 63.82,-0.12 63.82,45.58l0 656.26 -2173.84 0c-308.86,0 -478.53,-169.64 -478.53,-478.54l0 -2925.81c0,-308.85 169.67,-478.53 478.53,-478.53l5496.17 0c308.85,0 478.53,169.68 478.53,478.53l0 2925.81c0,560.98 -490.98,478.54 -888.7,478.54 0,-283.31 10.38,-516.11 -251.38,-664.66 -82.06,-46.55 -193.83,-64.6 -295.68,-46.83 -147.35,25.71 -161.12,57.64 -259.59,123.59 -82.09,-54.95 -156.76,-135.21 -326.47,-131.29 -58.26,1.36 -132.19,18.48 -187.8,40.88 -58.33,23.45 -94.46,58.56 -141.98,90.41 -42.2,-28.27 -42.28,-41.06 -95.24,-68.83 -88.94,-46.67 -176.45,-70.43 -276,-57.4 -73,9.57 -91.43,25.78 -148.29,30.53l0 -478.54c169.56,-113.55 596.02,-362.49 707.75,-481.68 195.15,-208.14 150.42,-542.31 -183.87,-739.48l-1125.42 -720.27c-381.89,-254.65 -738.32,55.65 -738.32,341.79z"/>
   <path class="fil0" d="M905.48 1248.74l0 792.99c0,80.85 56.03,136.7 150.38,136.7 150.97,0 136.77,-188.77 136.74,-341.8 -0.04,-163.88 1.63,-328.62 -0.24,-492.42 -2.18,-189.74 6.57,-163.84 328.35,-163.84 66.77,0 240.45,11.47 294.39,-6.42 146.92,-48.76 91.08,-267.01 -20.92,-267.01l-533.22 0c-205.92,0 -355.48,183.75 -355.48,341.8z"/>
   <path class="fil0" d="M6305.93 2479.24l0 1121.1c0,273.04 287.12,253.4 287.12,41.03l0 -1203.16c0,-212.42 -287.12,-232.02 -287.12,41.03z"/>
   <path class="fil0" d="M6593.05 1891.35c0,-190.37 -272.3,-191.22 -279.57,-11.79 -2.88,70.78 58.25,140.9 130.63,144.59 69.8,3.54 148.94,-58.02 148.94,-132.8z"/>
   <path class="fil0" d="M905.48 2574.94c0,163.92 273.43,208.06 273.43,-13.69 0,-124.95 -168.24,-165.66 -240.65,-76.61 -16.72,20.54 -32.78,57.6 -32.78,90.3z"/>
</symbol>

<symbol id="info9" xmlns="http://www.w3.org/2000/svg" xml:space="preserve" version="1.1" style="shape-rendering:geometricPrecision; text-rendering:geometricPrecision; image-rendering:optimizeQuality; fill-rule:evenodd; clip-rule:evenodd"
viewBox="0 0 7500 7500">
   <path class="fil0" d="M768.75 6444.13l0 -1039.09 5961.05 0 0 1039.09c0,371.12 -298.56,601.58 -669.95,601.58l-4621.15 0c-206.89,0 -361.36,-56.35 -468.58,-160.34 -60.71,-58.92 -98.08,-94.97 -138.02,-176.48 -34.46,-70.39 -63.35,-165.79 -63.35,-264.76zm1213.74 -6193.45l227.97 0c81.82,8.75 161.82,27.22 238.27,56.39 268.77,102.47 172.09,144.75 437.24,23.68 17.54,-8.01 40.17,-16.72 58.53,-23.49 80.46,-29.63 163.56,-48.18 247.76,-56.58l215.25 0c393.56,37.84 781.99,277.83 1009.07,631.52 408.53,636.27 28.46,1092.6 365.79,1931.14 113.71,282.72 156.38,248.42 156.38,513.57 0,258.19 -247.81,505.83 -546.91,505.83l-95.66 738.32 1093.76 0c-47.09,-70.31 -104.38,-129.46 -141.13,-214.36 -95.51,-220.74 -63.97,-581.12 -63.97,-852.07 0,-147.39 126.04,-273.43 273.43,-273.43l902.35 0c122.97,0 250.45,92.64 259.78,205.07 148.64,0 204.33,-5.33 298.83,56.66 60.63,39.74 125.03,133.66 125.03,230.46 0,435.95 -350.09,489.07 -408.61,521.08 -45.23,24.73 -52.89,110.01 -129.89,225.63 -29.21,43.83 -52.89,65.3 -76.77,100.96 192.42,0 436.14,-24.73 578.79,36.44 394.45,169.21 255.5,743.99 -59.23,770.2 0,361.29 36.67,1014.71 -37.92,1288.29 -78.09,286.39 -384.73,584.78 -741.38,584.78l-4839.95 0c-330.6,0 -655.6,-270.16 -741.39,-584.78 -74.59,-273.58 -37.91,-927 -37.91,-1288.29 -77.32,-6.41 -171.7,-78.12 -211.52,-130.28 -54.29,-71.12 -82.6,-148.94 -89.25,-225.67l0 -71.4c17.46,-202.38 181.92,-379.29 410.16,-379.29l437.51 0c-1.4,-62.46 -19.95,-152.68 -27.34,-218.75 -7.43,-66.23 -17.23,-146.42 -24.81,-207.63 -47.72,-383.69 -4.28,-298.17 -142.96,-321.89 -134.25,-22.99 -232.13,-89.56 -307.61,-170.92 -117.02,-126.12 -139.89,-238.7 -139.89,-407.02 0,-221.32 314.46,-523.68 314.46,-1230.46 0,-290.15 -27.84,-451.43 25.9,-712.41 119.51,-580.89 659.02,-997.32 1187.84,-1051.3zm-1528.2 4744.2c0,-95.2 80.03,-205.07 177.76,-205.07l6234.44 0c211.91,0 255.47,396.48 -27.34,396.48l-6179.76 0c-61.25,0 -107.06,-21.89 -138.25,-53.16 -22.17,-22.21 -66.85,-98.51 -66.85,-138.25zm5468.82 -423.82c-152.71,0 -275.53,-59.15 -359.1,-133.08 -73.74,-65.26 -160.42,-209.85 -160.42,-345.45 0,-154.9 -16.57,-512.84 13.69,-642.57l984.37 0c47.13,98.19 27.34,345.8 27.34,492.18 0,197.91 -30.41,327.06 -120.68,439.88 -75.33,94.11 -220.97,189.04 -385.2,189.04zm710.98 -546.9l0 -369.14c109.24,0 86.68,-7.54 177.72,13.69 72.46,150.93 -37.99,281.52 -177.72,355.45zm-2501.99 -1312.52c72.37,-1.59 142.45,-30.06 191.76,-54.33 89.57,-43.98 110.53,-81.86 163.69,-96.06 1.98,88.98 80.23,291.6 111.15,367.39 35.5,87.12 134.98,246.8 134.98,357.24 0,168.74 -143.66,328.11 -314.46,328.11 0,-214.67 136.66,-465.31 -120.63,-658.71 -59.47,-44.68 -120.06,-65.88 -221.17,-65.88 16.06,-69.1 48.77,-106.9 54.68,-177.76zm-3185.59 505.87c0,176.79 27.34,270.83 27.34,396.48 -119.62,0 -201.17,-69.61 -252.27,-144.2 -155.17,-226.3 55.69,-416.58 150.81,-750.22 13.96,-49.04 29.67,-122.65 46.78,-158.32 94.66,63.39 189.59,147.01 341.8,150.39 14.2,60.94 50.17,123.55 54.68,177.76 -209.15,0 -369.14,165.71 -369.14,328.11zm464.85 -902.35c0,-154.54 25.78,-347.59 82.02,-464.84 525.63,0 928.4,66.58 1315.94,-324.73 80.19,-80.93 73.81,-99.13 187.99,-99.13 174.61,0 226.3,423.86 916.04,423.86 118.26,246.44 76.18,661.62 -19.41,910.28 -17.11,44.49 -39,86.1 -48.96,128.8 -139.42,0 -410.17,-45.03 -410.17,95.71 0,155.09 178.27,109.36 410.17,109.36 442.48,0 422.69,19.79 361.24,470.6l-115.15 1005.99 -2775.42 0 -151.59 -1215.68c-35.08,-288.84 106.25,-260.91 397.68,-260.91l1367.2 0c119.31,0.15 232.56,19.4 238.35,-97.81 6.81,-138.25 -154.89,-107.45 -224.66,-107.3 -460.22,1.21 -920.63,0.04 -1380.89,0.04 -77.42,-146.34 -150.38,-350.9 -150.38,-574.24zm2734.39 -451.19c160.89,13.41 273.47,181.03 273.47,314.46 0,130.28 -111.77,290.77 -232.44,300.81 0,-178.54 35.51,-121.61 -3.89,-419.97 -8.21,-62.11 -29.05,-132.18 -37.14,-195.3zm-2953.14 423.85c0,78.48 13.65,103.8 13.65,191.42 -124.06,-28.94 -218.76,-162.29 -218.76,-246.1 0,-110.91 -1.01,-195.69 86.22,-282.95 35.16,-35.16 121.57,-84.74 187.25,-86.22 -28.5,122.3 -68.36,273.86 -68.36,423.85zm-218.76 -533.21c0,-356.34 46.98,-660.73 297.08,-919.73 155.75,-161.28 338.06,-280.47 563.93,-338.42 512.72,-131.52 611.07,109.71 806.96,109.71 255.5,0 153.03,-11.86 347.32,-90.23 334.26,-134.75 689.28,-18.78 957.3,166.49 40.53,27.96 44.84,39.16 82.1,68.29 272.38,212.8 390.68,556.9 390.68,1003.89 -314.11,-210.31 -491.13,-32.59 -820.6,-163.8 -262.97,-104.73 -295.14,-243.76 -415.62,-322.67 -302.75,-198.33 -531.92,124.41 -603.44,178.08 -462.4,347.16 -1051.3,137.24 -1379.49,206.5 -107.57,22.67 -147.74,60.36 -226.22,101.89z"/>
   <path class="fil0" d="M1069.56 6047.65l0 328.11c0,224.86 181.34,369.14 410.17,369.14l4539.09 0c228.83,0 410.17,-144.28 410.17,-369.14l0 -328.11c0,-172.67 -169.13,-341.84 -341.8,-341.84l-1462.9 0c-136.08,0 -163.96,203.08 12.52,206.27l1217.98 -1.16c412.88,-0.04 355.44,11.27 355.44,478.53 0,85.52 -75.79,136.7 -164.03,136.7l-4593.81 0c-215.96,0 -164.08,-208.61 -164.08,-478.5 0,-134.21 149.77,-137.32 287.08,-136.77l2132.86 0.04c137.35,0 289.25,6.3 424.63,0.77 176.09,-7.19 137.63,-205.88 12.87,-205.88l-2734.39 0c-172.67,0 -341.8,169.17 -341.8,341.84z"/>
   <path class="fil0" d="M2436.76 3832.74c0,-329.89 519.52,-358.79 519.52,13.69 0,329.59 -519.52,329.2 -519.52,-13.69zm-205.07 -54.67l0 95.7c0,232.6 232.17,437.51 464.85,437.51 408.96,0 631.37,-509.65 352.41,-789.92 -345.72,-347.36 -817.26,-52.08 -817.26,256.71z"/>
   <path class="fil0" d="M2382.08 2342.5c0,97.5 227.11,293.5 497.24,155.48 236.41,-120.83 98.66,-264.84 49.62,-264.84 -130.98,0 -76.34,95.71 -246.09,95.71 -100.49,0 -122.54,-95.71 -191.42,-95.71 -66.11,0 -109.35,43.25 -109.35,109.36z"/>
   <path class="fil0" d="M3393.79 2205.77c0,89.52 -22.13,246.13 109.39,246.13 129.54,0 109.36,-135.61 109.36,-246.13 0,-170.61 -218.75,-151.24 -218.75,0z"/>
   <path class="fil0" d="M1780.5 2233.14c0,72.84 -13.19,218.76 109.39,218.76 137.01,0 109.36,-145.57 109.36,-273.47 0,-101.97 -218.75,-164.19 -218.75,54.71z"/>
</symbol>


</svg>
