<?xml version="1.0" encoding="UTF-8"?>
<!DOCTYPE svg PUBLIC "-//W3C//DTD SVG 1.1//EN" "http://www.w3.org/Graphics/SVG/1.1/DTD/svg11.dtd">
<!-- Creator: CorelDRAW -->
<svg xmlns="http://www.w3.org/2000/svg" xml:space="preserve" width="70mm" height="70mm" version="1.1" style="shape-rendering:geometricPrecision; text-rendering:geometricPrecision; image-rendering:optimizeQuality; fill-rule:evenodd; clip-rule:evenodd"
viewBox="0 0 7000 7000"
 xmlns:xlink="http://www.w3.org/1999/xlink"
 xmlns:xodm="http://www.corel.com/coreldraw/odm/2003">
 <defs>
  <style type="text/css">
   <![CDATA[
    .fil0 {fill:#2B2B2A}
   ]]>
  </style>
 </defs>
 <g id="Слой_x0020_1">
  <metadata id="CorelCorpID_0Corel-Layer"/>
  <path class="fil0" d="M1171.29 5054.89l-4.29 5.58c7.13,32.86 43.33,102.65 86,176.05 63.01,108.53 139.92,223.67 158.97,240.53 123.49,109.25 248.3,106.77 440.41,102.78l126.85 -1.73 1325.32 0 -21.59 -26.83c-17.89,-21.88 -36.42,-44.27 -51.54,-70.8l-25.21 -45.29c-14.11,-25.51 -28.21,-50.95 -44.86,-78.57l-26.24 -43.11c-73.12,-119.64 -98.41,-160.85 -100.03,-282.83l-1813.7 0c-10.75,0 -16.8,0.36 -21.01,1.82 -4.64,1.53 -9.23,4.51 -16.43,9.45 -5.89,3.99 -6.98,5.39 -7.92,6.76l-4.73 6.19zm1954.29 -2275.22c-8,-13.52 -12.78,-31.55 -12.78,-54.73 0,-29.15 36.2,-63.24 82.64,-94.13 73.92,-49.29 177.21,-93.63 192.48,-93.63 22.6,0 42.95,10.69 57.49,27.26 14.47,16.42 23.42,39.26 23.42,63.31 0,57.65 -50.89,84.32 -93.49,106.56 -29.8,16 -58.8,32.93 -88.09,49.79 -26.31,15.7 -63.03,29.44 -95.3,29.44 -13.15,0 -25.88,-2.33 -37.15,-7.48 -11.62,-5.39 -21.88,-14.04 -29.22,-26.39zm-136.5 -341.35c-30.38,43.18 -64.33,76.04 -96.6,76.04 -19.93,0 -40.57,-10.4 -56.49,-25.66 -15.84,-15.12 -27.61,-35.9 -29.8,-56.33l-0.22 -2.69c0,-18.91 29.8,-85.27 65.13,-146.69 36.14,-62.58 79.45,-121.68 106.06,-124.51l2.11 -0.16c23.92,-0.06 50.23,1.9 71.31,12.37 22.9,11.41 39.32,31.97 39.32,68.47 0,5.81 -46.24,121.54 -100.82,199.16zm1954.43 -691.48l-1.08 0c-24.21,0 -46.31,-6.91 -63.31,-19.33 -16.87,-12.43 -28.72,-30.6 -32.93,-53.06 -7.12,-37.94 40.49,-116.95 72.11,-169.29l19.47 -33c23.42,-42.68 48.57,-66.36 72.48,-76.91 17.8,-7.78 35.33,-8.5 50.81,-4.51 15.18,3.93 28.78,12.65 39.54,23.56 16.05,16.35 26.17,38.52 26.89,57.86l0.07 0.86c-0.07,15.28 -29.88,83.08 -66.58,146.17 -37.66,64.71 -84.1,126.27 -117.47,127.65zm-3376.93 981.51c-42.17,-20.93 -85.99,-42.81 -85.99,-100.6 0,-26.97 9.16,-49.57 24.99,-65.48 16,-15.94 38.6,-25.09 65.57,-25.09 24.57,0 128.88,62.51 153.73,77.41l22.98 12.87c42.53,23.04 88.75,48.05 88.75,107.21 0,21.16 -8.58,39.26 -20.07,52.7 -15.32,17.81 -36.84,28.13 -51.02,28.13 -57.42,0 -92.82,-22.75 -136.72,-51.03l-33.15 -20.78 -29.07 -15.34zm550.98 -243.94c-17.38,17.38 -40.21,29.95 -60.64,29.95 -56.39,0 -88.53,-59.9 -120.5,-119.57l-27.57 -48.99c-15.69,-25.81 -44.04,-72.4 -46.29,-97.26 -3.63,-39.83 10.47,-62.73 32.85,-75.74 20.79,-12.07 48.05,-14.54 74.08,-14.54 22.3,0 51.82,33.65 80.31,77.12 48.27,74 97.7,181.07 97.7,188.41 0,20.43 -12.59,43.25 -29.94,60.62zm3035.44 -515.43l0 -1.81c0,-60.78 46.23,-84.4 90.65,-107l28.13 -15.06 22.52 -13.8c40.35,-25.15 99.02,-61.64 133.91,-61.64 18.31,0 40.41,10.97 56.91,28.21 10.25,10.75 18.9,24.33 23.03,39.09 4.29,15.2 4.29,32.14 -2.31,49.29 -8.74,22.9 -29.74,46.22 -68.18,66.51 -14.98,7.85 -35.12,19.92 -56.35,32.71 -51.38,30.68 -110.69,66.29 -139.05,66.94l-1.02 0.08c-13.5,0 -35.24,-6.1 -53.34,-19.19 -18.61,-13.52 -34.17,-34.68 -34.9,-64.33zm-1196.66 -375.14c-23.4,-38.1 -56.62,-91.96 -56.62,-122.2 0,-22.6 10.54,-42.96 27.18,-57.48 16.57,-14.48 39.33,-23.42 63.39,-23.42 58.94,0 84.97,48.55 118.48,111.65 9.59,18.03 19.99,37.58 31.4,56.48l9.59 15.04c18.61,29.01 40.2,62.52 32.28,99.3 -3.2,15.2 -14.18,33.87 -29.37,48.33 -11.56,10.99 -26.09,20.21 -42.01,24.14 -16.51,4.22 -34.68,2.91 -52.63,-6.76 -16.2,-8.86 -32.34,-24.72 -46.96,-49.71l-54.73 -95.37zm-318.66 387.71c-69.06,-37.5 -116.89,-63.67 -116.89,-121.32 0,-26.96 9.16,-49.57 25.01,-65.48 15.98,-15.92 38.66,-25.08 65.63,-25.08 22.54,0 114.42,55.89 146.03,75.01l74.58 43.62c23.7,15.18 37.15,33.87 42.45,52.84 4.65,16.28 3.41,33.15 -1.89,48.33 -5.15,14.84 -14.53,28.57 -26.01,39.11 -16.22,14.98 -37.58,24.36 -59.03,23.84 -28.86,-0.72 -68.4,-24.13 -93.69,-39.25l-56.19 -31.62zm1897.38 493.93l-155.49 0c-57.78,0 -92.01,-22.76 -106.91,-51.98 -5.97,-11.77 -8.88,-24.8 -8.8,-37.58 0.06,-12.57 3.05,-25.44 8.42,-37.15 14.1,-30.45 45.3,-54.43 87.89,-54.43l194.3 0c43.46,0 74.56,23.62 88.67,53.64 5.52,11.84 8.51,24.63 8.51,37.22 0,12.78 -2.91,25.73 -9.01,37.64 -15.2,29.44 -49.79,52.64 -107.58,52.64zm-1990.21 2.61c-85.04,0 -169.79,-13.08 -169.79,-93.19 0,-80.03 76.39,-93.77 165.44,-93.77l129.16 3.21c41.87,0 71.38,23.32 84.67,53.28 5.17,11.55 7.94,24.41 7.94,36.92 0,12.72 -2.83,25.65 -8.58,37.42 -14.62,29.96 -47.97,53.52 -103.44,53.52l-105.4 2.61zm-1934.8 764.89l-155.49 0c-29.66,0 -55.45,-5.52 -75.52,-18.09 -19.19,-12.01 -32.79,-30.32 -38.96,-55.83 -14.9,-61.06 17.44,-89.77 69.2,-102.41 45.86,-11.13 107.57,-8.58 162.39,-6.41l57.78 1.6c42.31,0 73.13,24 87.15,54.3 5.39,11.56 8.28,24.49 8.36,37.14 0.08,12.8 -2.83,25.73 -8.72,37.52 -14.83,29.36 -48.92,52.18 -106.19,52.18zm1759.34 1.97c-95.08,0 -140.08,-14.04 -140.08,-111.94 0,-62.87 83.81,-74.58 171.4,-74.58l132.95 3.41c31.83,0 59.02,24.21 71.45,54.96 4.58,11.48 7.34,24.13 7.42,36.56 0.08,12.64 -2.55,25.65 -8.36,37.44 -14.46,29.28 -48.27,52.18 -109.33,52.18l-125.45 1.97zm1053.32 -1822.95l1.6 -76.62c0,-48.11 22.3,-78.05 51.25,-91.08 11.55,-5.22 24.35,-7.7 37,-7.56 12.56,0.16 25.35,2.99 36.98,8.14 31.12,13.82 55.97,44.86 55.97,90.5l2.91 130.48c0,87.74 -13.44,154.39 -93.47,154.39 -80.11,0 -93.77,-58.81 -93.77,-145.66l1.53 -62.59zm-2040.07 759.16l1.45 -68.26c0,-47.31 23.56,-78.07 53.58,-91.59 11.77,-5.31 24.49,-7.99 37,-7.99 12.65,0 25.43,2.76 37.06,7.99 30.02,13.52 53.58,44.28 53.58,91.59l3.27 137.31c0,86.14 -13.88,147.55 -93.91,147.55 -80.03,0 -93.47,-66.66 -93.47,-154.39l1.44 -62.21zm-1387.76 2906.2l-0.08 -2.83c0.3,-80.25 23.06,-137.16 65.51,-173.94 42.08,-36.42 103.28,-52.4 180.55,-51.46l48.26 1.59c28.64,1.32 44.7,1.98 50.3,-2.69 6.99,-5.88 6.55,-27.61 5.39,-75.96l-0.16 -6.9c-0.94,-39.39 -0.58,-72.69 10.47,-97.04 12.29,-26.97 35.77,-42.45 80.03,-42.45 71.53,0 83.08,69.28 83.08,143.5l-2.03 80.03 1858.86 0 0 -628.39c0,-23.26 -24.28,-43.83 -57.51,-59.69 -45.86,-21.94 -108.23,-34.3 -153.07,-34.3l-1379.56 0c-56.03,0 -101.69,9.45 -138.97,27.32 -36.86,17.68 -66.14,44.06 -89.48,77.86 -29.58,42.8 -35.19,89.12 -39.76,127.78 -7.27,61.65 -12.64,107.07 -91.29,107.07 -19.19,0 -35.69,-6.68 -48.93,-18.67 -19.03,-17.23 -30.82,-45.66 -34.15,-80.33 -3.28,-33.07 0.86,-72.62 13.22,-113.89 24.58,-82.5 82.36,-173.66 179.11,-238.29 98.41,-65.78 204.89,-63.81 345.18,-61.34l73.13 0.94c-9.82,-35.83 -20.43,-55.23 -30.38,-73.41 -23.4,-42.6 -43.69,-79.6 -43.69,-273.09 0,-143.86 148.21,-396.01 242.06,-555.56l31.4 -53.72c12.78,-22.08 25.65,-47.53 38.95,-73.92 63.97,-126.41 139.63,-275.91 301.74,-260.15 139.41,13.6 197.34,124.59 271.12,265.97l76.62 143.42c15.04,28.56 29.88,56.83 47.31,86.13l103.73 186.15c17.45,31.04 32.43,57.5 47.69,103.22 10.75,32.2 18.01,59.17 23.76,87.07 5.6,27.49 9.81,56.05 14.4,92.1 14.02,108.45 -36.78,225.42 -66.66,294.39l-13.37 31.48 205.85 -0.14c67.67,-0.44 95.65,9.59 129.24,21.65 12.29,4.36 25.43,9.17 42.31,13.74l-0.16 -50.01c-1.22,-207.75 -1.96,-340.4 118.05,-460.12 132.66,-132.29 211.02,-131.19 411.12,-128.36l88.55 0.86c-4.01,-11.25 -8.96,-20.85 -14.54,-31.75 -13.23,-25.74 -30.32,-58.95 -49.15,-136.66 -52.48,-216.61 23.63,-354.86 99.3,-492.17l41.36 -77.2 202.73 -367.28c52.55,-95.01 103.44,-187.03 242.63,-187.03 135.12,0 187.6,93.47 240.96,188.54l30.38 52.64c22.9,37.21 36.7,74.43 36.7,105.1 0,13.09 -2.53,25.37 -7.77,35.99 -5.37,10.89 -13.81,20.34 -25.08,27.25 -14.9,9.23 -35.25,14.46 -61.49,14.46 -48.56,0 -72.47,-46.66 -97.99,-96.45l-35.76 -68.98c-17.29,-37 -36.26,-77.41 -79.95,-77.41 -42.38,0 -55.09,26.75 -68.84,55.81l-7.06 14.69 -166.01 301.29 -31.76 54.02c-70.51,119.13 -150.68,254.54 -150.68,377.4 0,55.01 13.58,117.53 34.45,171.6 15.77,40.71 35.68,76.62 56.85,100.61 0.79,-26.54 2.97,-50.08 7.04,-71.96 5.6,-29.74 14.98,-56.55 29.74,-83.38l152.85 -274.61c18.39,-31.7 42.17,-54.82 68.26,-69.42 23.84,-13.38 49.93,-19.92 75.88,-19.55 25.95,0.36 52.04,7.62 75.82,21.44 27.19,15.84 51.82,40.56 70.37,73.55l39.18 68.26c68.32,117.33 136.71,234.93 146.25,356.17 20.63,-23.55 40.77,-59.38 56.83,-99.73 21,-52.48 35.11,-112.52 35.11,-163.25 0,-121.89 -46.6,-200.26 -82.51,-260.73 -24.05,-40.63 -43.74,-73.7 -43.74,-108.45 0,-15.34 9.65,-37.36 25.65,-54.45 9.96,-10.68 22.74,-19.85 37.14,-24.5 14.83,-4.79 31.76,-5.16 49.35,1.76 22.46,8.79 46.38,29.72 69.28,68.54 56.99,96.82 99.15,191.39 115.35,289.95 16.36,98.99 6.54,202.08 -40.05,315.04l-14.53 30.66c-6.48,12.8 -13.02,25.73 -17.96,40.19l82.07 -0.64c218.07,-2.33 295.32,-3.21 432.5,143.04 27.68,29.52 52.48,68.12 69.41,113.4 15.04,40.27 24.2,86.05 24.2,135.64l-0.44 991.31 -1.23 53.29c-1.74,46.96 -2.04,58.21 27.7,61.27 22.16,2.33 46.08,1.01 69.71,-0.21 31.54,-1.75 63.24,-3.49 94.13,3.12 42.89,9.15 84.16,35.18 113.76,71.01 27.83,33.81 45.78,76.55 45.78,122.41 0,85.63 -33.13,141.03 -80.31,219.6l-43.76 74.72c-113.4,198 -234.2,408.36 -568.87,408.36l-1029.84 0c-21.07,0 -44.41,-8.36 -61.64,-21.31 -17.07,-12.86 -28.92,-30.52 -28.92,-49.85 0,-112.02 32.99,-111.72 179.46,-110.34l338.58 0.3c104.31,0 202.72,1.22 288.22,2.25 255.06,3.05 392.36,4.71 486.2,-33.01 107.58,-43.17 162.89,-141.81 282.18,-354.5l27.1 -48.33 15.56 -24.94c11.35,-17.09 20.79,-31.33 24.06,-58.22l-24.5 -23.99c-8.93,-4.87 -12.2,-6.69 -30.08,-6.69l-2506.58 0c-34.01,0 -46.08,18.39 -50.45,24.94l-4.21 5.38c4.29,30.74 22.53,60.32 39.1,87.01l25.59 44.62c48.99,90.64 134.62,249.18 196.04,296.93 118.49,92.1 200.25,90.5 316.42,88.11 35.91,-0.8 75.22,-1.6 119.56,0.14 53.72,2.11 88.03,25.37 103.23,54.29 6.32,12.15 9.37,25.45 9.15,38.46 -0.21,13.01 -3.92,26.23 -10.61,38.08 -16.21,28.64 -50.96,50.67 -102.64,50.67l-60.9 0.43c-83.74,1.1 -162.69,2.04 -247.01,-16.21 -70.65,-15.26 -93.47,-24.64 -102.41,-28.35 -8.43,4.51 -30.67,15.06 -106.13,30.1 -123.35,24.5 -984.63,18.53 -1448.95,15.34l-249.7 -1.31c-350.07,0 -478.57,-237.83 -610.94,-482.94l-48.49 -87.01c-17.65,-28.78 -33.07,-53.94 -33.43,-101.99zm2632.25 -1486.17c-44.4,41.29 -70.87,100.59 -70.87,173l0 1085.02 1917.37 0 0 -1085.02c0,-71.81 -26.75,-131.13 -71.3,-172.56 -46.15,-42.81 -112.02,-67.17 -187.9,-67.17l-1399.04 0c-76.32,0 -142.16,23.98 -188.26,66.73zm-1304.68 364.17l305.08 0 1.53 -21.44c2.03,-25.95 3.33,-42.53 -10.17,-77.14l-118.27 -211.8c-10.25,-16.93 -19.77,-32.57 -25.89,-52.04 -6.6,22.82 -15.62,36.92 -26.09,53.42l-59.38 101.69c-47.68,80.55 -65.43,110.71 -66.81,207.31zm-267.05 -251.57c7.92,90.7 40.49,171.03 86.06,217.18 0.59,-33.21 2.47,-55.09 7.2,-74.8 5.74,-24.71 15.85,-44.76 32.85,-78.13l151.92 -277.38c20.2,-31.1 43.68,-53.64 68.11,-68.04 26.31,-15.4 54.16,-21.95 81.13,-20.85 26.97,1.16 53.2,10.03 76.46,25.07 23.04,14.98 43.54,36.43 58.96,62.52l152.27 275.63c13.95,28.48 23.4,54.15 29.29,82.94 4.51,21.8 7.06,45.2 8,72.54 19.26,-21.66 38.89,-55.39 54.95,-93.05 21.44,-50.01 36.42,-106.42 36.42,-150.68 0,-149.74 -51.9,-236.37 -118.26,-347.08l-261.83 -467.6 -8.43 -7.28c-11.27,-8.06 -24.94,-12.13 -38.23,-11.77 -13.08,0.44 -26.32,5.45 -37,15.26l-8.51 9.6c-27.39,38.38 -92.74,160.27 -158.74,283.7 -56.99,106.48 -114.78,214.28 -149.74,271.42 -53.72,87.65 -70.88,189.34 -62.88,280.8zm2459.63 -713.66l-2.11 0 -93.34 177.72c-19.26,37.14 -32.79,58.89 -41.94,73.57 -7.78,12.5 -12.35,19.91 -14.47,27.4 -3.05,10.68 -2.61,25.16 -1.59,58.65l0.66 25.51 304.99 0 0 -45.42c0,-48.77 -46.52,-126.54 -88.31,-196.34 -27.7,-46.29 -53.65,-89.54 -63.89,-121.09z"/>
 </g>
</svg>
