<?xml version="1.0" encoding="UTF-8"?>
<!DOCTYPE svg PUBLIC "-//W3C//DTD SVG 1.1//EN" "http://www.w3.org/Graphics/SVG/1.1/DTD/svg11.dtd">
<!-- Creator: CorelDRAW -->
<svg xmlns="http://www.w3.org/2000/svg" xml:space="preserve" width="70mm" height="70mm" version="1.1" style="shape-rendering:geometricPrecision; text-rendering:geometricPrecision; image-rendering:optimizeQuality; fill-rule:evenodd; clip-rule:evenodd"
viewBox="0 0 7000 7000"
 xmlns:xlink="http://www.w3.org/1999/xlink"
 xmlns:xodm="http://www.corel.com/coreldraw/odm/2003">
 <defs>
  <style type="text/css">
   <![CDATA[
    .fil0 {fill:#2B2B2A}
   ]]>
  </style>
 </defs>
 <g id="Слой_x0020_1">
  <metadata id="CorelCorpID_0Corel-Layer"/>
  <path class="fil0" d="M5367.14 3660.53c0,73.48 10.29,142.04 66.84,142.04 34.03,0 156.11,-38 263.71,-78.34 95.01,-35.63 178.52,-72.46 178.52,-85.26 0,-17.33 -9.49,-50.76 -19.08,-84.55 -6.85,-24.2 -13.78,-48.61 -17.4,-67.71 -24.54,-129.78 -22.43,-277.79 -20.37,-421.53 0.53,-37.41 1.07,-74.55 1.12,-111.78 -9.78,3.85 -23.91,7.73 -38.89,11.05 -19.31,4.3 -40.15,7.75 -54.96,9.16l-11.99 52.5c-26.14,115.84 -36.08,159.87 -113.8,288.16 -21.55,35.57 -72.44,99.13 -124.54,150.21 -37.93,37.21 -76.69,67.96 -105.63,76.87 -0.08,15.39 -0.84,32.96 -1.62,51.48 -0.92,21.76 -1.91,44.86 -1.91,67.7zm-1872.34 1632.51c-54.76,0 -109.5,-7.5 -174.75,-22.47 -0.1,37.86 -1.6,71.22 -6.36,101.37 -4.98,31.47 -13.56,59.34 -27.83,85.03 -26.07,46.9 -69.36,82.08 -91.78,98.19 -4.46,3.21 -8.08,5.66 -10.57,7.29 -1.8,1.17 -3.57,1.77 -5.02,2.04 0.03,0.13 -0.04,0.25 -0.24,0.35l-0.18 0.18 9.09 2.4c4.36,1.14 6.09,1.6 6.89,1.93 6.06,2.63 4.34,4.12 0.97,6.38l0.29 0.18c1.67,-0.19 6.61,-0.21 16.91,4.4l12.27 5.53c10.13,4.59 18.46,8.36 26.24,11.56 11.63,4.79 22.57,9.05 34.46,13.29 11.76,4.19 24.3,8.31 39.25,12.82 56.32,17.04 115.36,25 173.9,24.56 60.01,-0.44 119.57,-9.74 175.17,-27.14l137.73 -55.06c-10.9,-9.28 -21.42,-17.53 -31.47,-25.39 -64.19,-50.31 -109.48,-85.83 -110.2,-269.92 -65.25,14.98 -120,22.48 -174.77,22.48zm-674.32 -981.82c-73.72,0.23 -124.52,0.41 -124.52,107.88 0,9.25 4.8,19.45 11.5,28.66 8.52,11.71 20.03,21.68 28.82,26.21 20.36,10.49 34.34,9.94 56.42,9.07 6.53,-0.25 13.78,-0.55 22.23,-0.6 141.6,-0.8 144.62,58.86 148.39,133.37 1.17,23.28 2.43,48.08 8.29,72.8 19.58,82.6 53.33,153.13 97.02,211.46 66.03,88.18 154.86,148.68 251.94,181.24 97.1,32.56 202.5,37.2 301.7,13.68 68.69,-16.28 134.41,-46.08 192.27,-89.4 181.12,-135.64 200.77,-296.69 212.89,-396.23 4.61,-37.86 8.17,-67.01 19.16,-83.3 22.92,-33.96 75.09,-37.55 126.19,-41.03 61.22,-4.19 120.88,-8.27 120.88,-65.93 0,-107.92 -59.37,-108.77 -136.31,-109.85 -45.97,-0.64 -98.04,-1.39 -148.1,-23.9 -89.5,-40.24 -107.98,-81.97 -123.12,-116.17 -13.43,-30.31 -24.13,-54.45 -84.09,-65.61l-503.86 -97.98c-13.16,-2.62 -27.71,-5.91 -42.59,-9.28 -38.64,-8.72 -79.76,-18.01 -113.86,-19.33 -0.23,72.97 -7.71,133.84 -30.16,183.95 -22.94,51.18 -61.41,91.02 -123.55,120.81 -60.7,29.11 -118.95,29.32 -167.54,29.48zm-35.37 -185.45l85.59 0c74.54,0 86.59,-50.82 86.59,-113.67 0,-15.36 -0.7,-31.27 -1.4,-47.33 -3.28,-75.06 -6.7,-153.66 58.06,-185.12 36.23,-17.62 520.17,84.5 730.14,128.79 39.08,8.24 68.52,14.46 84.82,17.72 12.96,2.59 26.22,4.72 39.71,6.89 56.39,9.06 116.97,18.8 144.57,57.65 22.2,31.24 25.07,56.87 27.33,77.25 4.36,39.08 6.47,57.54 163.98,57.82l0 -208.18c0,-107.55 -51.49,-209.01 -130.48,-283.95 -80.21,-76.1 -188.79,-124.85 -300.59,-124.85l-557.24 0c-111.81,0 -220.38,48.75 -300.6,124.85 -78.99,74.94 -130.48,176.4 -130.48,283.95l0 208.18zm-247.24 388.8c-16.39,-30.79 -27.36,-66.38 -27.36,-106.61 0,-94.76 26.88,-127.78 51.49,-158.01 19.44,-23.88 37.44,-45.99 38.58,-97.48 0.48,-21.58 0.06,-44.52 -0.34,-67.28 -0.27,-15.17 -0.56,-30.33 -0.56,-45.01 -0.05,-82.45 2.75,-148.9 12.96,-208.6 10.25,-59.84 27.99,-112.92 57.8,-168.52 51.67,-96.33 132.61,-186.88 238.54,-250.21 91.95,-54.99 202.73,-89.49 329.5,-89.49 60.48,0 119.69,-1.31 177.77,-2.59 378.44,-8.37 710.89,-15.71 902.92,342.28 30.9,57.6 48.64,112.01 58.62,173.42 9.96,61.25 12.21,129.47 12.14,214.86 -0.02,35.21 -1.03,60.54 -1.78,79.73 -2.28,57.74 -2.32,59.06 34.28,107.81 38.48,51.26 55.88,107.49 55.88,161.85 0,41.16 -9.99,81.3 -28.32,117.39 -18.34,36.08 -45.05,68.18 -78.48,93.28 -45.78,34.37 -104.2,55.7 -171.05,56.43 -1.21,93.9 -49.98,209.25 -115.11,308.01 -70.57,106.99 -160.57,194.74 -230.35,214.96 -0.08,27.68 -1.17,51.89 -2.13,73.09 -4.04,89.65 -5.59,124.24 87.17,156.59 60.43,21.08 112.79,34.92 159.89,47.36 114.08,30.15 197.54,52.22 292.13,149.29 35.09,36.01 66.3,105.65 80.97,175.86 8.7,41.64 11.61,83.64 6.12,119.05 -5.56,35.98 -19.84,65.3 -45.47,80.94 -12.87,7.86 -28.54,12.23 -47.3,12.23 -85.57,0 -88.63,-64.02 -91.96,-133.65 -2.05,-42.82 -4.22,-87.88 -26.61,-120.02 -20.99,-30.13 -58.27,-54.4 -98.12,-72.68 -60.06,-27.55 -125.76,-41.42 -151.08,-41.42 -1.02,0 0.46,0.52 -0.77,1.48 -39.82,31.06 -472.56,368.73 -950.86,67.27 -6.13,-3.87 -21.77,-15.44 -38.83,-28.05 -25.83,-19.09 -55.05,-40.7 -57.14,-40.7 -25.82,0 -91.11,13.64 -150.89,41.05 -39.82,18.26 -77.11,42.62 -98.32,73.05 -22.39,32.14 -24.56,77.2 -26.61,120.02 -3.33,69.63 -6.39,133.65 -91.96,133.65 -18.89,0 -34.67,-4.5 -47.6,-12.58 -25.3,-15.76 -39.6,-45.04 -45.23,-81.02 -5.55,-35.42 -2.69,-77.5 6.27,-119.5 15.07,-70.59 47.53,-141.35 86.53,-180.54 75.46,-75.82 88.49,-80.14 193.51,-114.9l12.83 -4.24c74.59,-24.73 132.15,-41.09 176.73,-53.73 69.15,-19.64 106.98,-30.38 126.95,-49.15 23.69,-22.25 23.16,-57.54 22.01,-135.3 -0.27,-18.86 -0.59,-40.21 -0.62,-63.46 -30.44,-9.08 -68.12,-36.08 -104.69,-68.86 -50.66,-45.42 -99.44,-102.07 -123.87,-137.26 -27.77,-40.03 -61.54,-101.12 -85.61,-167.01 -18.06,-49.46 -30.69,-101.68 -31.28,-149.83 -44.75,-0.34 -80.16,-7.34 -110.39,-20 -31.06,-12.99 -56.61,-31.95 -81.23,-55.79 -21.6,-20.92 -43.33,-46.8 -59.67,-77.46zm-23.97 -2149.15c1.01,-16.01 1.71,-27.26 -35.13,-82.51 -67.05,1.25 -453.21,68.4 -644,101.55 -43.28,7.52 -76.52,13.31 -93.86,16.19 -37.91,6.31 -64.67,9.75 -83.84,12.21 -21.14,2.7 -32.96,4.22 -40.26,7.1 -8.4,3.32 -11.13,9.18 -17.27,22.39 -2.1,4.54 -4.61,9.9 -7.86,16.33 -26.06,51.46 -62.4,90.53 -107.48,117.04 -45.7,26.86 -100.34,40.82 -162.35,41.71l-14.18 0.18c-70.2,0.78 -114.11,1.29 -132.24,60.1 -1.93,6.23 -3.08,12.41 -3.52,18.43 -1.5,20.55 5.37,39.28 17.64,54.39 12.38,15.25 30.26,26.91 50.59,33.17 8.24,2.53 16.94,4.2 25.85,4.85 17.67,1.29 34.45,1.29 50.04,1.29 53.53,-0.02 93.83,-0.02 114.67,50.99 9.94,24.31 13.45,64.42 16.89,103.63 2.64,30.36 5.27,60.22 10.68,81.17 36.9,142.88 114.58,264.95 227.08,349.66 105.81,79.68 242.53,126.37 405.22,126.37 135.74,0 260.3,-51.7 359.81,-131.23 109.39,-87.43 188.54,-208.48 218.99,-331.41 2.02,-8.15 5.32,-25.56 8.48,-43.55 3.57,-20.4 6.96,-41.53 8.06,-50.83 1.39,-11.74 1.59,-24.12 1.77,-36.52 0.3,-19.56 0.6,-39.26 5.52,-57.13 17.38,-63.25 77.57,-63.22 136.71,-63.16 63.8,0.05 126.39,0.11 126.39,-85.02 0,-83.31 -57.77,-84.21 -136.89,-85.42l-4.58 -0.07c-66.05,-1.05 -126.36,-15.66 -175.8,-45.31 -46.31,-27.76 -83.09,-68.7 -106.12,-123.97 -21.01,-50.42 -19.9,-68.31 -19.01,-82.62zm-1875.7 2410.31l0.03 -385.95c5.89,-64.29 18.12,-124.77 41.75,-179.42 23.7,-54.79 58.84,-103.7 110.48,-144.65 95.46,-75.69 151.83,-90.4 249.2,-115.8 22.14,-5.77 46.45,-12.12 73.93,-19.9 108.65,-30.74 194.39,-52.43 261.98,-69.52 117.18,-29.62 179.7,-45.44 212.14,-70.64 36.31,-28.22 35.18,-69.78 32.78,-158.78 -0.71,-25.85 -1.51,-55.63 -1.56,-89.73 -29.17,-8.98 -67.97,-39.77 -106.14,-77.16 -53.97,-52.87 -107.08,-119.2 -129.77,-155.23 -68.62,-108.96 -86.1,-186.04 -110.63,-294.24l-9.4 -41.09c-70.7,-6.44 -141.11,-35.41 -191.99,-82.04 -46.06,-42.23 -76.17,-98.91 -76.17,-166.48l0 -345.48c0,-148.33 44.12,-298.92 115.34,-434.41 76.98,-146.47 185.72,-275.35 304.64,-364.66 55.04,-41.34 83.84,-56.67 99.13,-64.81 7.76,-4.14 11.85,-6.32 13.8,-8.88 2.01,-2.64 2.37,-6.9 3.1,-15.82 1.08,-13.31 2.96,-36.24 12.73,-79.23 30.4,-133.86 108.06,-237.98 208.48,-307.34 63.73,-44.02 136.65,-74.05 212.46,-88.77 75.79,-14.71 154.55,-14.15 229.94,2.97 117.74,26.76 227.36,93.9 304.99,206.3 24.98,36.18 44.16,67.69 59.09,102.13 14.94,34.45 25.6,71.68 33.56,119.29l2.74 16.74c3.89,24.01 5.62,34.65 10.08,41.13 3.44,4.99 9.08,8.19 19.14,13.91 7.43,4.21 17.2,9.76 30.09,18.27 152.75,100.81 275.35,236.34 359.4,395.14 82.79,156.42 128.2,335.44 128.2,526.05 0,18.37 0.35,37.16 0.69,56.64 3.45,190.8 8.1,450.94 -279.33,459.44 -0.51,40.24 -9.91,84.9 -23.17,128.1 -19.08,62.16 -46.19,121.39 -66.2,160.04 -76.32,147.37 -204.63,269.23 -360.62,343.7 -147.62,70.47 -320.11,98.54 -496.84,65.7 -19.73,-3.65 -37.14,-8.6 -54.03,-13.39 -22.44,-6.35 -44.06,-12.5 -69.01,-14.98 0.02,120.44 -0.21,289.98 -178.32,333.22l-0.01 15.08c-0.15,171.54 -0.26,285.24 140.49,371.87 23.27,14.34 41.47,22.08 62.76,26.15 21.47,4.11 46.29,4.56 82.69,4.32 17.16,-0.1 41.54,-0.66 69.59,-1.31 96.49,-2.18 236.79,-5.38 284.24,4.93 39.81,8.67 63.69,30.69 73.97,56.53 5.34,13.41 7.01,27.87 5.32,41.97 -1.67,14.06 -6.7,27.87 -14.72,40.03 -16.4,24.9 -45.31,43.02 -83.78,43.02 -43.85,0 -86.01,0.99 -126.9,1.95 -228.73,5.37 -418.94,9.83 -563.67,-162.38 -46.46,-55.26 -72.54,-103.67 -87.01,-162.86 -14.22,-58.22 -17.19,-126.7 -17.26,-222.46 -48,4.86 -121.21,27.31 -174.91,43.76l-33.57 10.18c-30.82,9.06 -61.74,16.87 -92.02,24.52 -174.01,43.92 -327.62,82.71 -327.62,329.99 0,55.46 -0.85,104.02 -1.58,145.92 -2.26,129.47 -3.4,194.43 25.16,225.57 28.61,31.21 88.82,30.05 209.53,27.72 36.89,-0.7 79.36,-1.53 127.54,-1.57l0 -174.75c0,-41.6 22.78,-68.39 51.87,-80.14 11.2,-4.52 23.38,-6.8 35.52,-6.82 12.14,-0.01 24.3,2.26 35.49,6.76 28.88,11.68 51.42,38.36 51.42,80.2l0 1181.34c0,33.79 -22.76,55.38 -51.88,64.78 -11.14,3.59 -23.23,5.4 -35.27,5.4 -12.04,0 -24.13,-1.81 -35.28,-5.4 -29.11,-9.4 -51.87,-30.99 -51.87,-64.78l0 -821.15 -271.48 0 0 642.83c0,27.18 -20.58,49.93 -47.64,62.05 -11.63,5.21 -24.52,8.5 -37.44,9.29 -12.97,0.82 -26.08,-0.85 -38.14,-5.49 -26.04,-10.02 -47.07,-33.8 -51.42,-76.27 -4.16,-40.44 -2.15,-177.02 -0.07,-318.37 2.46,-167.83 5.03,-342.44 -2.39,-369.46 -3.7,-13.51 -15.93,-29.78 -28.84,-47 -9.81,-13.05 -20.04,-26.67 -27.54,-40.42 -8.5,-15.56 -15.99,-31.11 -21.35,-48.19 -5.39,-17.17 -8.64,-35.9 -8.64,-57.71zm779.83 -2957.89c-155.67,160.43 -247.55,380.4 -248.87,634.26 37.04,-16.06 80.61,-17.26 122.05,-18.39 55.64,-1.53 107.42,-2.95 131.96,-40.63 12.51,-19.18 14.95,-36.71 17.27,-53.36 2.87,-20.69 5.59,-40.17 25.87,-60.56 22.31,-22.43 63.47,-28.35 101.66,-33.84l20.44 -3.04c114.77,-18.51 230.48,-37.97 346.18,-57.43l188.84 -31.63c30.29,-5.03 61.64,-11.17 92.93,-17.3 196.01,-38.42 390.47,-76.53 463.51,135.84 6.4,18.61 9.48,39.05 12.43,58.72 3.82,25.43 7.47,49.65 17.75,66.03 21.78,34.74 69.99,35.88 123.07,37.09 41.13,0.94 85.16,1.96 123.16,18.5 -0.67,-145.74 -27.65,-269.84 -72.89,-375.92 -45.79,-107.41 -110.31,-196.43 -185.12,-270.81 -38.78,-38.55 -79.75,-74.48 -124.07,-106.16 -44.29,-31.66 -91.95,-59.1 -144.08,-80.69 -53.6,-22.2 -124.69,-46.6 -199.15,-62.42 -57.24,-12.15 -116.48,-19.22 -171.2,-16.29 -260.88,13.98 -484.07,115.53 -641.74,278.03zm438.58 -566.63c-57.42,40.01 -102.26,94.17 -118,154.84 42.63,-3.89 68.53,-10.71 95.55,-17.84 47.19,-12.44 97.89,-25.81 245.33,-26.39 57.88,-0.23 122.85,5.3 182.23,15.55 52.28,9.03 100.34,21.75 135.61,37.46 -16.18,-59.11 -61.98,-117.79 -122.01,-161.65 -59.95,-43.8 -134.03,-72.78 -206.95,-72.69 -71.23,0.09 -148.97,26.95 -211.76,70.72zm4494.8 3123.31l-0.03 378.05c-2.6,27.97 -6.42,53.95 -11.88,76.84 -5.54,23.15 -12.78,43.33 -22.13,59.43 -5.78,9.95 -13.98,20.77 -22.28,31.72 -12.99,17.11 -26.24,34.58 -30.06,48.49 -6.41,23.37 -4.45,211.36 -2.62,386.58 1.54,148.91 3,288.67 -0.96,311.53 -6.38,36.84 -27.03,57.71 -51.99,66.53 -12.69,4.48 -26.53,5.81 -40.13,4.51 -13.52,-1.28 -26.88,-5.19 -38.68,-11.17 -24.6,-12.44 -42.7,-33.9 -42.7,-59.73l0 -642.83 -271.49 0 0 821.15c0,33.79 -22.76,55.38 -51.88,64.78 -11.14,3.59 -23.23,5.4 -35.27,5.4 -12.04,0 -24.13,-1.81 -35.26,-5.4 -29.12,-9.4 -51.88,-30.99 -51.88,-64.78l0 -1181.34c0,-41.83 22.54,-68.52 51.4,-80.2 11.2,-4.51 23.36,-6.77 35.51,-6.76 12.14,0.01 24.32,2.3 35.52,6.82 29.08,11.75 51.86,38.54 51.86,80.14l0 174.75c38.54,0.08 75.51,1.41 109.95,2.64 30.63,1.09 59.32,2.12 85.78,2.12 100.93,0 164.93,-15.28 164.93,-101.5 0,-35.44 0.99,-71.78 1.97,-107.92 5.11,-188.22 10.07,-371.28 -127.19,-453.06 -26.46,-15.76 -83.85,-37.5 -142.66,-56.04 -57.86,-18.24 -117.01,-33.38 -149.33,-36.68 -7.15,28.2 -24.1,64.54 -44.23,100.85 -27.19,49.01 -60.31,98.09 -82.98,126.88 -88.91,112.89 -192.13,200.77 -313.24,260.43 -121.1,59.65 -260.06,91.09 -420.42,91.09 -131.58,0 -201.19,-29.11 -230.2,-64.8 -10.8,-13.3 -16.07,-27.55 -16.84,-41.59 -0.78,-14.03 2.94,-27.85 10.08,-40.28 16.57,-28.89 51.72,-50.59 91.74,-50.95 24.14,-0.22 39.06,2.89 53.98,5.99 8.24,1.72 16.5,3.45 26.39,4.58 129.65,14.88 251.55,-4.75 360.69,-50.84 116.44,-49.17 218.43,-128.49 299.89,-228.17 30.19,-36.95 48.68,-75.12 68.09,-115.19 7.09,-14.65 14.31,-29.57 22.27,-44.79 -32.04,-14.79 -67.8,-23.34 -105.4,-32.31 -59.46,-14.19 -123.56,-29.5 -186.61,-72.7 -98.82,-67.74 -97.78,-177.33 -96.9,-271.95l0.15 -21.96c-25.8,2.61 -52.36,9.9 -77.75,16.86 -19.17,5.25 -37.72,10.34 -54.86,13.16 -169.31,27.84 -315.95,8.47 -444.09,-45.98 -128.09,-54.43 -237.71,-143.95 -333.02,-256.41 -38.74,-45.71 -80.99,-120.87 -112.34,-199.17 -27.77,-69.37 -47.03,-141.32 -47.79,-197.6 -16.62,-0.62 -33.87,-3.07 -49.94,-6.63 -16.13,-3.58 -31.15,-8.34 -43.23,-13.57 0.1,9.07 0.45,18.5 0.79,28.11 1.33,36.94 2.77,76.9 -8.19,105.39 -11.96,31.1 -32.88,49.91 -56.26,58.03 -14.73,5.11 -30.42,5.97 -45.44,2.98 -15,-2.98 -29.42,-9.82 -41.58,-20.08 -20.59,-17.38 -34.8,-44.61 -34.8,-79.67l0 -568.38c0,-85.65 7.8,-167.84 22.02,-244.21 14.83,-79.67 36.7,-153.06 64.02,-217.5 80.88,-190.76 219.44,-357.02 390.12,-474.45 165.49,-113.86 361.21,-181.87 563.87,-181.87 146.17,0 273.7,18.55 389.2,56.96 115.53,38.42 218.97,96.7 316.9,176.13 434.83,352.63 417.01,792.06 399.21,1231.35 -8.92,220.16 -17.84,440.31 30.44,649.14 6.22,26.93 12.48,47.08 18.04,65.04 11.34,36.64 19.96,64.41 19.96,120.74 0,51.37 -35.86,95.28 -83.25,130.38 -77.27,57.24 -185.76,91.31 -217.66,95.7l0 15.86c43.27,4.19 100.26,21.06 150.18,35.83 22.5,6.66 43.6,12.91 61.22,17.33 103.92,26.11 206.45,78.91 278.63,158.4 61.22,67.42 100.64,154.04 100.64,259.77zm-1740.02 -954.25c95.85,52.52 211.53,81.39 343.37,81.39 133.7,0 260.99,-53.13 363.16,-138.68 105.55,-88.37 184.32,-211.35 215.69,-346.12 3.35,-14.36 5.87,-39.67 8.61,-67.2 4.5,-45.32 9.62,-96.62 20.18,-116.91 21.74,-41.78 60.84,-41.93 109.4,-42.09 19.29,-0.06 40.17,-0.15 61.92,-2.93 6.69,-0.85 13.2,-2.36 19.41,-4.4 20.3,-6.69 37.19,-19.32 48.33,-35.14 11.07,-15.75 16.51,-34.72 14.02,-54.22 -0.6,-4.68 -1.68,-9.46 -3.26,-14.24 -20.48,-62.17 -63.71,-62.07 -121.22,-61.93 -69.79,0.18 -159.99,0.4 -257.18,-104.45 -30.85,-33.29 -37.38,-54.13 -41.78,-68.18 -5.62,-17.94 -7.41,-23.59 -66.13,-32.49l-631.21 -104.4c-16.27,-2.71 -31.83,-5.66 -47.17,-8.55 -44.92,-8.5 -87.99,-16.63 -136.67,-16.84 -38.82,58.2 -37.53,68.97 -35.73,83.78 1.72,14.18 3.86,31.81 -21.89,89.17 -65.53,145.97 -185.37,153.31 -281.08,159.16 -77.61,4.74 -138.85,8.5 -138.85,87.81 0,84.7 62.54,84.86 126.31,85.02 61.97,0.15 125.11,0.31 138.87,72.59 5.83,30.59 7.69,57.91 9.48,84.55 2.27,33.64 4.48,66.27 14.59,102.76 5.73,20.71 13.93,42.94 23.23,64.92 11.19,26.42 24.02,52.53 36.17,75.27 52.75,98.82 130.6,178.19 229.43,232.35zm-322.19 -1613.36c-156.53,161.83 -254.48,386.71 -255.86,645.18 38.89,-16.98 83.02,-17.81 124.03,-18.57 55.6,-1.03 105.39,-1.98 126.01,-43.83 7.06,-14.33 10.43,-35.65 14.04,-58.48 3.59,-22.69 7.43,-46.88 15.35,-67.71 77.06,-202.52 263.43,-166.17 464.22,-127.03 32.74,6.38 65.91,12.85 98.77,18.32l176.33 29.52c118.91,19.97 238.96,40.14 358.74,59.48 128.39,20.73 129.98,43.64 132.52,80.92 1.36,19.79 3.03,43.96 27.56,74.55 25.19,31.41 74.09,32.81 126.62,34.27 41.69,1.17 85.64,2.4 122.92,18.57 -1.43,-253.39 -100.65,-481.02 -261.78,-645.54 -162.01,-165.43 -386.64,-267.12 -637.34,-267.12 -245.41,0 -470.16,100.02 -632.13,267.47z"/>
 </g>
</svg>
