<?xml version="1.0" encoding="UTF-8"?>
<!DOCTYPE svg PUBLIC "-//W3C//DTD SVG 1.1//EN" "http://www.w3.org/Graphics/SVG/1.1/DTD/svg11.dtd">
<!-- Creator: CorelDRAW -->
<svg xmlns="http://www.w3.org/2000/svg" xml:space="preserve" width="70mm" height="70mm" version="1.1" style="shape-rendering:geometricPrecision; text-rendering:geometricPrecision; image-rendering:optimizeQuality; fill-rule:evenodd; clip-rule:evenodd"
viewBox="0 0 7000 7000"
 xmlns:xlink="http://www.w3.org/1999/xlink"
 xmlns:xodm="http://www.corel.com/coreldraw/odm/2003">
 <defs>
  <style type="text/css">
   <![CDATA[
    .fil0 {fill:#2B2B2A}
   ]]>
  </style>
 </defs>
 <g id="Слой_x0020_1">
  <metadata id="CorelCorpID_0Corel-Layer"/>
  <path class="fil0" d="M4014.68 1390.51c15.99,72.4 6.68,148.09 -26.39,214.44 1.8,1.07 3.19,2.34 4.88,2.87 46.2,13.81 77.26,57.06 75.58,105.26 -1.13,46.84 29.28,88.63 74.19,101.97 49.7,14.9 103.42,-2.63 134.74,-43.99 3.93,-5 8.24,-9.56 12.88,-13.68l1.29 -1.14 0.04 -0.03 1.35 -1.13 0.16 -0.15 1.2 -0.97c1.83,-1.47 3.7,-2.87 5.61,-4.21l1.25 -0.87 0.2 -0.13c1.91,-1.3 3.87,-2.52 5.85,-3.68l0.06 -0.04 0.69 -0.4 0.81 -0.46c2.03,-1.13 4.09,-2.21 6.17,-3.2l0.08 -0.05 1.5 -0.69c3.13,-1.44 6.32,-2.71 9.56,-3.84l0.09 -0.03 3.28 -1.07 0.01 0 0.41 -0.13 1.25 -0.36 3.34 -0.92 1.16 -0.29 0.52 -0.13 0.17 -0.03 1.53 -0.35 1.66 -0.36 0.03 0 1.7 -0.34 0.23 -0.05 1.48 -0.26 0.48 -0.08 1.23 -0.19 0.74 -0.11 0.98 -0.14 1 -0.13 0.72 -0.09 1.26 -0.14 0.47 -0.06 1.52 -0.14 0.21 -0.02 1.74 -0.13 0.04 -0.01 1.7 -0.11 0.3 -0.01 1.43 -0.06 1.7 -0.05 0.05 0 0.82 -0.02 0.93 -0.01 1.08 0 0.67 0.01 1.35 0.03 0.4 0 1.61 0.07 0.14 0 1.75 0.1 0.13 0 1.63 0.12 0.37 0.03 1.38 0.12 0.64 0.07 1.12 0.11 0.89 0.11 0.86 0.11 1.16 0.15 0.6 0.09 1.41 0.21 0.33 0.06 1.69 0.28 0.07 0.02 1.75 0.33 0.18 0.04 1.56 0.32 0.45 0.1 1.3 0.3 0.7 0.17 1.04 0.25 0.96 0.25 0.78 0.2 1.21 0.34 0.52 0.15 1.47 0.43 0.26 0.08 1.73 0.54 1.66 0.49 0.61 0.18 1.05 0.28 1.24 0.33 0.43 0.1 1.66 0.42 0.19 0.04 1.48 0.34 0.81 0.18 0.87 0.19 1.42 0.28 0.25 0.06 1.68 0.31 0.36 0.06 1.31 0.23 0.99 0.16 0.69 0.11 1.61 0.23 0.07 0.01 1.67 0.21 0.56 0.08 1.12 0.12 1.18 0.12 0.5 0.05 1.68 0.14 0.12 0.01 1.56 0.12 0.74 0.04 0.94 0.06 1.36 0.06 0.31 0.01 1.68 0.05 0.3 0.01 0.25 0 2.04 0.03 0.76 0 1.54 -0.01 0.12 -0.01 1.68 -0.03 0.48 -0.02 1.18 -0.05 1.1 -0.05 0.56 -0.04 1.67 -0.1 0.06 0 1.59 -0.14 0.67 -0.05 0.99 -0.1 1.28 -0.13 0.37 -0.05 1.65 -0.2 0.24 -0.02 1.4 -0.2 1.59 -0.23 0.05 -0.01 1.45 -0.24 0.19 -0.03 1.63 -0.29 0.42 -0.08 1.21 -0.23 1.02 -0.21 0.6 -0.12 1.62 -0.36 1.61 -0.38 0.59 -0.14 1.01 -0.25 1.19 -0.31 0.41 -0.11 1.6 -0.45 0.17 -0.04 1.41 -0.43 0.77 -0.22 0.82 -0.26 1.33 -0.43 0.24 -0.08 1.56 -0.53 0.35 -0.11 1.21 -0.43 0.93 -0.34 0.63 -0.24 1.48 -0.56 0.06 -0.03 1.53 -0.62 0.51 -0.2 1.02 -0.43 1.07 -0.46 0.46 -0.2 1.5 -0.67 0.12 -0.05 1.39 -0.65 0.66 -0.31 0.83 -0.4 1.21 -0.6 0.27 -0.15 1.48 -0.76 0.27 -0.13 1.19 -0.65 0.81 -0.44 0.65 -0.35 1.33 -0.77 0.11 -0.06 1.43 -0.84 0.42 -0.25 1.01 -0.61 0.94 -0.58 0.47 -0.3 1.4 -0.9 0.04 -0.03 1.35 -0.9c10.93,-7.36 20.77,-16.57 28.99,-27.49 3.86,-4.58 7.18,-9.59 9.86,-14.95 0.74,-1.6 3.39,-8.58 4.02,-10.6 15.93,-34.22 12.29,-74.36 -9.53,-105.16 -27.34,-37.96 -26.56,-89.34 1.9,-126.46 28.86,-37.97 29.77,-90.27 2.23,-129.21 -30.31,-37.99 -80.99,-53.19 -127.21,-38.17 -44.07,14.14 -92.22,-1.95 -118.94,-39.75 -7.24,-9.42 -15.85,-17.71 -25.54,-24.58 -29.91,-20.02 -67.35,-25.18 -101.55,-13.99 -48.1,14.6 -81.81,57.9 -84.17,108.11 -1.22,40.03 -25.05,75.9 -61.48,92.54zm-113.09 2872.51l972.35 255.55 0 0.11c155.06,43.17 286.7,134.94 380.08,256.16 95.03,123.35 150.5,277.25 150.76,441.44l0.04 698.61c0,24.93 -10.11,47.51 -26.46,63.86 -16.37,16.32 -38.95,26.45 -63.85,26.45l-3639.41 0c-24.94,0 -47.52,-10.11 -63.86,-26.45 -16.33,-16.38 -26.46,-38.96 -26.46,-63.86l0 -698.62c0.26,-164.06 55.62,-317.92 150.53,-441.29 94.9,-123.37 229.4,-216.32 387.91,-258.61l964.85 -253.39 0 -239.55c-96.32,-41.25 -185.42,-96.68 -264.48,-163.89 -71.47,-60.73 -134.81,-131.16 -187.94,-209.47l0.01 128.68c-0.3,199.58 -81.32,380.25 -212.14,511.05 -130.79,130.8 -311.48,211.83 -511.08,212.13l-158.23 0.05c-24.93,0 -47.51,-10.11 -63.86,-26.46 -16.33,-16.37 -26.46,-38.97 -26.46,-63.86l0 -632.93c0.35,-171.42 60.71,-331.07 162.89,-456.59 98.59,-121.1 236.12,-210.5 396.26,-248.21 -25.39,-32.46 -45.44,-68.48 -59.59,-106.63 -16.22,-43.82 -24.78,-90.54 -24.8,-138 0.14,-43.62 7.38,-86.65 21.09,-127.42 13.35,-39.66 32.87,-77.25 57.98,-111.23l0 -77.8c0,-235.16 63.61,-455.48 174.54,-644.72 -27.62,-18.53 -52.33,-41.73 -72.82,-69.2l0.17 -0.13c-3.89,-4.98 -7.45,-9.92 -10.69,-14.79l-3.88 -6.19c-7.85,-11.76 -14.42,-24.64 -19.44,-38.52 -19.84,-44.47 -27.35,-93.27 -22.98,-141.55 2.97,-32.72 11.72,-65.02 26.1,-95.32 -20.52,-39.76 -31.23,-83.48 -32.06,-127.54 -1.13,-59.64 16.16,-119.5 52.04,-170.45l0.36 0.26c1.89,-2.7 3.87,-5.35 5.93,-7.97 38.32,-48.38 89.54,-82.33 145.74,-99.37 41,-12.43 84.59,-16.02 127.71,-9.84 8.5,-8.25 17.37,-15.92 26.54,-22.91 2.84,-2.21 5.76,-4.35 8.77,-6.4 44.63,-30.48 95.64,-47.78 147.49,-51.45 51.7,-3.67 104.63,6.3 153.29,30.27 48.36,23.81 88.42,59.73 117.11,103.08 20.55,31.07 35.31,66.03 43.15,103.19 8.29,-8.13 17.06,-15.77 26.26,-22.86 35.13,-27.06 76.53,-46.04 121.25,-54.63 19.88,-40.08 48.51,-74.42 83.03,-100.84 41.01,-31.39 90.82,-51.73 144.71,-57.45 9.37,-1.52 18.97,-2.32 28.76,-2.32l1.16 0 0 0.62 5.6 0.08c62.75,2.1 120.98,23.49 167.89,58.99 33.93,25.71 62.35,59.06 82.72,98.13 46.16,8.21 89.01,27.13 125.45,54.47 11.17,8.36 21.74,17.52 31.63,27.39 9.17,-46.2 28.77,-88.57 56.49,-124.18 33.08,-42.48 78.26,-76.09 131.61,-95.8 4.46,-1.86 9.02,-3.56 13.7,-5.08 40.27,-13.16 82.51,-17.26 123.82,-12.66l8.33 0.95c40.75,5.62 80.52,19.93 116.57,42.54 3.96,2.38 7.85,4.93 11.68,7.65 12.05,8.55 23.43,17.97 33.97,28.13l0.31 0.31c43.18,-6.35 86.61,-2.98 127.29,9.2 55.15,16.55 105.56,49.26 143.84,95.87 3.12,3.73 6.11,7.63 8.96,11.68 35.89,50.76 53.24,110.69 52.23,170.63 -0.76,43.71 -11.48,87.28 -32.06,127.11 14.36,30.39 23.11,62.92 26.11,95.99 4.19,46.25 -2.66,93.08 -20.96,136.22l-0.91 2.88 -0.23 -0.09c-2.27,5.97 -4.9,12.49 -6.71,16.42l-0.36 -0.17 -2.43 5.07c-5.51,10.99 -10.53,19.92 -14.99,26.65l-0.32 -0.21 -3.33 4.98c-2.5,3.9 -5.18,7.74 -8.02,11.52 -20.06,26.61 -44.04,49.16 -70.72,67.27 111.06,189.33 174.76,409.78 174.76,645.09l-0.03 78.54c25.27,33.85 44.85,71.36 58.22,110.95 13.75,40.79 20.92,83.78 20.92,127.27 0,47.52 -8.54,94.33 -24.79,138.25 -14.16,38.26 -34.23,74.36 -59.62,106.9 160.18,37.4 297.76,126.63 396.35,247.6 102.22,125.41 162.56,285.01 162.73,456.37l0.05 632.93c0,24.87 -10.13,47.46 -26.46,63.82 -16.4,16.38 -38.99,26.5 -63.86,26.5l-158.26 -0.05c-199.57,-0.31 -380.26,-81.33 -511.06,-212.13 -130.8,-130.81 -211.82,-311.48 -212.12,-511.07l-0.05 -128.73c-53.09,78.33 -116.4,148.76 -187.84,209.5 -79.08,67.23 -168.17,122.69 -264.47,163.98l0 239.54zm-1327.24 -2343.79c-99.51,154.17 -161.49,335.1 -172.77,530.14 17.44,-6.5 35.29,-11.8 53.4,-15.83 23.34,-5.19 47.18,-8.34 71.15,-9.32l1338.95 -393.63c4.11,-1.21 8.3,-2.13 12.5,-2.74 4.29,-0.62 8.57,-0.94 12.72,-0.94 9.42,0 18.76,1.51 27.64,4.42 8.87,2.91 17.31,7.22 24.92,12.82l534.49 381.77c21.29,1.34 42.41,4.45 63.06,9.22 16.12,3.73 32.05,8.52 47.68,14.3 -11.2,-194.95 -73.08,-375.81 -172.44,-529.93 -9.78,-0.42 -19.58,-1.31 -29.37,-2.7 -32.85,30.86 -71.83,53.67 -113.8,67.38 -57.4,18.73 -120.31,20.38 -180.62,2.3l0.06 -0.2c-61.35,-18.35 -112.7,-55.9 -148.19,-104.7l0.46 -0.33c-18.43,-25.39 -32.64,-53.78 -41.84,-84.06 -17.75,54.77 -51.11,104.19 -97.87,140.9l-0.2 -0.26 -4 3.06c-51.22,38.15 -111.5,57.24 -171.4,57.24 -42.96,0 -86.13,-9.82 -126.01,-29.47 -40.65,20.41 -85.16,30.44 -129.68,30.11 -61.45,-0.46 -122.63,-20.53 -173.5,-60.16 -48.67,-37.34 -83.65,-87.59 -102.39,-143.27 -2.05,-6.1 -3.91,-12.26 -5.58,-18.47 -8.53,38.63 -25.01,74.54 -47.87,105.66 -31.24,42.5 -74.49,76.3 -125.78,96.11 -14.82,6.64 -30.35,11.15 -46.14,13.56 -53.38,11.2 -107.27,7.83 -156.49,-8.39 -41.39,-13.61 -79.96,-36.36 -112.66,-67.22 -9.47,1.33 -18.96,2.21 -28.43,2.63zm2570.73 2402.12l0 -542.6c-0.09,-149.72 -60.9,-285.32 -159.11,-383.53 -98.21,-98.23 -233.83,-159.03 -383.52,-159.17l-67.93 0.05 0 542.6c0.08,149.71 60.91,285.32 159.12,383.53 98.21,98.21 233.81,159.04 383.52,159.16l67.92 -0.04zm-489.51 -1571.75c-9.58,-25.31 -23.66,-48.92 -41.74,-69.59l-9.25 -10.78c-12.04,-11.64 -25.28,-21.94 -39.41,-30.68 -9.76,-6.04 -20.02,-11.39 -30.65,-15.98l0 412.68c38.38,-16.62 70.63,-43.27 94.06,-76.18 26.39,-37.07 41.62,-82.12 41.83,-129.74 -0.14,-27.41 -5.25,-54.42 -14.84,-79.73zm-2359.61 1412.64c98.21,-98.2 159.04,-233.82 159.16,-383.51l-0.04 -542.63 -67.9 0c-149.72,0.08 -285.33,60.9 -383.54,159.11 -98.21,98.21 -159.03,233.82 -159.16,383.52l0.04 542.62 67.91 0c149.71,-0.08 285.32,-60.9 383.53,-159.11zm64.83 -1202.99c23.42,33.14 55.76,60 94.33,76.78l0.01 -413.47c-10.66,4.58 -20.92,9.94 -30.7,15.99 -14.25,8.82 -27.6,19.22 -39.74,31 -20.93,21.15 -37.3,46.02 -48.41,73.04 -11.09,26.99 -16.99,56.22 -16.99,86.09 0,47.91 15.11,93.25 41.5,130.57zm274.91 -378.72l0.01 486.14c0,237.18 96.18,451.97 251.65,607.43 155.48,155.47 370.26,251.66 607.44,251.66 237.18,0 451.97,-96.19 607.44,-251.66 155.48,-155.46 251.66,-370.25 251.66,-607.43l0 -507.74 -479.82 -342.4 -1238.38 364zm1085.26 1752.02l0 -251.79c-34.87,7.97 -70.13,14.11 -105.5,18.37 -40.09,4.81 -80.44,7.26 -120.66,7.26 -40.21,0 -80.53,-2.45 -120.59,-7.25 -35.4,-4.24 -70.67,-10.38 -105.57,-18.33l0 251.74c0,62.43 25.33,118.99 66.26,159.9 40.92,40.92 97.47,66.25 159.9,66.25 62.44,0 118.99,-25.33 159.9,-66.25 40.93,-40.91 66.26,-97.47 66.26,-159.9zm-615.43 112.54l-232.48 61.41 0 447.79 1243.5 0 0 -447.81 -232.48 -61.41c-24.1,84.97 -74.46,157.27 -140.86,208.91 -69.2,53.83 -155.88,85.26 -248.41,85.26 -92.53,0 -179.21,-31.43 -248.41,-85.26 -66.4,-51.64 -116.76,-123.93 -140.86,-208.89zm-1340.12 1379.49l561.07 0c-32.4,-39.81 -58.11,-84.36 -76.38,-131.83 -21.15,-54.88 -32.3,-113.65 -32.33,-173.44 0.2,-69.03 15.03,-136.45 42.62,-198.1 26.94,-60.22 66.05,-115 115.56,-160.49l0 -524.09 -206.73 54.82c-118.95,31.57 -219.92,101.25 -291.13,193.8 -71.21,92.53 -112.71,207.97 -112.72,331.03l0.04 608.3zm938.22 0l1582.34 0c84.28,0 160.62,-34.19 215.86,-89.43 55.24,-55.24 89.42,-131.57 89.42,-215.85 0,-48.11 -11.31,-94.79 -32.19,-136.57 -20.92,-41.82 -51.46,-78.88 -89.89,-107.68l-0.09 -0.05c-11.23,-8.53 -20.19,-19.5 -26.37,-31.86 -6.17,-12.34 -9.56,-26.1 -9.65,-40.26l-0.04 -613.31 -135.85 -36.01 0 491.04c0,24.91 -10.12,47.48 -26.45,63.82 -16.38,16.37 -38.95,26.49 -63.86,26.49l-1424.12 0c-24.86,0 -47.45,-10.12 -63.81,-26.46 -16.38,-16.4 -26.5,-38.97 -26.5,-63.85l0 -491.04 -135.89 36.02 0.01 613.25c-0.1,14.21 -3.49,27.97 -9.66,40.31 -6.17,12.33 -15.15,23.29 -26.43,31.85 -38.47,28.85 -69.01,65.92 -89.92,107.75 -20.89,41.78 -32.19,88.45 -32.19,136.56 0,84.28 34.18,160.61 89.42,215.85 55.24,55.24 131.58,89.43 215.86,89.43zm1959.52 0l561.04 0 0 -608.28c-0.01,-123.2 -41.61,-238.72 -112.97,-331.27 -71.37,-92.55 -172.52,-162.16 -291.67,-193.56l-205.95 -54.83 0.02 524.04c49.53,45.49 88.65,100.28 115.59,160.53 27.59,61.64 42.42,129.05 42.62,198.06 -0.03,59.77 -11.18,118.53 -32.31,173.43 -18.27,47.47 -43.98,92.04 -76.37,131.88zm-857.51 -4406.72c-15.15,-47.13 -58.41,-79.57 -107.91,-80.88 -45.71,-0.5 -86.3,-29.37 -101.76,-72.4 -14.81,-46.47 -57.26,-78.6 -106.01,-80.24l-1.16 0c-48.3,0.87 -90.42,33.09 -103.88,79.5 -13.41,44.24 -53.95,74.7 -100.18,75.26 -48,0.95 -89.76,33.11 -102.92,79.28 -13.95,48.68 3.34,100.91 43.56,131.67 36.22,26.27 52.05,72.47 39.54,115.43 -14.03,49.15 3.71,101.86 44.63,132.5 37.83,29.46 90.73,29.85 129,0.96 36.98,-27.77 87.68,-28.37 125.3,-1.49 38.59,28.75 91.47,28.75 130.07,0 39.06,-30.66 54.24,-82.81 37.73,-129.64 -15.37,-43.9 -0.32,-92.69 37.11,-120.31 39.36,-30.47 54.31,-83.02 36.88,-129.64zm-960.81 397.3c45.26,-13.1 76.04,-54.98 75.05,-102.08 -1.7,-48.45 29.68,-91.88 76.22,-105.48 2.01,-0.53 3.39,-1.9 5.3,-2.54 -32.85,-66.51 -42.84,-142 -28.41,-214.76 -35.93,-16.74 -59.38,-52.28 -60.64,-91.91 -2.41,-43.3 -27.98,-81.95 -66.89,-101.12 -38.9,-19.17 -85.13,-15.89 -120.95,8.58 -8.87,6.54 -16.76,14.32 -23.42,23.11 -26.72,37.8 -74.86,53.88 -118.93,39.75 -46.31,-14.93 -97.01,0.45 -127.22,38.59 -27.36,38.86 -26.37,90.98 2.44,128.78 28.47,37.12 29.25,88.5 1.91,126.46 -21.82,30.8 -25.47,70.94 -9.54,105.16 1.48,3.39 2.86,6.93 4.14,10.6 2.44,4.87 5.47,9.42 9,13.57 8.55,11.46 18.85,21.1 30.33,28.71l0.08 0.06 1.3 0.85 0.62 0.39 1.52 0.94 0.43 0.28 0.24 0.13 1.41 0.85 0.32 0.19 1.11 0.64 0.88 0.5 0.56 0.31 1.44 0.78 0.02 0.01 1.44 0.75 0.58 0.31 0.89 0.45 1.16 0.57 0.32 0.15 1.48 0.71 0.26 0.12 1.24 0.56 0.85 0.39 0.65 0.27 1.45 0.62 0.06 0.03 1.52 0.63 0.53 0.21 0.99 0.39 1.14 0.43 0.4 0.15 1.55 0.56 0.19 0.07 1.35 0.48 0.81 0.27 0.75 0.25 1.43 0.45 0.14 0.05 1.57 0.47 0.47 0.14 1.1 0.32 1.1 0.31 0.49 0.13 1.59 0.41 0.13 0.04 1.47 0.36 0.75 0.17 0.85 0.19 1.38 0.31 0.22 0.05 1.62 0.32 0.4 0.08 0.27 0.05 1.98 0.37 0.59 0.1 1.62 0.26 0.05 0.01 1.58 0.24 0.68 0.09 0.95 0.13 1.33 0.16 0.31 0.04 1.64 0.17 0.33 0.03 1.32 0.13 0.96 0.08 0.69 0.04 1.61 0.11 0.03 0 1.66 0.09 0.61 0.03 1.05 0.03 1.25 0.04 0.4 0.01 1.66 0.02 0.25 0 1.42 0 0.89 -0.01 0.76 -0.02 1.55 -0.05 0.12 -0.01 1.67 -0.07 0.52 -0.02 1.14 -0.07 1.18 -0.08 0.49 -0.03 1.67 -0.15 0.16 -0.01 1.51 -0.15 0.81 -0.09 0.85 -0.1 1.47 -0.18 0.2 -0.03 1.67 -0.23 0.45 -0.07 1.22 -0.19 1.09 -0.18 0.58 -0.1 1.65 -0.31 0.09 -0.01 1.58 -0.32 0.73 -0.15 0.15 -0.03 2.16 -0.48 0.28 -0.06 1.66 -0.4 0.37 -0.09 1.29 -0.34 1.01 -0.26 0.64 -0.18 1.65 -0.48 1.74 -0.55 0.25 -0.08 1.5 -0.45 0.5 -0.15 1.24 -0.34 0.76 -0.21 0.99 -0.26 1.02 -0.25 0.74 -0.18 1.27 -0.3 0.49 -0.1 1.52 -0.33 0.24 -0.04 1.76 -0.34 0.02 0 1.74 -0.31 0.28 -0.05 0.72 -0.11 1.31 -0.19 1.22 -0.17 0.8 -0.11 0.98 -0.12 1.04 -0.11 1.71 -0.16 0.32 -0.03 0.46 -0.04 1.55 -0.11 0.22 -0.01 1.76 -0.1 0.05 -0.01 1.72 -0.06 0.3 -0.01 1.46 -0.03 0.57 -0.01 0.31 0 1.48 0 0.22 0 0.95 0.02 1.7 0.04 0.06 0 1.31 0.06 0.44 0.02 1.58 0.09 0.18 0.02 1.74 0.14 0.08 0 1.67 0.17 0.32 0.02 1.43 0.16 0.57 0.08 1.17 0.15 0.03 0.01 1.64 0.23 0.05 0.01 1.08 0.17 0.65 0.11 1.32 0.23 0.4 0.08 1.56 0.3 0.16 0.03 3.14 0.69 0.27 0.06 0.34 0.08 1.36 0.35 0.57 0.14 1.11 0.3 0.82 0.23 0.86 0.25 1.06 0.31 0.62 0.19 1.29 0.4 0.37 0.13 1.65 0.56 1.65 0.58 0.11 0.04 1.53 0.57 0.34 0.13 1.28 0.51 0.58 0.23 1.04 0.44 1.61 0.69 1.03 0.46 0.56 0.26 1.25 0.58 0.34 0.16 0.03 0.02c2.1,1 4.15,2.09 6.17,3.23l0.57 0.32 0.96 0.55 0.77 0.46 0.74 0.45 2.97 1.88 1.39 0.92 0.08 0.06c3.41,2.31 6.67,4.84 9.82,7.56l1.29 1.13 0.05 0.05 1.32 1.2c4.05,3.76 7.84,7.85 11.32,12.31 31.13,40.68 84.02,58.1 133.25,43.9z"/>
 </g>
</svg>
