<?xml version="1.0" encoding="UTF-8"?>
<!DOCTYPE svg PUBLIC "-//W3C//DTD SVG 1.1//EN" "http://www.w3.org/Graphics/SVG/1.1/DTD/svg11.dtd">
<!-- Creator: CorelDRAW -->
<svg xmlns="http://www.w3.org/2000/svg" xml:space="preserve" width="70mm" height="70mm" version="1.1" style="shape-rendering:geometricPrecision; text-rendering:geometricPrecision; image-rendering:optimizeQuality; fill-rule:evenodd; clip-rule:evenodd"
viewBox="0 0 7000 7000"
 xmlns:xlink="http://www.w3.org/1999/xlink"
 xmlns:xodm="http://www.corel.com/coreldraw/odm/2003">
 <defs>
  <style type="text/css">
   <![CDATA[
    .fil0 {fill:#2B2B2A}
   ]]>
  </style>
 </defs>
 <g id="Слой_x0020_1">
  <metadata id="CorelCorpID_0Corel-Layer"/>
  <path class="fil0" d="M2557.3 5712.23c0,-88.88 68.32,-146.48 156.26,-146.48l1562.5 0c172.31,0 156.24,151.7 156.24,244.14l-1875 0 0 -97.66zm1103.53 -1787.11c0,152.14 195.31,138.19 195.31,0 0,-117.97 -195.31,-117.97 -195.31,0zm-2666.03 -1015.62c0,172.95 212.12,76.2 314.48,50.8 126.09,-31.28 246,-67.39 369.06,-99.68 46.44,-12.18 610.74,-157.36 643.35,-176.97 98.49,-59.21 29.59,-184.3 -37.83,-184.3 -59.09,0 -122.61,24.61 -168.01,37.06 -60.2,16.5 -109.42,29.93 -169.77,45.08 -275.98,69.28 -571.22,159.74 -840.17,224.28 -59.34,14.23 -111.11,35.93 -111.11,103.73zm3623.05 -302.73c0,100.92 190.15,116.08 315.95,152.79l924.29 248.33c73.83,18.66 126.77,-24 136.71,-75.48l0 -34.97c-7.3,-37.73 -39.01,-74.02 -103.22,-89.79 -61.26,-15.04 -112.01,-29.14 -170.28,-44.55 -92.02,-24.37 -952.13,-263.75 -1005.79,-263.75 -55.66,0 -97.66,51.39 -97.66,107.42zm0 -644.53c0,49.77 41.16,107.41 87.89,107.41 57.3,0 585.78,-145.58 677.28,-172.31l500.42 -134.36c70.43,-19.26 103.58,-55.19 111.36,-91.8l0 -35.19c-10.55,-50.55 -65.13,-91.86 -128.86,-77 -65.87,15.36 -125.96,35.09 -185.58,49.75 -300.59,73.89 -621.86,171.91 -923.76,248.11 -25.1,6.35 -68.37,14.56 -90.13,27.05 -20.14,11.55 -48.62,50.87 -48.62,78.34zm-3623.05 -312.51c0,70.45 36.47,91.98 103.71,111.15 59.27,16.89 114.75,30.74 169.68,45.16 111.05,29.13 220.55,58.22 332.15,87.76 66.76,17.67 620.63,175.85 673.77,175.85 92.95,0 131.99,-129.4 55.09,-182.05 -21.89,-14.97 -58.22,-20.92 -87.76,-29.41 -62.8,-18 -127.65,-34.78 -184.19,-50.2 -125.35,-34.15 -250.1,-66.49 -371.16,-97.57 -125.87,-32.31 -243.35,-68.6 -369.04,-99.73 -82.09,-20.33 -322.25,-123.76 -322.25,39.04zm2480.59 -644.53l38.84 0c40.73,7.75 76.83,40.14 78.7,97.19 3.75,115.3 -28.06,94.76 69.84,115.71 266.64,57.07 525.39,341.79 525.39,587.89 64.04,0 107.43,26.19 107.43,87.88 0,118.19 -77.49,107.43 -156.26,107.43l0 566.4c118.06,0 244.14,-26.91 244.14,117.19 0,532.25 43.27,488.29 -273.44,488.29l297.92 2192.32c17.64,44.09 175.11,112.37 239.2,112.37 140.65,0 170.04,8.78 299.68,-61.66 24.65,-13.39 53.88,-35.55 73.54,-53.42 68.14,-61.96 109.61,-54.47 181.21,9.85 75.45,67.82 188.76,109.97 295.14,109.74 84.59,-0.17 158.62,-20.26 222.8,-55.18 127.32,-69.31 90.98,-105.59 187.4,-105.59 27.44,0 77.56,25.35 87.88,71.04l0 34.83c-9.84,47.31 -60.1,108.89 -191.1,181.55 -353.16,195.89 -673.63,-44.04 -707.33,-53.05 -21.53,14.41 -19.47,17.55 -45.55,32.57 -146.06,84.1 -240.86,94.38 -423.21,94.38 11.48,23.91 55.74,322.27 -87.88,322.27l-2089.84 0c-62.61,0 -93.15,-58.42 -97.56,-117.28 -4.45,-59.49 -10.62,-162.71 9.66,-204.99 -119.78,0 -184.47,0.05 -274.82,-27.91 -44.15,-13.66 -63.62,-24.11 -102.82,-43.67l-91.11 -55.37c-54.45,12.68 -62.81,48.25 -169.51,84.39 -199.39,67.52 -355.73,57.75 -543.46,-35.48 -128.76,-63.95 -177.8,-127.57 -185.47,-178.27l0 -28.43c7.4,-46.45 50.65,-76.58 87.9,-76.58 75.02,0 63.37,16.26 111.42,54.59 139.41,111.21 359.09,146.33 519.51,48.99 123.1,-74.72 142.42,-160.83 260.75,-57.76 125.48,109.29 223.64,110.44 368.08,110.44 52.94,0 224.25,-60.59 241.54,-119.8 9.4,-32.25 16.72,-119.32 21.6,-154.18l253.88 -1875.03c6.73,-47.89 20.09,-107.89 20.09,-155.68 -140.63,0 -273.44,30.27 -273.44,-117.18 0,-520.03 -39.85,-488.3 244.14,-488.3l0 -566.4 -68.36 0c-106.01,0 -139.26,-195.31 19.53,-195.31 0,-246.1 258.76,-530.82 525.41,-587.89 97.88,-20.95 66.08,-0.41 69.83,-115.71 1.86,-57.05 37.96,-89.44 78.71,-97.19zm632.22 3669.46l49.51 345.97c13.68,113.85 40.81,233.93 40.81,349.81l-781.26 0 690.94 -695.78zm-1228.04 -7.35c3.4,-40.93 13.9,-92 20.09,-136.15 6.15,-43.76 12.27,-94.09 18.42,-137.85 12.59,-89.68 22.92,-190.23 37.51,-274.98 9.53,-55.25 0.54,-30.9 63.14,-93.12l824.51 -825.87c23.76,-23.63 18.89,-25.21 61.73,-26.16 17.4,209.13 166.01,1121.72 166.01,1249.99l-827.64 832.52c-148.54,148.54 -49.39,114.75 -451.66,114.75 0,-103.17 24.19,-204.95 36.02,-305.76 7.53,-64.02 -9.3,-49.31 29.21,-88 80.58,-80.98 154.55,-153.17 235.06,-233.68 78.89,-78.88 150.61,-150.61 229.5,-229.5 92.27,-92.27 222.16,-186.22 222.16,-275.87 0,-49.99 -51.36,-97.65 -97.66,-97.65 -59.72,0 -240.52,206.33 -290.53,256.34l-275.87 270.99zm129.37 -915.54c-1.61,-38.69 10.53,-106.86 15.4,-140.87l60.31 -437.72 498.05 0 -573.76 578.59zm-197.73 -988.76l1367.19 0 0 205.09 -1367.19 0 0 -205.09zm234.39 -761.71l898.42 0 0 566.4 -898.42 0 0 -566.4zm449.2 -605.48c201.94,0 392.91,133.13 469.09,321.94 10.73,26.62 17.79,64.95 28.96,88.23l-996.1 0c21.42,-44.62 8.75,-64.28 65.08,-159.55 87.87,-148.62 260.41,-250.62 432.97,-250.62z"/>
 </g>
</svg>
