<?xml version="1.0" encoding="UTF-8"?>
<!DOCTYPE svg PUBLIC "-//W3C//DTD SVG 1.1//EN" "http://www.w3.org/Graphics/SVG/1.1/DTD/svg11.dtd">
<!-- Creator: CorelDRAW -->
<svg xmlns="http://www.w3.org/2000/svg" xml:space="preserve" width="70mm" height="70mm" version="1.1" style="shape-rendering:geometricPrecision; text-rendering:geometricPrecision; image-rendering:optimizeQuality; fill-rule:evenodd; clip-rule:evenodd"
viewBox="0 0 7000 7000"
 xmlns:xlink="http://www.w3.org/1999/xlink"
 xmlns:xodm="http://www.corel.com/coreldraw/odm/2003">
 <defs>
  <style type="text/css">
   <![CDATA[
    .fil0 {fill:#2B2B2A}
   ]]>
  </style>
 </defs>
 <g id="Слой_x0020_1">
  <metadata id="CorelCorpID_0Corel-Layer"/>
  <path class="fil0" d="M4071.01 3476.09c259.76,0 480.63,376.08 608.58,592.55l153.13 247.25c-90.02,47.66 -318.46,178.75 -400.38,185.57 -56.97,-244.58 -516.29,-287.45 -736.53,-318.16l-327.94 -23.65 147.97 -193.81c83.66,-112.63 186.28,-303.82 302.56,-390.83 68.38,-51.19 158.62,-98.92 252.61,-98.92zm117.21 -1328.15c0,-121.95 39.11,-215.72 81.23,-299.6 133.97,-266.85 411.82,-423.04 719.53,-423.04l156.24 0c-4.1,186.32 -157.41,416.15 -310.94,528.84 -258,189.34 -453.99,134.34 -566.35,166.09 -28.57,8.1 -50.95,21.01 -79.71,27.71zm-1171.9 -722.64c270.04,0 507.45,10.92 705.76,202.4 135.18,130.58 251.29,312.63 251.29,520.24 -62.3,-14.52 -77.23,-38.29 -165.96,-39.17 -57.57,-0.51 -142.55,-9.6 -193.04,-21.74 -110.97,-26.67 -203.86,-71.79 -287.06,-132.89 -153,-112.27 -305.73,-337.78 -310.99,-528.84zm-205.07 -107.43c0,334.42 149.01,630.37 411.99,808.72 356.13,241.46 540.54,139.3 656.18,203.17 60.11,33.2 103.73,99.04 103.73,189.28l0 771.47c-292.59,0 -499.87,375.5 -634.84,566.4 -54.19,76.65 -117.43,162.74 -195.23,214.85l-215.27 -126.57c-318.44,-185.4 -647.21,-14.98 -923.21,150.23 -602.55,360.69 -1019.76,95.05 -1019.76,298.62l0 898.45c0,155.38 281.02,52.76 549.68,104.59 258.12,49.82 681.34,220.93 1014.67,303.72 679.62,168.62 1335.39,74.68 1927.65,-275.71 138.67,-81.98 362.2,-173.9 263.9,-294.74 -79.36,-97.6 -226.42,45.11 -393.19,136.17 -113.61,62.07 -202.35,107.54 -329.74,158.51 -445.95,178.35 -828.63,188.41 -1292,108.92 -403.27,-69.12 -1016.64,-348.88 -1281.99,-348.88l-263.69 0 0 -683.61c353.76,0 516.07,-23.59 826.91,-178.99 51.07,-25.55 82.19,-45.68 133.51,-71.54 31.06,-15.62 39.05,-23.55 68.2,-39.23 213.41,-114.54 364.52,-207.03 602.21,-100.82 158.33,70.68 231.35,194.08 543.91,247.12 151.5,25.69 762.33,28.24 872.18,192.29 -89.54,133.69 -519.88,151.97 -676.49,173.14 -36.39,4.86 -68.79,0.75 -104.83,2.62 -43.37,2.24 -46.79,9.53 -97.23,10.17 -71.1,0.86 -144.8,-2.84 -215.55,-0.7 -76.7,2.31 -74.16,10.59 -205.14,9.67 -193.04,-1.34 -137.67,195.71 -38.7,195.71 434.28,0 1049.67,-1.92 1373.69,-159.56 97.64,-47.49 279.12,-95.51 459.04,-185.47 275.87,-137.96 410.84,-217.21 763.03,-121.77 113.61,30.78 196.26,87.65 226.53,95.74 -1.97,1.34 -5.2,0.7 -6.13,3.59l-268.77 112.11c-174.07,69.59 -69.25,206.52 1.45,206.52 34.7,0 246.31,-93.72 297.1,-113.04 118.37,-45 249.79,-73.63 249.79,-189.67 0,-103.97 -196.9,-207.4 -279.74,-247.54 -186.63,-90.42 -345.49,-104.01 -550.32,-104.01 -59.41,0 -71.22,9.76 -126.99,9.76l-265.53 -408.29c-127.89,-203.16 -112.23,-165.62 -238.09,-328.29 -65.38,-84.41 -245.4,-217.98 -355.72,-220.47l0 -771.47c0,-246.67 244,-210 351.2,-224.91 463.95,-64.68 820.64,-471.88 820.64,-976.26 0,-48.26 -39.63,-87.88 -87.87,-87.88 -362.54,0 -551.42,-32.34 -855.52,169.85 -108.24,71.96 -290.47,256.15 -316.33,367.23l-19.56 0c-12.6,-54.15 -98.28,-166.61 -134.32,-207.45 -159.83,-180.84 -424.08,-329.63 -695.74,-329.63l-341.84 0c-48.24,0 -87.86,39.62 -87.86,87.88z"/>
  <path class="fil0" d="M4959.7 4970.22c0,146.06 195.3,146.06 195.3,0 0,-117.96 -195.3,-117.96 -195.3,0z"/>
 </g>
</svg>
